<svg width="284" height="265" viewBox="0 0 284 265" fill="none" xmlns="http://www.w3.org/2000/svg">
<rect x="228" width="24" height="24" rx="5" fill="#E0F9F9"/>
<path d="M242.5 17L237.5 12L242.5 7" stroke="#424242" stroke-width="1.5"/>
<rect x="260" width="24" height="24" rx="5" fill="#E0F9F9"/>
<path d="M269.5 17L274.5 12L269.5 7" stroke="#424242" stroke-width="1.5"/>
<path d="M1.11861 18V7.81818H7.43253V9.14062H2.65483V12.2429H6.98011V13.5604H2.65483V18H1.11861ZM11.9331 18.1541C11.1807 18.1541 10.5327 17.9934 9.98917 17.6719C9.44892 17.3471 9.03131 16.8913 8.73633 16.3047C8.44466 15.7147 8.29883 15.0237 8.29883 14.2315C8.29883 13.4493 8.44466 12.7599 8.73633 12.1634C9.03131 11.5668 9.44229 11.1011 9.96928 10.7663C10.4996 10.4316 11.1194 10.2642 11.8287 10.2642C12.2595 10.2642 12.6771 10.3355 13.0815 10.478C13.4859 10.6205 13.8488 10.8442 14.1703 11.1491C14.4918 11.4541 14.7453 11.8501 14.9309 12.3374C15.1165 12.8213 15.2093 13.4096 15.2093 14.1023V14.6293H9.13903V13.5156H13.7527C13.7527 13.1245 13.6731 12.7782 13.514 12.4766C13.3549 12.1716 13.1312 11.9313 12.8429 11.7557C12.5578 11.58 12.2231 11.4922 11.8386 11.4922C11.421 11.4922 11.0564 11.5949 10.7449 11.8004C10.4366 12.0026 10.198 12.2678 10.0289 12.5959C9.86322 12.9207 9.78036 13.2737 9.78036 13.6548V14.5249C9.78036 15.0353 9.86985 15.4695 10.0488 15.8274C10.2311 16.1854 10.4847 16.4588 10.8095 16.6477C11.1343 16.8333 11.5138 16.9261 11.948 16.9261C12.2297 16.9261 12.4866 16.8864 12.7186 16.8068C12.9506 16.724 13.1511 16.6013 13.3201 16.4389C13.4892 16.2765 13.6184 16.076 13.7079 15.8374L15.1149 16.0909C15.0022 16.5052 14.8 16.8681 14.5083 17.1797C14.22 17.4879 13.8571 17.7282 13.4196 17.9006C12.9854 18.0696 12.4899 18.1541 11.9331 18.1541ZM16.978 18V7.81818H18.4645V11.6016H18.554C18.6402 11.4425 18.7644 11.2585 18.9268 11.0497C19.0893 10.8409 19.3146 10.6586 19.603 10.5028C19.8913 10.3438 20.2725 10.2642 20.7464 10.2642C21.3629 10.2642 21.9131 10.42 22.397 10.7315C22.8809 11.0431 23.2604 11.4922 23.5355 12.0788C23.8139 12.6655 23.9531 13.3714 23.9531 14.1967C23.9531 15.022 23.8156 15.7296 23.5405 16.3196C23.2654 16.9062 22.8875 17.3587 22.407 17.6768C21.9264 17.9917 21.3778 18.1491 20.7614 18.1491C20.2973 18.1491 19.9179 18.0713 19.6229 17.9155C19.3312 17.7597 19.1025 17.5774 18.9368 17.3686C18.7711 17.1598 18.6435 16.9742 18.554 16.8118H18.4297V18H16.978ZM18.4347 14.1818C18.4347 14.7187 18.5125 15.1894 18.6683 15.5938C18.8241 15.9981 19.0495 16.3146 19.3445 16.5433C19.6394 16.7687 20.0007 16.8814 20.4283 16.8814C20.8724 16.8814 21.2436 16.7637 21.5419 16.5284C21.8402 16.2898 22.0656 15.9666 22.218 15.5589C22.3738 15.1513 22.4517 14.6922 22.4517 14.1818C22.4517 13.678 22.3755 13.2256 22.223 12.8246C22.0739 12.4235 21.8485 12.107 21.5469 11.875C21.2486 11.643 20.8757 11.527 20.4283 11.527C19.9974 11.527 19.6328 11.638 19.3345 11.8601C19.0395 12.0821 18.8158 12.392 18.6634 12.7898C18.5109 13.1875 18.4347 13.6515 18.4347 14.1818ZM25.6223 18V10.3636H27.0591V11.5767H27.1387C27.2779 11.1657 27.5231 10.8426 27.8745 10.6072C28.2291 10.3686 28.6301 10.2493 29.0776 10.2493C29.1704 10.2493 29.2798 10.2526 29.4057 10.2592C29.535 10.2659 29.6361 10.2741 29.709 10.2841V11.706C29.6493 11.6894 29.5433 11.6712 29.3908 11.6513C29.2383 11.6281 29.0859 11.6165 28.9334 11.6165C28.5821 11.6165 28.2689 11.6911 27.9938 11.8402C27.722 11.986 27.5066 12.1899 27.3475 12.4517C27.1884 12.7102 27.1088 13.0052 27.1088 13.3366V18H25.6223ZM35.8327 14.8331V10.3636H37.3242V18H35.8626V16.6776H35.783C35.6074 17.0852 35.3256 17.425 34.9379 17.6967C34.5534 17.9652 34.0745 18.0994 33.5011 18.0994C33.0105 18.0994 32.5763 17.9917 32.1985 17.7763C31.824 17.5575 31.529 17.2344 31.3136 16.8068C31.1014 16.3793 30.9954 15.8506 30.9954 15.2209V10.3636H32.4819V15.0419C32.4819 15.5623 32.6261 15.9766 32.9144 16.2848C33.2028 16.593 33.5773 16.7472 34.038 16.7472C34.3164 16.7472 34.5932 16.6776 34.8683 16.5384C35.1467 16.3991 35.377 16.1887 35.5593 15.907C35.7449 15.6252 35.8361 15.2673 35.8327 14.8331ZM41.5439 18.169C41.06 18.169 40.6225 18.0795 40.2314 17.9006C39.8403 17.7183 39.5304 17.4548 39.3017 17.1101C39.0763 16.7654 38.9636 16.3428 38.9636 15.8423C38.9636 15.4115 39.0465 15.0568 39.2122 14.7784C39.3779 14.5 39.6016 14.2796 39.8833 14.1172C40.1651 13.9548 40.4799 13.8321 40.8279 13.7493C41.176 13.6664 41.5306 13.6035 41.8919 13.5604C42.3493 13.5073 42.7205 13.4643 43.0055 13.4311C43.2905 13.3946 43.4977 13.3366 43.627 13.2571C43.7562 13.1776 43.8208 13.0483 43.8208 12.8693V12.8345C43.8208 12.4003 43.6982 12.0639 43.4529 11.8253C43.211 11.5866 42.8497 11.4673 42.3691 11.4673C41.8687 11.4673 41.4743 11.5784 41.1859 11.8004C40.9009 12.0192 40.7037 12.2628 40.5943 12.5312L39.1973 12.2131C39.363 11.7491 39.6049 11.3745 39.9231 11.0895C40.2446 10.8011 40.6142 10.5923 41.0318 10.4631C41.4494 10.3305 41.8886 10.2642 42.3493 10.2642C42.6542 10.2642 42.9773 10.3007 43.3187 10.3736C43.6634 10.4432 43.9849 10.5724 44.2832 10.7614C44.5848 10.9503 44.8317 11.2204 45.024 11.5717C45.2162 11.9197 45.3123 12.3722 45.3123 12.929V18H43.8606V16.956H43.801C43.7048 17.1482 43.5607 17.3371 43.3684 17.5227C43.1762 17.7083 42.9293 17.8625 42.6277 17.9851C42.3261 18.1077 41.9648 18.169 41.5439 18.169ZM41.867 16.9759C42.278 16.9759 42.6293 16.8946 42.921 16.7322C43.216 16.5698 43.4397 16.3577 43.5922 16.0959C43.7479 15.8307 43.8258 15.5473 43.8258 15.2457V14.2614C43.7728 14.3144 43.67 14.3641 43.5176 14.4105C43.3684 14.4536 43.1977 14.4917 43.0055 14.5249C42.8133 14.5547 42.626 14.5829 42.4437 14.6094C42.2614 14.6326 42.109 14.6525 41.9863 14.669C41.698 14.7055 41.4345 14.7668 41.1958 14.853C40.9605 14.9392 40.7716 15.0634 40.6291 15.2259C40.4899 15.3849 40.4203 15.5971 40.4203 15.8622C40.4203 16.2301 40.5562 16.5085 40.8279 16.6974C41.0997 16.883 41.4461 16.9759 41.867 16.9759ZM47.2923 18V10.3636H48.729V11.5767H48.8086C48.9478 11.1657 49.1931 10.8426 49.5444 10.6072C49.899 10.3686 50.3001 10.2493 50.7475 10.2493C50.8403 10.2493 50.9497 10.2526 51.0756 10.2592C51.2049 10.2659 51.306 10.2741 51.3789 10.2841V11.706C51.3192 11.6894 51.2132 11.6712 51.0607 11.6513C50.9083 11.6281 50.7558 11.6165 50.6033 11.6165C50.252 11.6165 49.9388 11.6911 49.6637 11.8402C49.3919 11.986 49.1765 12.1899 49.0174 12.4517C48.8583 12.7102 48.7788 13.0052 48.7788 13.3366V18H47.2923ZM53.8374 20.8636C53.6153 20.8636 53.4131 20.8454 53.2308 20.8089C53.0485 20.7758 52.9126 20.7393 52.8232 20.6996L53.1811 19.4815C53.4529 19.5545 53.6948 19.5859 53.907 19.576C54.1191 19.5661 54.3063 19.4865 54.4688 19.3374C54.6345 19.1882 54.7803 18.9446 54.9062 18.6065L55.0902 18.0994L52.2962 10.3636H53.8871L55.821 16.2898H55.9006L57.8345 10.3636H59.4304L56.2834 19.0192C56.1375 19.4169 55.9519 19.7533 55.7266 20.0284C55.5012 20.3068 55.2327 20.5156 54.9212 20.6548C54.6096 20.794 54.2483 20.8636 53.8374 20.8636ZM62.2828 16.608L62.2083 17.1499C62.1586 17.5476 62.074 17.9619 61.9547 18.3928C61.8387 18.8269 61.7177 19.2296 61.5918 19.6009C61.4692 19.9721 61.3681 20.267 61.2885 20.4858H60.2346C60.2776 20.2803 60.3373 20.0019 60.4135 19.6506C60.4898 19.3026 60.5643 18.9131 60.6373 18.4822C60.7102 18.0514 60.7649 17.6122 60.8013 17.1648L60.851 16.608H62.2828ZM67.9032 18V16.8864L71.3485 13.3168C71.7164 12.929 72.0197 12.5893 72.2583 12.2976C72.5003 12.0026 72.6809 11.7225 72.8002 11.4574C72.9196 11.1922 72.9792 10.9105 72.9792 10.6122C72.9792 10.2741 72.8997 9.98248 72.7406 9.73722C72.5815 9.48864 72.3644 9.29806 72.0893 9.16548C71.8142 9.02959 71.5043 8.96165 71.1596 8.96165C70.795 8.96165 70.4769 9.03622 70.2051 9.18537C69.9333 9.33452 69.7245 9.54498 69.5787 9.81676C69.4328 10.0885 69.3599 10.4067 69.3599 10.7713H67.8933C67.8933 10.1515 68.0358 9.60961 68.3208 9.1456C68.6059 8.68158 68.997 8.32197 69.4941 8.06676C69.9913 7.80824 70.5564 7.67898 71.1895 7.67898C71.8291 7.67898 72.3926 7.80658 72.8798 8.06179C73.3703 8.31368 73.7531 8.65838 74.0282 9.09588C74.3033 9.53007 74.4409 10.0206 74.4409 10.5675C74.4409 10.9453 74.3696 11.3149 74.2271 11.6761C74.0879 12.0374 73.8443 12.4401 73.4963 12.8842C73.1483 13.325 72.6644 13.8603 72.0446 14.4901L70.0211 16.608V16.6825H74.6049V18H67.9032ZM80.0339 18.169C79.2484 18.1657 78.5772 17.9586 78.0204 17.5476C77.4636 17.1366 77.0377 16.5384 76.7427 15.7528C76.4477 14.9673 76.3002 14.0211 76.3002 12.9141C76.3002 11.8104 76.4477 10.8674 76.7427 10.0852C77.041 9.30303 77.4686 8.70644 78.0254 8.29545C78.5855 7.88447 79.255 7.67898 80.0339 7.67898C80.8128 7.67898 81.4806 7.88613 82.0375 8.30043C82.5943 8.71141 83.0202 9.308 83.3152 10.0902C83.6135 10.8691 83.7626 11.8104 83.7626 12.9141C83.7626 14.0244 83.6151 14.9723 83.3201 15.7578C83.0252 16.54 82.5993 17.1383 82.0424 17.5526C81.4856 17.9635 80.8161 18.169 80.0339 18.169ZM80.0339 16.8416C80.7233 16.8416 81.2619 16.5052 81.6497 15.8324C82.0408 15.1596 82.2363 14.1868 82.2363 12.9141C82.2363 12.0689 82.1468 11.3546 81.9679 10.7713C81.7922 10.1847 81.5386 9.74053 81.2072 9.43892C80.8791 9.134 80.488 8.98153 80.0339 8.98153C79.3478 8.98153 78.8092 9.3196 78.4181 9.99574C78.027 10.6719 77.8298 11.6446 77.8265 12.9141C77.8265 13.7625 77.9144 14.4801 78.09 15.0668C78.269 15.6501 78.5225 16.0926 78.8507 16.3942C79.1788 16.6925 79.5732 16.8416 80.0339 16.8416ZM85.5263 18V16.8864L88.9716 13.3168C89.3395 12.929 89.6428 12.5893 89.8814 12.2976C90.1233 12.0026 90.304 11.7225 90.4233 11.4574C90.5426 11.1922 90.6023 10.9105 90.6023 10.6122C90.6023 10.2741 90.5227 9.98248 90.3636 9.73722C90.2045 9.48864 89.9875 9.29806 89.7124 9.16548C89.4373 9.02959 89.1274 8.96165 88.7827 8.96165C88.4181 8.96165 88.0999 9.03622 87.8281 9.18537C87.5563 9.33452 87.3475 9.54498 87.2017 9.81676C87.0559 10.0885 86.983 10.4067 86.983 10.7713H85.5163C85.5163 10.1515 85.6589 9.60961 85.9439 9.1456C86.2289 8.68158 86.62 8.32197 87.1172 8.06676C87.6143 7.80824 88.1795 7.67898 88.8125 7.67898C89.4522 7.67898 90.0156 7.80658 90.5028 8.06179C90.9934 8.31368 91.3762 8.65838 91.6513 9.09588C91.9264 9.53007 92.0639 10.0206 92.0639 10.5675C92.0639 10.9453 91.9927 11.3149 91.8501 11.6761C91.7109 12.0374 91.4673 12.4401 91.1193 12.8842C90.7713 13.325 90.2874 13.8603 89.6676 14.4901L87.6442 16.608V16.6825H92.228V18H85.5263ZM94.1122 18V16.8864L97.5575 13.3168C97.9254 12.929 98.2287 12.5893 98.4673 12.2976C98.7093 12.0026 98.8899 11.7225 99.0092 11.4574C99.1286 11.1922 99.1882 10.9105 99.1882 10.6122C99.1882 10.2741 99.1087 9.98248 98.9496 9.73722C98.7905 9.48864 98.5734 9.29806 98.2983 9.16548C98.0232 9.02959 97.7133 8.96165 97.3686 8.96165C97.004 8.96165 96.6858 9.03622 96.4141 9.18537C96.1423 9.33452 95.9335 9.54498 95.7876 9.81676C95.6418 10.0885 95.5689 10.4067 95.5689 10.7713H94.1023C94.1023 10.1515 94.2448 9.60961 94.5298 9.1456C94.8149 8.68158 95.206 8.32197 95.7031 8.06676C96.2003 7.80824 96.7654 7.67898 97.3984 7.67898C98.0381 7.67898 98.6016 7.80658 99.0888 8.06179C99.5793 8.31368 99.9621 8.65838 100.237 9.09588C100.512 9.53007 100.65 10.0206 100.65 10.5675C100.65 10.9453 100.579 11.3149 100.436 11.6761C100.297 12.0374 100.053 12.4401 99.7053 12.8842C99.3572 13.325 98.8733 13.8603 98.2536 14.4901L96.2301 16.608V16.6825H100.814V18H94.1122Z" fill="#3F3F46"/>
<path d="M18.167 54.4929C18.114 54.0223 17.8952 53.6577 17.5107 53.3991C17.1263 53.1373 16.6424 53.0064 16.059 53.0064C15.6414 53.0064 15.2802 53.0727 14.9752 53.2053C14.6703 53.3345 14.4333 53.5135 14.2643 53.7422C14.0986 53.9676 14.0157 54.2244 14.0157 54.5128C14.0157 54.7547 14.0721 54.9635 14.1847 55.1392C14.3008 55.3149 14.4516 55.4624 14.6372 55.5817C14.8261 55.6977 15.0283 55.7955 15.2437 55.875C15.4591 55.9512 15.6663 56.0142 15.8651 56.0639L16.8595 56.3224C17.1843 56.402 17.5174 56.5097 17.8588 56.6456C18.2001 56.7815 18.5167 56.9605 18.8083 57.1825C19.1 57.4046 19.3353 57.6797 19.5143 58.0078C19.6966 58.3359 19.7877 58.7287 19.7877 59.1861C19.7877 59.7628 19.6386 60.2749 19.3403 60.7223C19.0453 61.1697 18.6161 61.5227 18.0526 61.7812C17.4925 62.0398 16.8147 62.169 16.0193 62.169C15.257 62.169 14.5974 62.0481 14.0406 61.8061C13.4838 61.5642 13.0479 61.2211 12.733 60.777C12.4182 60.3295 12.2442 59.7992 12.211 59.1861H13.7522C13.782 59.554 13.9014 59.8606 14.1102 60.1058C14.3223 60.3478 14.5924 60.5284 14.9205 60.6477C15.252 60.7637 15.6149 60.8217 16.0093 60.8217C16.4435 60.8217 16.8296 60.7538 17.1677 60.6179C17.5091 60.4787 17.7776 60.2865 17.9731 60.0412C18.1686 59.7926 18.2664 59.5026 18.2664 59.1712C18.2664 58.8696 18.1802 58.6226 18.0079 58.4304C17.8389 58.2382 17.6085 58.0791 17.3169 57.9531C17.0285 57.8272 16.702 57.7161 16.3374 57.62L15.1343 57.2919C14.319 57.0698 13.6727 56.7434 13.1954 56.3125C12.7214 55.8816 12.4845 55.3116 12.4845 54.6023C12.4845 54.0156 12.6436 53.5036 12.9617 53.0661C13.2799 52.6286 13.7108 52.2888 14.2544 52.0469C14.7979 51.8016 15.4111 51.679 16.0938 51.679C16.7832 51.679 17.3914 51.8 17.9184 52.0419C18.4487 52.2839 18.8663 52.617 19.1713 53.0412C19.4762 53.4621 19.6353 53.946 19.6485 54.4929H18.167Z" fill="#3F3F46"/>
<path d="M53.3364 51.8182H55.2007L58.4422 59.733H58.5615L61.803 51.8182H63.6673V62H62.2057V54.6321H62.1112L59.1084 61.9851H57.8953L54.8925 54.6271H54.798V62H53.3364V51.8182Z" fill="#3F3F46"/>
<path d="M96.0569 53.1406V51.8182H103.937V53.1406H100.76V62H99.2288V53.1406H96.0569Z" fill="#3F3F46"/>
<path d="M138.269 62L135.446 51.8182H137.061L139.045 59.7031H139.139L141.203 51.8182H142.804L144.867 59.7081H144.961L146.94 51.8182H148.561L145.732 62H144.186L142.043 54.3736H141.963L139.821 62H138.269Z" fill="#3F3F46"/>
<path d="M180.057 53.1406V51.8182H187.937V53.1406H184.76V62H183.229V53.1406H180.057Z" fill="#3F3F46"/>
<path d="M223.517 62V51.8182H229.831V53.1406H225.053V56.2429H229.379V57.5604H225.053V62H223.517Z" fill="#3F3F46"/>
<path d="M270.167 54.4929C270.114 54.0223 269.895 53.6577 269.511 53.3991C269.126 53.1373 268.642 53.0064 268.059 53.0064C267.641 53.0064 267.28 53.0727 266.975 53.2053C266.67 53.3345 266.433 53.5135 266.264 53.7422C266.099 53.9676 266.016 54.2244 266.016 54.5128C266.016 54.7547 266.072 54.9635 266.185 55.1392C266.301 55.3149 266.452 55.4624 266.637 55.5817C266.826 55.6977 267.028 55.7955 267.244 55.875C267.459 55.9512 267.666 56.0142 267.865 56.0639L268.859 56.3224C269.184 56.402 269.517 56.5097 269.859 56.6456C270.2 56.7815 270.517 56.9605 270.808 57.1825C271.1 57.4046 271.335 57.6797 271.514 58.0078C271.697 58.3359 271.788 58.7287 271.788 59.1861C271.788 59.7628 271.639 60.2749 271.34 60.7223C271.045 61.1697 270.616 61.5227 270.053 61.7812C269.493 62.0398 268.815 62.169 268.019 62.169C267.257 62.169 266.597 62.0481 266.041 61.8061C265.484 61.5642 265.048 61.2211 264.733 60.777C264.418 60.3295 264.244 59.7992 264.211 59.1861H265.752C265.782 59.554 265.901 59.8606 266.11 60.1058C266.322 60.3478 266.592 60.5284 266.921 60.6477C267.252 60.7637 267.615 60.8217 268.009 60.8217C268.444 60.8217 268.83 60.7538 269.168 60.6179C269.509 60.4787 269.778 60.2865 269.973 60.0412C270.169 59.7926 270.266 59.5026 270.266 59.1712C270.266 58.8696 270.18 58.6226 270.008 58.4304C269.839 58.2382 269.609 58.0791 269.317 57.9531C269.028 57.8272 268.702 57.7161 268.337 57.62L267.134 57.2919C266.319 57.0698 265.673 56.7434 265.195 56.3125C264.721 55.8816 264.484 55.3116 264.484 54.6023C264.484 54.0156 264.644 53.5036 264.962 53.0661C265.28 52.6286 265.711 52.2888 266.254 52.0469C266.798 51.8016 267.411 51.679 268.094 51.679C268.783 51.679 269.391 51.8 269.918 52.0419C270.449 52.2839 270.866 52.617 271.171 53.0412C271.476 53.4621 271.635 53.946 271.649 54.4929H270.167Z" fill="#3F3F46"/>
<path d="M12.7038 102.139C12.0211 102.139 11.4112 102.022 10.8743 101.786C10.3407 101.551 9.91809 101.224 9.60653 100.807C9.2983 100.386 9.13258 99.8987 9.10938 99.3452H10.6705C10.6903 99.6468 10.7914 99.9086 10.9737 100.131C11.1593 100.349 11.4013 100.518 11.6996 100.638C11.9979 100.757 12.3293 100.817 12.6939 100.817C13.0949 100.817 13.4496 100.747 13.7578 100.608C14.0694 100.469 14.313 100.275 14.4886 100.026C14.6643 99.7744 14.7521 99.4844 14.7521 99.1562C14.7521 98.8149 14.6643 98.5149 14.4886 98.2564C14.3163 97.9946 14.0627 97.7891 13.728 97.6399C13.3965 97.4908 12.9955 97.4162 12.5249 97.4162H11.6648V96.1634H12.5249C12.9027 96.1634 13.2341 96.0954 13.5192 95.9595C13.8075 95.8236 14.0329 95.6347 14.1953 95.3928C14.3577 95.1475 14.4389 94.8608 14.4389 94.5327C14.4389 94.2178 14.3677 93.9444 14.2251 93.7124C14.0859 93.477 13.8871 93.2931 13.6286 93.1605C13.3733 93.0279 13.0717 92.9616 12.7237 92.9616C12.3923 92.9616 12.0824 93.023 11.794 93.1456C11.509 93.2649 11.277 93.4373 11.098 93.6626C10.919 93.8847 10.8229 94.1515 10.8097 94.4631H9.32315C9.33973 93.9129 9.50213 93.429 9.81037 93.0114C10.1219 92.5937 10.5329 92.2673 11.0433 92.032C11.5537 91.7966 12.1205 91.679 12.7436 91.679C13.3965 91.679 13.96 91.8066 14.4339 92.0618C14.9112 92.3137 15.2791 92.6501 15.5376 93.071C15.7995 93.492 15.9287 93.9527 15.9254 94.4531C15.9287 95.0232 15.7696 95.5071 15.4482 95.9048C15.13 96.3026 14.7057 96.5694 14.1754 96.7053V96.7848C14.8516 96.8875 15.3752 97.156 15.7464 97.5902C16.121 98.0244 16.3066 98.563 16.3033 99.206C16.3066 99.7661 16.1508 100.268 15.8359 100.712C15.5244 101.156 15.0985 101.506 14.5582 101.761C14.018 102.013 13.3999 102.139 12.7038 102.139ZM22.0455 91.8182V102H20.5043V93.3594H20.4446L18.0085 94.9503V93.4787L20.549 91.8182H22.0455Z" fill="#93969F"/>
<path d="M60.0337 91.8182V102H58.4925V93.3594H58.4329L55.9968 94.9503V93.4787L58.5373 91.8182H60.0337Z" fill="#3F3F46"/>
<path d="M97.1864 102V100.886L100.632 97.3168C101 96.929 101.303 96.5893 101.542 96.2976C101.783 96.0026 101.964 95.7225 102.083 95.4574C102.203 95.1922 102.262 94.9105 102.262 94.6122C102.262 94.2741 102.183 93.9825 102.024 93.7372C101.865 93.4886 101.648 93.2981 101.373 93.1655C101.097 93.0296 100.788 92.9616 100.443 92.9616C100.078 92.9616 99.7601 93.0362 99.4883 93.1854C99.2165 93.3345 99.0077 93.545 98.8619 93.8168C98.716 94.0885 98.6431 94.4067 98.6431 94.7713H97.1765C97.1765 94.1515 97.319 93.6096 97.604 93.1456C97.8891 92.6816 98.2802 92.322 98.7773 92.0668C99.2745 91.8082 99.8396 91.679 100.473 91.679C101.112 91.679 101.676 91.8066 102.163 92.0618C102.654 92.3137 103.036 92.6584 103.311 93.0959C103.587 93.5301 103.724 94.0206 103.724 94.5675C103.724 94.9453 103.653 95.3149 103.51 95.6761C103.371 96.0374 103.127 96.4401 102.779 96.8842C102.431 97.325 101.948 97.8603 101.328 98.4901L99.3043 100.608V100.683H103.888V102H97.1864Z" fill="#3F3F46"/>
<path d="M142.012 102.139C141.33 102.139 140.72 102.022 140.183 101.786C139.649 101.551 139.227 101.224 138.915 100.807C138.607 100.386 138.441 99.8987 138.418 99.3452H139.979C139.999 99.6468 140.1 99.9086 140.282 100.131C140.468 100.349 140.71 100.518 141.008 100.638C141.306 100.757 141.638 100.817 142.002 100.817C142.404 100.817 142.758 100.747 143.066 100.608C143.378 100.469 143.622 100.275 143.797 100.026C143.973 99.7744 144.061 99.4844 144.061 99.1562C144.061 98.8149 143.973 98.5149 143.797 98.2564C143.625 97.9946 143.371 97.7891 143.037 97.6399C142.705 97.4908 142.304 97.4162 141.833 97.4162H140.973V96.1634H141.833C142.211 96.1634 142.543 96.0954 142.828 95.9595C143.116 95.8236 143.342 95.6347 143.504 95.3928C143.666 95.1475 143.748 94.8608 143.748 94.5327C143.748 94.2178 143.676 93.9444 143.534 93.7124C143.395 93.477 143.196 93.2931 142.937 93.1605C142.682 93.0279 142.38 92.9616 142.032 92.9616C141.701 92.9616 141.391 93.023 141.103 93.1456C140.818 93.2649 140.586 93.4373 140.407 93.6626C140.228 93.8847 140.132 94.1515 140.118 94.4631H138.632C138.648 93.9129 138.811 93.429 139.119 93.0114C139.431 92.5937 139.842 92.2673 140.352 92.032C140.862 91.7966 141.429 91.679 142.052 91.679C142.705 91.679 143.269 91.8066 143.743 92.0618C144.22 92.3137 144.588 92.6501 144.846 93.071C145.108 93.492 145.237 93.9527 145.234 94.4531C145.237 95.0232 145.078 95.5071 144.757 95.9048C144.439 96.3026 144.014 96.5694 143.484 96.7053V96.7848C144.16 96.8875 144.684 97.156 145.055 97.5902C145.43 98.0244 145.615 98.563 145.612 99.206C145.615 99.7661 145.459 100.268 145.145 100.712C144.833 101.156 144.407 101.506 143.867 101.761C143.327 102.013 142.708 102.139 142.012 102.139Z" fill="#3F3F46"/>
<path d="M180.186 100.011V98.7685L184.585 91.8182H185.565V93.6477H184.943L181.796 98.6293V98.7088H187.827V100.011H180.186ZM185.013 102V99.6335L185.023 99.0668V91.8182H186.48V102H185.013Z" fill="#3F3F46"/>
<path d="M226.499 102.139C225.876 102.139 225.316 102.02 224.819 101.781C224.325 101.539 223.931 101.208 223.636 100.787C223.341 100.366 223.183 99.8854 223.163 99.3452H224.655C224.691 99.7827 224.885 100.142 225.237 100.424C225.588 100.706 226.009 100.847 226.499 100.847C226.89 100.847 227.237 100.757 227.538 100.578C227.843 100.396 228.082 100.146 228.254 99.8274C228.43 99.5092 228.518 99.1463 228.518 98.7386C228.518 98.3243 228.428 97.9548 228.249 97.63C228.07 97.3052 227.823 97.05 227.509 96.8643C227.197 96.6787 226.839 96.5843 226.435 96.581C226.127 96.581 225.817 96.634 225.505 96.7401C225.194 96.8461 224.942 96.9853 224.749 97.1577L223.342 96.9489L223.914 91.8182H229.512V93.1357H225.192L224.869 95.9844H224.928C225.127 95.7921 225.391 95.6314 225.719 95.5021C226.05 95.3729 226.405 95.3082 226.783 95.3082C227.403 95.3082 227.954 95.4557 228.438 95.7507C228.926 96.0457 229.308 96.4484 229.587 96.9588C229.868 97.4659 230.008 98.0492 230.004 98.7088C230.008 99.3684 229.859 99.9567 229.557 100.474C229.259 100.991 228.844 101.398 228.314 101.697C227.787 101.992 227.182 102.139 226.499 102.139Z" fill="#3F3F46"/>
<path d="M268.584 102.139C268.13 102.133 267.682 102.05 267.242 101.891C266.804 101.732 266.406 101.466 266.048 101.095C265.69 100.724 265.404 100.225 265.188 99.5987C264.976 98.9723 264.87 98.1901 264.87 97.2521C264.87 96.3639 264.958 95.575 265.134 94.8857C265.313 94.1963 265.569 93.6146 265.904 93.1406C266.239 92.6634 266.643 92.3004 267.117 92.0518C267.591 91.8033 268.123 91.679 268.713 91.679C269.32 91.679 269.858 91.7983 270.329 92.0369C270.8 92.2756 271.181 92.6054 271.472 93.0263C271.767 93.4472 271.955 93.9261 272.034 94.4631H270.518C270.415 94.0388 270.211 93.6925 269.906 93.424C269.601 93.1555 269.204 93.0213 268.713 93.0213C267.967 93.0213 267.386 93.3461 266.968 93.9957C266.554 94.6454 266.345 95.5485 266.342 96.7053H266.416C266.592 96.4169 266.807 96.1716 267.063 95.9695C267.321 95.764 267.609 95.6065 267.928 95.4972C268.249 95.3845 268.587 95.3281 268.942 95.3281C269.532 95.3281 270.065 95.4723 270.543 95.7607C271.023 96.0457 271.406 96.4401 271.691 96.9439C271.976 97.4477 272.119 98.0244 272.119 98.674C272.119 99.3236 271.971 99.9119 271.676 100.439C271.385 100.966 270.974 101.384 270.443 101.692C269.913 101.997 269.293 102.146 268.584 102.139ZM268.579 100.847C268.97 100.847 269.32 100.75 269.628 100.558C269.936 100.366 270.18 100.107 270.359 99.7827C270.538 99.4579 270.627 99.0949 270.627 98.6939C270.627 98.3028 270.539 97.9465 270.364 97.625C270.191 97.3035 269.953 97.0483 269.648 96.8594C269.346 96.6705 269.002 96.576 268.614 96.576C268.319 96.576 268.045 96.6323 267.793 96.745C267.545 96.8577 267.326 97.0135 267.137 97.2124C266.948 97.4112 266.799 97.6399 266.69 97.8984C266.584 98.1536 266.531 98.4238 266.531 98.7088C266.531 99.09 266.618 99.4429 266.794 99.7678C266.973 100.093 267.217 100.354 267.525 100.553C267.836 100.749 268.188 100.847 268.579 100.847Z" fill="#3F3F46"/>
<path d="M13.7687 142L18.2133 133.21V133.136H13.0727V131.818H19.8042V133.18L15.3746 142H13.7687Z" fill="#3F3F46"/>
<path d="M58.4969 142.139C57.7843 142.139 57.1546 142.017 56.6077 141.771C56.0641 141.526 55.6382 141.188 55.33 140.757C55.0218 140.326 54.8693 139.836 54.8726 139.286C54.8693 138.855 54.9571 138.459 55.1361 138.097C55.3184 137.733 55.5653 137.429 55.8769 137.188C56.1884 136.942 56.5364 136.786 56.9209 136.72V136.661C56.4138 136.538 56.0078 136.266 55.7029 135.845C55.3979 135.424 55.2471 134.94 55.2504 134.393C55.2471 133.873 55.3847 133.409 55.6631 133.001C55.9448 132.59 56.3309 132.267 56.8215 132.032C57.312 131.797 57.8705 131.679 58.4969 131.679C59.1167 131.679 59.6702 131.798 60.1574 132.037C60.6479 132.272 61.0341 132.595 61.3158 133.006C61.5975 133.414 61.74 133.876 61.7433 134.393C61.74 134.94 61.5843 135.424 61.276 135.845C60.9678 136.266 60.5667 136.538 60.0729 136.661V136.72C60.454 136.786 60.7971 136.942 61.102 137.188C61.4102 137.429 61.6555 137.733 61.8378 138.097C62.0234 138.459 62.1179 138.855 62.1212 139.286C62.1179 139.836 61.9621 140.326 61.6539 140.757C61.3456 141.188 60.9181 141.526 60.3712 141.771C59.8276 142.017 59.2029 142.139 58.4969 142.139ZM58.4969 140.881C58.9178 140.881 59.2824 140.812 59.5906 140.673C59.8989 140.53 60.1375 140.333 60.3066 140.081C60.4756 139.826 60.5618 139.527 60.5651 139.186C60.5618 138.831 60.469 138.518 60.2867 138.246C60.1077 137.975 59.8641 137.761 59.5558 137.605C59.2476 137.449 58.8946 137.371 58.4969 137.371C58.0959 137.371 57.7396 137.449 57.428 137.605C57.1164 137.761 56.8712 137.975 56.6922 138.246C56.5132 138.518 56.4254 138.831 56.4287 139.186C56.4254 139.527 56.5066 139.826 56.6723 140.081C56.8414 140.333 57.0816 140.53 57.3932 140.673C57.7048 140.812 58.0727 140.881 58.4969 140.881ZM58.4969 136.143C58.835 136.143 59.1349 136.076 59.3968 135.94C59.6586 135.804 59.8641 135.615 60.0132 135.373C60.1657 135.131 60.2436 134.848 60.2469 134.523C60.2436 134.205 60.1673 133.926 60.0182 133.688C59.8724 133.449 59.6685 133.265 59.4067 133.136C59.1449 133.003 58.8416 132.937 58.4969 132.937C58.1456 132.937 57.8373 133.003 57.5722 133.136C57.3103 133.265 57.1065 133.449 56.9607 133.688C56.8148 133.926 56.7436 134.205 56.7469 134.523C56.7436 134.848 56.8165 135.131 56.9656 135.373C57.1148 135.615 57.3203 135.804 57.5821 135.94C57.8473 136.076 58.1522 136.143 58.4969 136.143Z" fill="#3F3F46"/>
<path d="M100.415 131.679C100.869 131.682 101.316 131.765 101.757 131.928C102.198 132.09 102.596 132.355 102.95 132.723C103.308 133.091 103.593 133.588 103.805 134.214C104.021 134.838 104.13 135.613 104.134 136.541C104.134 137.433 104.044 138.227 103.865 138.923C103.686 139.615 103.429 140.2 103.095 140.678C102.763 141.155 102.36 141.518 101.886 141.766C101.412 142.015 100.879 142.139 100.286 142.139C99.6791 142.139 99.1405 142.02 98.6698 141.781C98.1992 141.543 97.8164 141.213 97.5214 140.792C97.2264 140.368 97.0425 139.88 96.9695 139.33H98.4859C98.5853 139.768 98.7875 140.122 99.0924 140.394C99.4007 140.663 99.7984 140.797 100.286 140.797C101.031 140.797 101.613 140.472 102.031 139.822C102.448 139.17 102.659 138.258 102.662 137.088H102.582C102.41 137.373 102.195 137.618 101.936 137.824C101.681 138.029 101.394 138.188 101.076 138.301C100.758 138.414 100.418 138.47 100.057 138.47C99.4703 138.47 98.9366 138.326 98.4561 138.038C97.9755 137.749 97.5927 137.353 97.3076 136.849C97.0226 136.346 96.8801 135.771 96.8801 135.124C96.8801 134.481 97.0259 133.898 97.3176 133.374C97.6125 132.851 98.0235 132.436 98.5505 132.131C99.0808 131.823 99.7023 131.672 100.415 131.679ZM100.42 132.972C100.032 132.972 99.6824 133.068 99.3708 133.26C99.0626 133.449 98.819 133.706 98.64 134.031C98.461 134.352 98.3715 134.71 98.3715 135.104C98.3715 135.499 98.4577 135.857 98.6301 136.178C98.8057 136.496 99.0444 136.75 99.346 136.939C99.6509 137.125 99.9989 137.217 100.39 137.217C100.682 137.217 100.953 137.161 101.205 137.048C101.457 136.936 101.678 136.78 101.867 136.581C102.055 136.379 102.203 136.15 102.309 135.895C102.415 135.64 102.468 135.371 102.468 135.089C102.468 134.715 102.379 134.367 102.2 134.045C102.024 133.724 101.782 133.465 101.474 133.27C101.166 133.071 100.814 132.972 100.42 132.972Z" fill="#3F3F46"/>
<path d="M139.015 131.818V142H137.474V133.359H137.414L134.978 134.95V133.479L137.519 131.818H139.015ZM145.314 142.169C144.529 142.166 143.858 141.959 143.301 141.548C142.744 141.137 142.318 140.538 142.023 139.753C141.728 138.967 141.581 138.021 141.581 136.914C141.581 135.81 141.728 134.867 142.023 134.085C142.321 133.303 142.749 132.706 143.306 132.295C143.866 131.884 144.535 131.679 145.314 131.679C146.093 131.679 146.761 131.886 147.318 132.3C147.875 132.711 148.3 133.308 148.595 134.09C148.894 134.869 149.043 135.81 149.043 136.914C149.043 138.024 148.895 138.972 148.6 139.758C148.305 140.54 147.88 141.138 147.323 141.553C146.766 141.964 146.096 142.169 145.314 142.169ZM145.314 140.842C146.004 140.842 146.542 140.505 146.93 139.832C147.321 139.16 147.517 138.187 147.517 136.914C147.517 136.069 147.427 135.355 147.248 134.771C147.072 134.185 146.819 133.741 146.487 133.439C146.159 133.134 145.768 132.982 145.314 132.982C144.628 132.982 144.09 133.32 143.698 133.996C143.307 134.672 143.11 135.645 143.107 136.914C143.107 137.763 143.195 138.48 143.37 139.067C143.549 139.65 143.803 140.093 144.131 140.394C144.459 140.692 144.853 140.842 145.314 140.842Z" fill="#3F3F46"/>
<path d="M182.225 131.818V142H180.684V133.359H180.624L178.188 134.95V133.479L180.729 131.818H182.225ZM188.842 131.818V142H187.301V133.359H187.241L184.805 134.95V133.479L187.346 131.818H188.842Z" fill="#3F3F46"/>
<path d="M223.241 131.818V142H221.7V133.359H221.64L219.204 134.95V133.479L221.744 131.818H223.241ZM225.995 142V140.886L229.44 137.317C229.808 136.929 230.112 136.589 230.35 136.298C230.592 136.003 230.773 135.723 230.892 135.457C231.011 135.192 231.071 134.911 231.071 134.612C231.071 134.274 230.991 133.982 230.832 133.737C230.673 133.489 230.456 133.298 230.181 133.165C229.906 133.03 229.596 132.962 229.251 132.962C228.887 132.962 228.569 133.036 228.297 133.185C228.025 133.335 227.816 133.545 227.67 133.817C227.525 134.089 227.452 134.407 227.452 134.771H225.985C225.985 134.152 226.128 133.61 226.413 133.146C226.698 132.682 227.089 132.322 227.586 132.067C228.083 131.808 228.648 131.679 229.281 131.679C229.921 131.679 230.484 131.807 230.972 132.062C231.462 132.314 231.845 132.658 232.12 133.096C232.395 133.53 232.533 134.021 232.533 134.567C232.533 134.945 232.461 135.315 232.319 135.676C232.18 136.037 231.936 136.44 231.588 136.884C231.24 137.325 230.756 137.86 230.136 138.49L228.113 140.608V140.683H232.697V142H225.995Z" fill="#3F3F46"/>
<path d="M265.022 131.818V142H263.481V133.359H263.421L260.985 134.95V133.479L263.526 131.818H265.022ZM271.321 142.139C270.638 142.139 270.028 142.022 269.491 141.786C268.958 141.551 268.535 141.224 268.224 140.807C267.915 140.386 267.75 139.899 267.727 139.345H269.288C269.308 139.647 269.409 139.909 269.591 140.131C269.777 140.349 270.018 140.518 270.317 140.638C270.615 140.757 270.946 140.817 271.311 140.817C271.712 140.817 272.067 140.747 272.375 140.608C272.687 140.469 272.93 140.275 273.106 140.026C273.281 139.774 273.369 139.484 273.369 139.156C273.369 138.815 273.281 138.515 273.106 138.256C272.933 137.995 272.68 137.789 272.345 137.64C272.014 137.491 271.613 137.416 271.142 137.416H270.282V136.163H271.142C271.52 136.163 271.851 136.095 272.136 135.96C272.425 135.824 272.65 135.635 272.812 135.393C272.975 135.147 273.056 134.861 273.056 134.533C273.056 134.218 272.985 133.944 272.842 133.712C272.703 133.477 272.504 133.293 272.246 133.161C271.991 133.028 271.689 132.962 271.341 132.962C271.009 132.962 270.7 133.023 270.411 133.146C270.126 133.265 269.894 133.437 269.715 133.663C269.536 133.885 269.44 134.152 269.427 134.463H267.94C267.957 133.913 268.119 133.429 268.428 133.011C268.739 132.594 269.15 132.267 269.661 132.032C270.171 131.797 270.738 131.679 271.361 131.679C272.014 131.679 272.577 131.807 273.051 132.062C273.528 132.314 273.896 132.65 274.155 133.071C274.417 133.492 274.546 133.953 274.543 134.453C274.546 135.023 274.387 135.507 274.065 135.905C273.747 136.303 273.323 136.569 272.793 136.705V136.785C273.469 136.888 273.992 137.156 274.364 137.59C274.738 138.024 274.924 138.563 274.92 139.206C274.924 139.766 274.768 140.268 274.453 140.712C274.142 141.156 273.716 141.506 273.175 141.761C272.635 142.013 272.017 142.139 271.321 142.139Z" fill="#3F3F46"/>
<circle r="16" transform="matrix(-1 0 0 1 184 176)" fill="#00CCCC"/>
<path d="M12.9537 171.818V182H11.4125V173.359H11.3528L8.91673 174.95V173.479L11.4572 171.818H12.9537ZM15.4941 180.011V178.768L19.894 171.818H20.8734V173.648H20.252L17.1049 178.629V178.709H23.1355V180.011H15.4941ZM20.3216 182V179.634L20.3315 179.067V171.818H21.7882V182H20.3216Z" fill="#3F3F46"/>
<path d="M55.1929 171.818V182H53.6517V173.359H53.5921L51.156 174.95V173.479L53.6965 171.818H55.1929ZM61.308 182.139C60.6849 182.139 60.1247 182.02 59.6276 181.781C59.1337 181.539 58.7393 181.208 58.4443 180.787C58.1494 180.366 57.9919 179.885 57.972 179.345H59.4635C59.5 179.783 59.6939 180.142 60.0452 180.424C60.3965 180.706 60.8174 180.847 61.308 180.847C61.6991 180.847 62.0454 180.757 62.347 180.578C62.652 180.396 62.8906 180.146 63.0629 179.827C63.2386 179.509 63.3264 179.146 63.3264 178.739C63.3264 178.324 63.2369 177.955 63.058 177.63C62.879 177.305 62.6321 177.05 62.3172 176.864C62.0057 176.679 61.6477 176.584 61.2433 176.581C60.9351 176.581 60.6252 176.634 60.3137 176.74C60.0021 176.846 59.7502 176.985 59.558 177.158L58.151 176.949L58.7227 171.818H64.3208V173.136H60.0004L59.6773 175.984H59.7369C59.9358 175.792 60.1993 175.631 60.5274 175.502C60.8589 175.373 61.2135 175.308 61.5914 175.308C62.2111 175.308 62.763 175.456 63.2469 175.751C63.7341 176.046 64.1169 176.448 64.3953 176.959C64.6771 177.466 64.8163 178.049 64.8129 178.709C64.8163 179.368 64.6671 179.957 64.3655 180.474C64.0672 180.991 63.6529 181.398 63.1226 181.697C62.5956 181.992 61.9907 182.139 61.308 182.139Z" fill="#3F3F46"/>
<path d="M97.0835 171.818V182H95.5423V173.359H95.4827L93.0466 174.95V173.479L95.5871 171.818H97.0835ZM103.392 182.139C102.938 182.133 102.491 182.05 102.05 181.891C101.613 181.732 101.215 181.466 100.857 181.095C100.499 180.724 100.212 180.225 99.9969 179.599C99.7848 178.972 99.6787 178.19 99.6787 177.252C99.6787 176.364 99.7665 175.575 99.9422 174.886C100.121 174.196 100.378 173.615 100.713 173.141C101.048 172.663 101.452 172.3 101.926 172.052C102.4 171.803 102.932 171.679 103.522 171.679C104.128 171.679 104.667 171.798 105.138 172.037C105.608 172.276 105.989 172.605 106.281 173.026C106.576 173.447 106.763 173.926 106.843 174.463H105.326C105.224 174.039 105.02 173.692 104.715 173.424C104.41 173.156 104.012 173.021 103.522 173.021C102.776 173.021 102.194 173.346 101.777 173.996C101.362 174.645 101.154 175.549 101.15 176.705H101.225C101.401 176.417 101.616 176.172 101.871 175.969C102.13 175.764 102.418 175.607 102.736 175.497C103.058 175.384 103.396 175.328 103.75 175.328C104.34 175.328 104.874 175.472 105.351 175.761C105.832 176.046 106.215 176.44 106.5 176.944C106.785 177.448 106.927 178.024 106.927 178.674C106.927 179.324 106.78 179.912 106.485 180.439C106.193 180.966 105.782 181.384 105.252 181.692C104.722 181.997 104.102 182.146 103.392 182.139ZM103.388 180.847C103.779 180.847 104.128 180.75 104.437 180.558C104.745 180.366 104.988 180.107 105.167 179.783C105.346 179.458 105.436 179.095 105.436 178.694C105.436 178.303 105.348 177.946 105.172 177.625C105 177.304 104.761 177.048 104.456 176.859C104.155 176.67 103.81 176.576 103.422 176.576C103.127 176.576 102.854 176.632 102.602 176.745C102.353 176.858 102.135 177.013 101.946 177.212C101.757 177.411 101.608 177.64 101.498 177.898C101.392 178.154 101.339 178.424 101.339 178.709C101.339 179.09 101.427 179.443 101.603 179.768C101.782 180.093 102.025 180.354 102.334 180.553C102.645 180.749 102.996 180.847 103.388 180.847Z" fill="#3F3F46"/>
<path d="M139.98 171.818V182H138.439V173.359H138.379L135.943 174.95V173.479L138.484 171.818H139.98ZM143.077 182L147.522 173.21V173.136H142.381V171.818H149.113V173.18L144.683 182H143.077Z" fill="#3F3F46"/>
<path d="M181.111 171.818V182H179.57V173.359H179.51L177.074 174.95V173.479L179.614 171.818H181.111ZM187.305 182.139C186.593 182.139 185.963 182.017 185.416 181.771C184.873 181.526 184.447 181.188 184.139 180.757C183.83 180.326 183.678 179.836 183.681 179.286C183.678 178.855 183.766 178.459 183.945 178.097C184.127 177.733 184.374 177.429 184.685 177.188C184.997 176.942 185.345 176.786 185.729 176.72V176.661C185.222 176.538 184.816 176.266 184.511 175.845C184.207 175.424 184.056 174.94 184.059 174.393C184.056 173.873 184.193 173.409 184.472 173.001C184.753 172.59 185.14 172.267 185.63 172.032C186.121 171.797 186.679 171.679 187.305 171.679C187.925 171.679 188.479 171.798 188.966 172.037C189.457 172.272 189.843 172.595 190.124 173.006C190.406 173.414 190.549 173.876 190.552 174.393C190.549 174.94 190.393 175.424 190.085 175.845C189.776 176.266 189.375 176.538 188.881 176.661V176.72C189.263 176.786 189.606 176.942 189.911 177.188C190.219 177.429 190.464 177.733 190.646 178.097C190.832 178.459 190.926 178.855 190.93 179.286C190.926 179.836 190.771 180.326 190.462 180.757C190.154 181.188 189.727 181.526 189.18 181.771C188.636 182.017 188.011 182.139 187.305 182.139ZM187.305 180.881C187.726 180.881 188.091 180.812 188.399 180.673C188.707 180.53 188.946 180.333 189.115 180.081C189.284 179.826 189.37 179.527 189.374 179.186C189.37 178.831 189.278 178.518 189.095 178.246C188.916 177.975 188.673 177.761 188.364 177.605C188.056 177.449 187.703 177.371 187.305 177.371C186.904 177.371 186.548 177.449 186.237 177.605C185.925 177.761 185.68 177.975 185.501 178.246C185.322 178.518 185.234 178.831 185.237 179.186C185.234 179.527 185.315 179.826 185.481 180.081C185.65 180.333 185.89 180.53 186.202 180.673C186.513 180.812 186.881 180.881 187.305 180.881ZM187.305 176.143C187.644 176.143 187.944 176.076 188.205 175.94C188.467 175.804 188.673 175.615 188.822 175.373C188.974 175.131 189.052 174.848 189.055 174.523C189.052 174.205 188.976 173.926 188.827 173.688C188.681 173.449 188.477 173.265 188.215 173.136C187.953 173.003 187.65 172.937 187.305 172.937C186.954 172.937 186.646 173.003 186.381 173.136C186.119 173.265 185.915 173.449 185.769 173.688C185.623 173.926 185.552 174.205 185.555 174.523C185.552 174.848 185.625 175.131 185.774 175.373C185.923 175.615 186.129 175.804 186.391 175.94C186.656 176.076 186.961 176.143 187.305 176.143Z" fill="#3F3F46"/>
<path d="M223.084 171.818V182H221.542V173.359H221.483L219.047 174.95V173.479L221.587 171.818H223.084ZM229.223 171.679C229.678 171.682 230.125 171.765 230.566 171.928C231.007 172.09 231.404 172.355 231.759 172.723C232.117 173.091 232.402 173.588 232.614 174.214C232.83 174.838 232.939 175.613 232.942 176.541C232.942 177.433 232.853 178.227 232.674 178.923C232.495 179.615 232.238 180.2 231.903 180.678C231.572 181.155 231.169 181.518 230.695 181.766C230.221 182.015 229.687 182.139 229.094 182.139C228.488 182.139 227.949 182.02 227.478 181.781C227.008 181.543 226.625 181.213 226.33 180.792C226.035 180.368 225.851 179.88 225.778 179.33H227.294C227.394 179.768 227.596 180.122 227.901 180.394C228.209 180.663 228.607 180.797 229.094 180.797C229.84 180.797 230.422 180.472 230.839 179.822C231.257 179.17 231.467 178.258 231.471 177.088H231.391C231.219 177.373 231.003 177.618 230.745 177.824C230.49 178.029 230.203 178.188 229.885 178.301C229.566 178.414 229.227 178.47 228.866 178.47C228.279 178.47 227.745 178.326 227.265 178.038C226.784 177.749 226.401 177.353 226.116 176.849C225.831 176.346 225.689 175.771 225.689 175.124C225.689 174.481 225.834 173.898 226.126 173.374C226.421 172.851 226.832 172.436 227.359 172.131C227.889 171.823 228.511 171.672 229.223 171.679ZM229.228 172.972C228.841 172.972 228.491 173.068 228.179 173.26C227.871 173.449 227.628 173.706 227.449 174.031C227.27 174.352 227.18 174.71 227.18 175.104C227.18 175.499 227.266 175.857 227.439 176.178C227.614 176.496 227.853 176.75 228.155 176.939C228.459 177.125 228.807 177.217 229.199 177.217C229.49 177.217 229.762 177.161 230.014 177.048C230.266 176.936 230.486 176.78 230.675 176.581C230.864 176.379 231.012 176.15 231.118 175.895C231.224 175.64 231.277 175.371 231.277 175.089C231.277 174.715 231.187 174.367 231.008 174.045C230.833 173.724 230.591 173.465 230.282 173.27C229.974 173.071 229.623 172.972 229.228 172.972Z" fill="#3F3F46"/>
<path d="M260.168 182V180.886L263.613 177.317C263.981 176.929 264.284 176.589 264.523 176.298C264.765 176.003 264.946 175.723 265.065 175.457C265.184 175.192 265.244 174.911 265.244 174.612C265.244 174.274 265.164 173.982 265.005 173.737C264.846 173.489 264.629 173.298 264.354 173.165C264.079 173.03 263.769 172.962 263.424 172.962C263.06 172.962 262.742 173.036 262.47 173.185C262.198 173.335 261.989 173.545 261.843 173.817C261.697 174.089 261.625 174.407 261.625 174.771H260.158C260.158 174.152 260.3 173.61 260.585 173.146C260.871 172.682 261.262 172.322 261.759 172.067C262.256 171.808 262.821 171.679 263.454 171.679C264.094 171.679 264.657 171.807 265.144 172.062C265.635 172.314 266.018 172.658 266.293 173.096C266.568 173.53 266.706 174.021 266.706 174.567C266.706 174.945 266.634 175.315 266.492 175.676C266.353 176.037 266.109 176.44 265.761 176.884C265.413 177.325 264.929 177.86 264.309 178.49L262.286 180.608V180.683H266.87V182H260.168ZM272.299 182.169C271.513 182.166 270.842 181.959 270.285 181.548C269.728 181.137 269.302 180.538 269.007 179.753C268.712 178.967 268.565 178.021 268.565 176.914C268.565 175.81 268.712 174.867 269.007 174.085C269.306 173.303 269.733 172.706 270.29 172.295C270.85 171.884 271.52 171.679 272.299 171.679C273.077 171.679 273.745 171.886 274.302 172.3C274.859 172.711 275.285 173.308 275.58 174.09C275.878 174.869 276.027 175.81 276.027 176.914C276.027 178.024 275.88 178.972 275.585 179.758C275.29 180.54 274.864 181.138 274.307 181.553C273.75 181.964 273.081 182.169 272.299 182.169ZM272.299 180.842C272.988 180.842 273.527 180.505 273.914 179.832C274.305 179.16 274.501 178.187 274.501 176.914C274.501 176.069 274.411 175.355 274.233 174.771C274.057 174.185 273.803 173.741 273.472 173.439C273.144 173.134 272.753 172.982 272.299 172.982C271.612 172.982 271.074 173.32 270.683 173.996C270.292 174.672 270.094 175.645 270.091 176.914C270.091 177.763 270.179 178.48 270.355 179.067C270.534 179.65 270.787 180.093 271.115 180.394C271.443 180.692 271.838 180.842 272.299 180.842Z" fill="#3F3F46"/>
<path d="M9.37784 222V220.886L12.8232 217.317C13.1911 216.929 13.4943 216.589 13.733 216.298C13.9749 216.003 14.1555 215.723 14.2749 215.457C14.3942 215.192 14.4538 214.911 14.4538 214.612C14.4538 214.274 14.3743 213.982 14.2152 213.737C14.0561 213.489 13.839 213.298 13.5639 213.165C13.2888 213.03 12.9789 212.962 12.6342 212.962C12.2696 212.962 11.9515 213.036 11.6797 213.185C11.4079 213.335 11.1991 213.545 11.0533 213.817C10.9074 214.089 10.8345 214.407 10.8345 214.771H9.3679C9.3679 214.152 9.51042 213.61 9.79545 213.146C10.0805 212.682 10.4716 212.322 10.9688 212.067C11.4659 211.808 12.031 211.679 12.6641 211.679C13.3037 211.679 13.8672 211.807 14.3544 212.062C14.8449 212.314 15.2277 212.658 15.5028 213.096C15.7779 213.53 15.9155 214.021 15.9155 214.567C15.9155 214.945 15.8442 215.315 15.7017 215.676C15.5625 216.037 15.3189 216.44 14.9709 216.884C14.6229 217.325 14.139 217.86 13.5192 218.49L11.4957 220.608V220.683H16.0795V222H9.37784ZM21.8267 211.818V222H20.2855V213.359H20.2259L17.7898 214.95V213.479L20.3303 211.818H21.8267Z" fill="#3F3F46"/>
<path d="M50.3935 222V220.886L53.8388 217.317C54.2067 216.929 54.5099 216.589 54.7486 216.298C54.9905 216.003 55.1712 215.723 55.2905 215.457C55.4098 215.192 55.4695 214.911 55.4695 214.612C55.4695 214.274 55.3899 213.982 55.2308 213.737C55.0717 213.489 54.8546 213.298 54.5795 213.165C54.3045 213.03 53.9946 212.962 53.6499 212.962C53.2853 212.962 52.9671 213.036 52.6953 213.185C52.4235 213.335 52.2147 213.545 52.0689 213.817C51.9231 214.089 51.8501 214.407 51.8501 214.771H50.3835C50.3835 214.152 50.526 213.61 50.8111 213.146C51.0961 212.682 51.4872 212.322 51.9844 212.067C52.4815 211.808 53.0466 211.679 53.6797 211.679C54.3194 211.679 54.8828 211.807 55.37 212.062C55.8606 212.314 56.2434 212.658 56.5185 213.096C56.7936 213.53 56.9311 214.021 56.9311 214.567C56.9311 214.945 56.8598 215.315 56.7173 215.676C56.5781 216.037 56.3345 216.44 55.9865 216.884C55.6385 217.325 55.1546 217.86 54.5348 218.49L52.5114 220.608V220.683H57.0952V222H50.3935ZM58.9794 222V220.886L62.4247 217.317C62.7926 216.929 63.0959 216.589 63.3345 216.298C63.5765 216.003 63.7571 215.723 63.8764 215.457C63.9957 215.192 64.0554 214.911 64.0554 214.612C64.0554 214.274 63.9759 213.982 63.8168 213.737C63.6577 213.489 63.4406 213.298 63.1655 213.165C62.8904 213.03 62.5805 212.962 62.2358 212.962C61.8712 212.962 61.553 213.036 61.2812 213.185C61.0095 213.335 60.8007 213.545 60.6548 213.817C60.509 214.089 60.4361 214.407 60.4361 214.771H58.9695C58.9695 214.152 59.112 213.61 59.397 213.146C59.6821 212.682 60.0732 212.322 60.5703 212.067C61.0675 211.808 61.6326 211.679 62.2656 211.679C62.9053 211.679 63.4688 211.807 63.956 212.062C64.4465 212.314 64.8293 212.658 65.1044 213.096C65.3795 213.53 65.517 214.021 65.517 214.567C65.517 214.945 65.4458 215.315 65.3033 215.676C65.1641 216.037 64.9205 216.44 64.5724 216.884C64.2244 217.325 63.7405 217.86 63.1207 218.49L61.0973 220.608V220.683H65.6811V222H58.9794Z" fill="#3F3F46"/>
<path d="M92.1747 222V220.886L95.62 217.317C95.9879 216.929 96.2912 216.589 96.5298 216.298C96.7718 216.003 96.9524 215.723 97.0717 215.457C97.1911 215.192 97.2507 214.911 97.2507 214.612C97.2507 214.274 97.1712 213.982 97.0121 213.737C96.853 213.489 96.6359 213.298 96.3608 213.165C96.0857 213.03 95.7758 212.962 95.4311 212.962C95.0665 212.962 94.7483 213.036 94.4766 213.185C94.2048 213.335 93.996 213.545 93.8501 213.817C93.7043 214.089 93.6314 214.407 93.6314 214.771H92.1648C92.1648 214.152 92.3073 213.61 92.5923 213.146C92.8774 212.682 93.2685 212.322 93.7656 212.067C94.2628 211.808 94.8279 211.679 95.4609 211.679C96.1006 211.679 96.6641 211.807 97.1513 212.062C97.6418 212.314 98.0246 212.658 98.2997 213.096C98.5748 213.53 98.7124 214.021 98.7124 214.567C98.7124 214.945 98.6411 215.315 98.4986 215.676C98.3594 216.037 98.1158 216.44 97.7678 216.884C97.4197 217.325 96.9358 217.86 96.3161 218.49L94.2926 220.608V220.683H98.8764V222H92.1747ZM104.305 222.139C103.623 222.139 103.013 222.022 102.476 221.786C101.942 221.551 101.52 221.224 101.208 220.807C100.9 220.386 100.734 219.899 100.711 219.345H102.272C102.292 219.647 102.393 219.909 102.575 220.131C102.761 220.349 103.003 220.518 103.301 220.638C103.599 220.757 103.931 220.817 104.295 220.817C104.696 220.817 105.051 220.747 105.359 220.608C105.671 220.469 105.915 220.275 106.09 220.026C106.266 219.774 106.354 219.484 106.354 219.156C106.354 218.815 106.266 218.515 106.09 218.256C105.918 217.995 105.664 217.789 105.33 217.64C104.998 217.491 104.597 217.416 104.126 217.416H103.266V216.163H104.126C104.504 216.163 104.836 216.095 105.121 215.96C105.409 215.824 105.634 215.635 105.797 215.393C105.959 215.147 106.04 214.861 106.04 214.533C106.04 214.218 105.969 213.944 105.827 213.712C105.688 213.477 105.489 213.293 105.23 213.161C104.975 213.028 104.673 212.962 104.325 212.962C103.994 212.962 103.684 213.023 103.396 213.146C103.111 213.265 102.879 213.437 102.7 213.663C102.521 213.885 102.424 214.152 102.411 214.463H100.925C100.941 213.913 101.104 213.429 101.412 213.011C101.723 212.594 102.134 212.267 102.645 212.032C103.155 211.797 103.722 211.679 104.345 211.679C104.998 211.679 105.562 211.807 106.036 212.062C106.513 212.314 106.881 212.65 107.139 213.071C107.401 213.492 107.53 213.953 107.527 214.453C107.53 215.023 107.371 215.507 107.05 215.905C106.732 216.303 106.307 216.569 105.777 216.705V216.785C106.453 216.888 106.977 217.156 107.348 217.59C107.723 218.024 107.908 218.563 107.905 219.206C107.908 219.766 107.752 220.268 107.438 220.712C107.126 221.156 106.7 221.506 106.16 221.761C105.62 222.013 105.001 222.139 104.305 222.139Z" fill="#3F3F46"/>
<path d="M134.216 222V220.886L137.661 217.317C138.029 216.929 138.332 216.589 138.571 216.298C138.813 216.003 138.993 215.723 139.113 215.457C139.232 215.192 139.292 214.911 139.292 214.612C139.292 214.274 139.212 213.982 139.053 213.737C138.894 213.489 138.677 213.298 138.402 213.165C138.127 213.03 137.817 212.962 137.472 212.962C137.108 212.962 136.789 213.036 136.518 213.185C136.246 213.335 136.037 213.545 135.891 213.817C135.745 214.089 135.672 214.407 135.672 214.771H134.206C134.206 214.152 134.348 213.61 134.633 213.146C134.918 212.682 135.309 212.322 135.807 212.067C136.304 211.808 136.869 211.679 137.502 211.679C138.142 211.679 138.705 211.807 139.192 212.062C139.683 212.314 140.066 212.658 140.341 213.096C140.616 213.53 140.753 214.021 140.753 214.567C140.753 214.945 140.682 215.315 140.54 215.676C140.4 216.037 140.157 216.44 139.809 216.884C139.461 217.325 138.977 217.86 138.357 218.49L136.334 220.608V220.683H140.917V222H134.216ZM142.369 220.011V218.768L146.769 211.818H147.748V213.648H147.127L143.98 218.629V218.709H150.01V220.011H142.369ZM147.197 222V219.634L147.206 219.067V211.818H148.663V222H147.197Z" fill="#3F3F46"/>
<path d="M176.346 222V220.886L179.791 217.317C180.159 216.929 180.462 216.589 180.701 216.298C180.943 216.003 181.123 215.723 181.243 215.457C181.362 215.192 181.422 214.911 181.422 214.612C181.422 214.274 181.342 213.982 181.183 213.737C181.024 213.489 180.807 213.298 180.532 213.165C180.257 213.03 179.947 212.962 179.602 212.962C179.237 212.962 178.919 213.036 178.647 213.185C178.376 213.335 178.167 213.545 178.021 213.817C177.875 214.089 177.802 214.407 177.802 214.771H176.336C176.336 214.152 176.478 213.61 176.763 213.146C177.048 212.682 177.439 212.322 177.937 212.067C178.434 211.808 178.999 211.679 179.632 211.679C180.272 211.679 180.835 211.807 181.322 212.062C181.813 212.314 182.196 212.658 182.471 213.096C182.746 213.53 182.883 214.021 182.883 214.567C182.883 214.945 182.812 215.315 182.669 215.676C182.53 216.037 182.287 216.44 181.939 216.884C181.591 217.325 181.107 217.86 180.487 218.49L178.464 220.608V220.683H183.047V222H176.346ZM188.292 222.139C187.669 222.139 187.109 222.02 186.612 221.781C186.118 221.539 185.724 221.208 185.429 220.787C185.134 220.366 184.976 219.885 184.956 219.345H186.448C186.484 219.783 186.678 220.142 187.03 220.424C187.381 220.706 187.802 220.847 188.292 220.847C188.683 220.847 189.03 220.757 189.331 220.578C189.636 220.396 189.875 220.146 190.047 219.827C190.223 219.509 190.311 219.146 190.311 218.739C190.311 218.324 190.221 217.955 190.042 217.63C189.863 217.305 189.616 217.05 189.302 216.864C188.99 216.679 188.632 216.584 188.228 216.581C187.919 216.581 187.61 216.634 187.298 216.74C186.986 216.846 186.735 216.985 186.542 217.158L185.135 216.949L185.707 211.818H191.305V213.136H186.985L186.662 215.984H186.721C186.92 215.792 187.184 215.631 187.512 215.502C187.843 215.373 188.198 215.308 188.576 215.308C189.196 215.308 189.747 215.456 190.231 215.751C190.718 216.046 191.101 216.448 191.38 216.959C191.661 217.466 191.801 218.049 191.797 218.709C191.801 219.368 191.651 219.957 191.35 220.474C191.052 220.991 190.637 221.398 190.107 221.697C189.58 221.992 188.975 222.139 188.292 222.139Z" fill="#3F3F46"/>
<path d="M218.236 222V220.886L221.682 217.317C222.049 216.929 222.353 216.589 222.591 216.298C222.833 216.003 223.014 215.723 223.133 215.457C223.253 215.192 223.312 214.911 223.312 214.612C223.312 214.274 223.233 213.982 223.074 213.737C222.915 213.489 222.697 213.298 222.422 213.165C222.147 213.03 221.837 212.962 221.493 212.962C221.128 212.962 220.81 213.036 220.538 213.185C220.266 213.335 220.057 213.545 219.912 213.817C219.766 214.089 219.693 214.407 219.693 214.771H218.226C218.226 214.152 218.369 213.61 218.654 213.146C218.939 212.682 219.33 212.322 219.827 212.067C220.324 211.808 220.889 211.679 221.522 211.679C222.162 211.679 222.726 211.807 223.213 212.062C223.703 212.314 224.086 212.658 224.361 213.096C224.636 213.53 224.774 214.021 224.774 214.567C224.774 214.945 224.703 215.315 224.56 215.676C224.421 216.037 224.177 216.44 223.829 216.884C223.481 217.325 222.997 217.86 222.378 218.49L220.354 220.608V220.683H224.938V222H218.236ZM230.377 222.139C229.923 222.133 229.475 222.05 229.035 221.891C228.597 221.732 228.199 221.466 227.841 221.095C227.483 220.724 227.197 220.225 226.981 219.599C226.769 218.972 226.663 218.19 226.663 217.252C226.663 216.364 226.751 215.575 226.927 214.886C227.106 214.196 227.362 213.615 227.697 213.141C228.032 212.663 228.436 212.3 228.91 212.052C229.384 211.803 229.916 211.679 230.506 211.679C231.113 211.679 231.651 211.798 232.122 212.037C232.593 212.276 232.974 212.605 233.265 213.026C233.56 213.447 233.748 213.926 233.827 214.463H232.311C232.208 214.039 232.004 213.692 231.699 213.424C231.394 213.156 230.997 213.021 230.506 213.021C229.76 213.021 229.179 213.346 228.761 213.996C228.347 214.645 228.138 215.549 228.135 216.705H228.209C228.385 216.417 228.6 216.172 228.856 215.969C229.114 215.764 229.402 215.607 229.721 215.497C230.042 215.384 230.38 215.328 230.735 215.328C231.325 215.328 231.858 215.472 232.336 215.761C232.816 216.046 233.199 216.44 233.484 216.944C233.769 217.448 233.912 218.024 233.912 218.674C233.912 219.324 233.764 219.912 233.469 220.439C233.178 220.966 232.767 221.384 232.236 221.692C231.706 221.997 231.086 222.146 230.377 222.139ZM230.372 220.847C230.763 220.847 231.113 220.75 231.421 220.558C231.729 220.366 231.973 220.107 232.152 219.783C232.331 219.458 232.42 219.095 232.42 218.694C232.42 218.303 232.332 217.946 232.157 217.625C231.984 217.304 231.746 217.048 231.441 216.859C231.139 216.67 230.794 216.576 230.407 216.576C230.112 216.576 229.838 216.632 229.586 216.745C229.338 216.858 229.119 217.013 228.93 217.212C228.741 217.411 228.592 217.64 228.483 217.898C228.377 218.154 228.324 218.424 228.324 218.709C228.324 219.09 228.411 219.443 228.587 219.768C228.766 220.093 229.01 220.354 229.318 220.553C229.629 220.749 229.981 220.847 230.372 220.847Z" fill="#3F3F46"/>
<path d="M261.133 222V220.886L264.578 217.317C264.946 216.929 265.249 216.589 265.488 216.298C265.73 216.003 265.91 215.723 266.03 215.457C266.149 215.192 266.209 214.911 266.209 214.612C266.209 214.274 266.129 213.982 265.97 213.737C265.811 213.489 265.594 213.298 265.319 213.165C265.044 213.03 264.734 212.962 264.389 212.962C264.025 212.962 263.706 213.036 263.435 213.185C263.163 213.335 262.954 213.545 262.808 213.817C262.662 214.089 262.589 214.407 262.589 214.771H261.123C261.123 214.152 261.265 213.61 261.55 213.146C261.835 212.682 262.226 212.322 262.724 212.067C263.221 211.808 263.786 211.679 264.419 211.679C265.059 211.679 265.622 211.807 266.109 212.062C266.6 212.314 266.983 212.658 267.258 213.096C267.533 213.53 267.67 214.021 267.67 214.567C267.67 214.945 267.599 215.315 267.457 215.676C267.317 216.037 267.074 216.44 266.726 216.884C266.378 217.325 265.894 217.86 265.274 218.49L263.251 220.608V220.683H267.834V222H261.133ZM270.062 222L274.506 213.21V213.136H269.366V211.818H276.097V213.18L271.668 222H270.062Z" fill="#3F3F46"/>
<path d="M8.26358 262V260.886L11.7089 257.317C12.0768 256.929 12.3801 256.589 12.6187 256.298C12.8606 256.003 13.0413 255.723 13.1606 255.457C13.2799 255.192 13.3396 254.911 13.3396 254.612C13.3396 254.274 13.26 253.982 13.1009 253.737C12.9419 253.489 12.7248 253.298 12.4497 253.165C12.1746 253.03 11.8647 252.962 11.52 252.962C11.1554 252.962 10.8372 253.036 10.5654 253.185C10.2936 253.335 10.0848 253.545 9.93901 253.817C9.79318 254.089 9.72026 254.407 9.72026 254.771H8.25364C8.25364 254.152 8.39616 253.61 8.6812 253.146C8.96623 252.682 9.35733 252.322 9.85449 252.067C10.3517 251.808 10.9168 251.679 11.5498 251.679C12.1895 251.679 12.7529 251.807 13.2401 252.062C13.7307 252.314 14.1135 252.658 14.3886 253.096C14.6637 253.53 14.8012 254.021 14.8012 254.567C14.8012 254.945 14.73 255.315 14.5874 255.676C14.4482 256.037 14.2046 256.44 13.8566 256.884C13.5086 257.325 13.0247 257.86 12.4049 258.49L10.3815 260.608V260.683H14.9653V262H8.26358ZM20.2899 262.139C19.5773 262.139 18.9475 262.017 18.4007 261.771C17.8571 261.526 17.4312 261.188 17.123 260.757C16.8147 260.326 16.6623 259.836 16.6656 259.286C16.6623 258.855 16.7501 258.459 16.9291 258.097C17.1114 257.733 17.3583 257.429 17.6698 257.188C17.9814 256.942 18.3294 256.786 18.7139 256.72V256.661C18.2068 256.538 17.8008 256.266 17.4958 255.845C17.1909 255.424 17.0401 254.94 17.0434 254.393C17.0401 253.873 17.1776 253.409 17.4561 253.001C17.7378 252.59 18.1239 252.267 18.6144 252.032C19.105 251.797 19.6634 251.679 20.2899 251.679C20.9097 251.679 21.4632 251.798 21.9504 252.037C22.4409 252.272 22.827 252.595 23.1088 253.006C23.3905 253.414 23.533 253.876 23.5363 254.393C23.533 254.94 23.3772 255.424 23.069 255.845C22.7607 256.266 22.3597 256.538 21.8659 256.661V256.72C22.247 256.786 22.5901 256.942 22.895 257.188C23.2032 257.429 23.4485 257.733 23.6308 258.097C23.8164 258.459 23.9108 258.855 23.9142 259.286C23.9108 259.836 23.7551 260.326 23.4468 260.757C23.1386 261.188 22.711 261.526 22.1642 261.771C21.6206 262.017 20.9958 262.139 20.2899 262.139ZM20.2899 260.881C20.7108 260.881 21.0754 260.812 21.3836 260.673C21.6919 260.53 21.9305 260.333 22.0995 260.081C22.2686 259.826 22.3547 259.527 22.358 259.186C22.3547 258.831 22.2619 258.518 22.0796 258.246C21.9007 257.975 21.657 257.761 21.3488 257.605C21.0406 257.449 20.6876 257.371 20.2899 257.371C19.8888 257.371 19.5325 257.449 19.221 257.605C18.9094 257.761 18.6642 257.975 18.4852 258.246C18.3062 258.518 18.2184 258.831 18.2217 259.186C18.2184 259.527 18.2996 259.826 18.4653 260.081C18.6343 260.333 18.8746 260.53 19.1862 260.673C19.4977 260.812 19.8656 260.881 20.2899 260.881ZM20.2899 256.143C20.6279 256.143 20.9279 256.076 21.1897 255.94C21.4516 255.804 21.657 255.615 21.8062 255.373C21.9587 255.131 22.0365 254.848 22.0399 254.523C22.0365 254.205 21.9603 253.926 21.8112 253.688C21.6653 253.449 21.4615 253.265 21.1997 253.136C20.9378 253.003 20.6346 252.937 20.2899 252.937C19.9385 252.937 19.6303 253.003 19.3651 253.136C19.1033 253.265 18.8995 253.449 18.7536 253.688C18.6078 253.926 18.5365 254.205 18.5399 254.523C18.5365 254.848 18.6095 255.131 18.7586 255.373C18.9078 255.615 19.1133 255.804 19.3751 255.94C19.6402 256.076 19.9452 256.143 20.2899 256.143Z" fill="#3F3F46"/>
<path d="M60.0337 251.818V262H58.4925V253.359H58.4329L55.9968 254.95V253.479L58.5373 251.818H60.0337Z" fill="#93969F"/>
<path d="M97.1864 262V260.886L100.632 257.317C101 256.929 101.303 256.589 101.542 256.298C101.783 256.003 101.964 255.723 102.083 255.457C102.203 255.192 102.262 254.911 102.262 254.612C102.262 254.274 102.183 253.982 102.024 253.737C101.865 253.489 101.648 253.298 101.373 253.165C101.097 253.03 100.788 252.962 100.443 252.962C100.078 252.962 99.7601 253.036 99.4883 253.185C99.2165 253.335 99.0077 253.545 98.8619 253.817C98.716 254.089 98.6431 254.407 98.6431 254.771H97.1765C97.1765 254.152 97.319 253.61 97.604 253.146C97.8891 252.682 98.2802 252.322 98.7773 252.067C99.2745 251.808 99.8396 251.679 100.473 251.679C101.112 251.679 101.676 251.807 102.163 252.062C102.654 252.314 103.036 252.658 103.311 253.096C103.587 253.53 103.724 254.021 103.724 254.567C103.724 254.945 103.653 255.315 103.51 255.676C103.371 256.037 103.127 256.44 102.779 256.884C102.431 257.325 101.948 257.86 101.328 258.49L99.3043 260.608V260.683H103.888V262H97.1864Z" fill="#93969F"/>
<path d="M142.012 262.139C141.33 262.139 140.72 262.022 140.183 261.786C139.649 261.551 139.227 261.224 138.915 260.807C138.607 260.386 138.441 259.899 138.418 259.345H139.979C139.999 259.647 140.1 259.909 140.282 260.131C140.468 260.349 140.71 260.518 141.008 260.638C141.306 260.757 141.638 260.817 142.002 260.817C142.404 260.817 142.758 260.747 143.066 260.608C143.378 260.469 143.622 260.275 143.797 260.026C143.973 259.774 144.061 259.484 144.061 259.156C144.061 258.815 143.973 258.515 143.797 258.256C143.625 257.995 143.371 257.789 143.037 257.64C142.705 257.491 142.304 257.416 141.833 257.416H140.973V256.163H141.833C142.211 256.163 142.543 256.095 142.828 255.96C143.116 255.824 143.342 255.635 143.504 255.393C143.666 255.147 143.748 254.861 143.748 254.533C143.748 254.218 143.676 253.944 143.534 253.712C143.395 253.477 143.196 253.293 142.937 253.161C142.682 253.028 142.38 252.962 142.032 252.962C141.701 252.962 141.391 253.023 141.103 253.146C140.818 253.265 140.586 253.437 140.407 253.663C140.228 253.885 140.132 254.152 140.118 254.463H138.632C138.648 253.913 138.811 253.429 139.119 253.011C139.431 252.594 139.842 252.267 140.352 252.032C140.862 251.797 141.429 251.679 142.052 251.679C142.705 251.679 143.269 251.807 143.743 252.062C144.22 252.314 144.588 252.65 144.846 253.071C145.108 253.492 145.237 253.953 145.234 254.453C145.237 255.023 145.078 255.507 144.757 255.905C144.439 256.303 144.014 256.569 143.484 256.705V256.785C144.16 256.888 144.684 257.156 145.055 257.59C145.43 258.024 145.615 258.563 145.612 259.206C145.615 259.766 145.459 260.268 145.145 260.712C144.833 261.156 144.407 261.506 143.867 261.761C143.327 262.013 142.708 262.139 142.012 262.139Z" fill="#93969F"/>
<path d="M180.186 260.011V258.768L184.585 251.818H185.565V253.648H184.943L181.796 258.629V258.709H187.827V260.011H180.186ZM185.013 262V259.634L185.023 259.067V251.818H186.48V262H185.013Z" fill="#93969F"/>
<path d="M226.499 262.139C225.876 262.139 225.316 262.02 224.819 261.781C224.325 261.539 223.931 261.208 223.636 260.787C223.341 260.366 223.183 259.885 223.163 259.345H224.655C224.691 259.783 224.885 260.142 225.237 260.424C225.588 260.706 226.009 260.847 226.499 260.847C226.89 260.847 227.237 260.757 227.538 260.578C227.843 260.396 228.082 260.146 228.254 259.827C228.43 259.509 228.518 259.146 228.518 258.739C228.518 258.324 228.428 257.955 228.249 257.63C228.07 257.305 227.823 257.05 227.509 256.864C227.197 256.679 226.839 256.584 226.435 256.581C226.127 256.581 225.817 256.634 225.505 256.74C225.194 256.846 224.942 256.985 224.749 257.158L223.342 256.949L223.914 251.818H229.512V253.136H225.192L224.869 255.984H224.928C225.127 255.792 225.391 255.631 225.719 255.502C226.05 255.373 226.405 255.308 226.783 255.308C227.403 255.308 227.954 255.456 228.438 255.751C228.926 256.046 229.308 256.448 229.587 256.959C229.868 257.466 230.008 258.049 230.004 258.709C230.008 259.368 229.859 259.957 229.557 260.474C229.259 260.991 228.844 261.398 228.314 261.697C227.787 261.992 227.182 262.139 226.499 262.139Z" fill="#93969F"/>
<path d="M268.584 262.139C268.13 262.133 267.682 262.05 267.242 261.891C266.804 261.732 266.406 261.466 266.048 261.095C265.69 260.724 265.404 260.225 265.188 259.599C264.976 258.972 264.87 258.19 264.87 257.252C264.87 256.364 264.958 255.575 265.134 254.886C265.313 254.196 265.569 253.615 265.904 253.141C266.239 252.663 266.643 252.3 267.117 252.052C267.591 251.803 268.123 251.679 268.713 251.679C269.32 251.679 269.858 251.798 270.329 252.037C270.8 252.276 271.181 252.605 271.472 253.026C271.767 253.447 271.955 253.926 272.034 254.463H270.518C270.415 254.039 270.211 253.692 269.906 253.424C269.601 253.156 269.204 253.021 268.713 253.021C267.967 253.021 267.386 253.346 266.968 253.996C266.554 254.645 266.345 255.549 266.342 256.705H266.416C266.592 256.417 266.807 256.172 267.063 255.969C267.321 255.764 267.609 255.607 267.928 255.497C268.249 255.384 268.587 255.328 268.942 255.328C269.532 255.328 270.065 255.472 270.543 255.761C271.023 256.046 271.406 256.44 271.691 256.944C271.976 257.448 272.119 258.024 272.119 258.674C272.119 259.324 271.971 259.912 271.676 260.439C271.385 260.966 270.974 261.384 270.443 261.692C269.913 261.997 269.293 262.146 268.584 262.139ZM268.579 260.847C268.97 260.847 269.32 260.75 269.628 260.558C269.936 260.366 270.18 260.107 270.359 259.783C270.538 259.458 270.627 259.095 270.627 258.694C270.627 258.303 270.539 257.946 270.364 257.625C270.191 257.304 269.953 257.048 269.648 256.859C269.346 256.67 269.002 256.576 268.614 256.576C268.319 256.576 268.045 256.632 267.793 256.745C267.545 256.858 267.326 257.013 267.137 257.212C266.948 257.411 266.799 257.64 266.69 257.898C266.584 258.154 266.531 258.424 266.531 258.709C266.531 259.09 266.618 259.443 266.794 259.768C266.973 260.093 267.217 260.354 267.525 260.553C267.836 260.749 268.188 260.847 268.579 260.847Z" fill="#93969F"/>
</svg>
