<svg width="506" height="294" viewBox="0 0 506 294" fill="none" xmlns="http://www.w3.org/2000/svg">
<path d="M17 143.855H7.54545V138.149H8.56108V142.71H11.7557V138.445H12.7713V142.71H15.9844V138.075H17V143.855ZM9.90909 135.421L12.8082 133.722L9.90909 132.023V130.767L13.4545 133.057L17 130.767V132.023L14.2486 133.722L17 135.421V136.676L13.4545 134.424L9.90909 136.676V135.421ZM19.6591 129.213H9.90909V128.16H11.0355V128.031C10.9124 127.951 10.7554 127.84 10.5646 127.699C10.3707 127.554 10.1984 127.348 10.0476 127.08C9.8937 126.809 9.81676 126.443 9.81676 125.981C9.81676 125.384 9.96603 124.858 10.2646 124.402C10.5631 123.947 10.9863 123.591 11.5341 123.336C12.0819 123.081 12.7282 122.953 13.473 122.953C14.224 122.953 14.8749 123.081 15.4258 123.336C15.9736 123.591 16.3983 123.945 16.6999 124.398C16.9985 124.85 17.1477 125.372 17.1477 125.963C17.1477 126.418 17.0723 126.783 16.9215 127.057C16.7676 127.331 16.5937 127.542 16.3999 127.689C16.2029 127.837 16.0398 127.951 15.9105 128.031V128.123H19.6591V129.213ZM13.4545 128.142C13.9901 128.142 14.4625 128.063 14.8718 127.906C15.2781 127.749 15.5966 127.52 15.8274 127.218C16.0552 126.917 16.169 126.548 16.169 126.111C16.169 125.655 16.049 125.275 15.8089 124.97C15.5658 124.662 15.2396 124.432 14.8303 124.278C14.4179 124.121 13.9593 124.042 13.4545 124.042C12.956 124.042 12.5066 124.119 12.1065 124.273C11.7034 124.424 11.3848 124.653 11.1509 124.961C10.9139 125.266 10.7955 125.649 10.7955 126.111C10.7955 126.554 10.9078 126.926 11.1325 127.228C11.354 127.529 11.6649 127.757 12.065 127.911C12.462 128.065 12.9252 128.142 13.4545 128.142ZM17.1477 118.318C17.1477 119.001 16.9969 119.591 16.6953 120.086C16.3906 120.578 15.9659 120.959 15.4212 121.226C14.8733 121.491 14.2363 121.623 13.5099 121.623C12.7836 121.623 12.1435 121.491 11.5895 121.226C11.0324 120.959 10.5985 120.586 10.2876 120.109C9.97372 119.629 9.81676 119.069 9.81676 118.429C9.81676 118.059 9.87831 117.695 10.0014 117.335C10.1245 116.975 10.3246 116.647 10.6016 116.351C10.8755 116.056 11.2386 115.82 11.6911 115.645C12.1435 115.47 12.7005 115.382 13.3622 115.382H13.8239V120.848H12.8821V116.49C12.482 116.49 12.125 116.57 11.8111 116.73C11.4972 116.887 11.2494 117.111 11.0678 117.404C10.8862 117.693 10.7955 118.035 10.7955 118.429C10.7955 118.863 10.9032 119.238 11.1186 119.555C11.331 119.869 11.608 120.111 11.9496 120.28C12.2912 120.449 12.6574 120.534 13.0483 120.534H13.6761C14.2116 120.534 14.6656 120.441 15.038 120.257C15.4073 120.069 15.6889 119.809 15.8828 119.477C16.0736 119.144 16.169 118.758 16.169 118.318C16.169 118.032 16.129 117.773 16.049 117.542C15.9659 117.308 15.8428 117.107 15.6797 116.938C15.5135 116.768 15.3073 116.638 15.0611 116.545L15.3565 115.493C15.7135 115.603 16.0275 115.79 16.2983 116.051C16.5661 116.313 16.7753 116.636 16.9261 117.021C17.0739 117.405 17.1477 117.838 17.1477 118.318ZM12.7344 112.635H17V113.725H9.90909V112.672H11.017V112.58C10.657 112.413 10.3677 112.161 10.1491 111.823C9.92756 111.484 9.81676 111.047 9.81676 110.511C9.81676 110.031 9.91525 109.611 10.1122 109.251C10.3061 108.891 10.6016 108.611 10.9986 108.411C11.3925 108.211 11.8911 108.111 12.4943 108.111H17V109.2H12.5682C12.0111 109.2 11.5772 109.345 11.2663 109.634C10.9524 109.924 10.7955 110.321 10.7955 110.825C10.7955 111.173 10.8709 111.484 11.0217 111.758C11.1725 112.029 11.3925 112.243 11.6818 112.4C11.9711 112.557 12.322 112.635 12.7344 112.635ZM11.4972 101.097L11.7741 102.076C11.611 102.138 11.4525 102.228 11.2987 102.348C11.1417 102.465 11.0124 102.625 10.9109 102.828C10.8093 103.032 10.7585 103.292 10.7585 103.609C10.7585 104.043 10.8585 104.404 11.0586 104.694C11.2556 104.98 11.5064 105.123 11.8111 105.123C12.0819 105.123 12.2958 105.024 12.4528 104.827C12.6097 104.63 12.7405 104.323 12.8452 103.904L13.1037 102.852C13.2576 102.218 13.493 101.745 13.81 101.434C14.1239 101.123 14.5286 100.968 15.0241 100.968C15.4304 100.968 15.7936 101.085 16.1136 101.319C16.4337 101.55 16.6861 101.873 16.8707 102.288C17.0554 102.704 17.1477 103.187 17.1477 103.738C17.1477 104.461 16.9908 105.06 16.6768 105.534C16.3629 106.008 15.9044 106.308 15.3011 106.434L15.0426 105.4C15.4242 105.301 15.7105 105.115 15.9013 104.841C16.0921 104.564 16.1875 104.203 16.1875 103.756C16.1875 103.249 16.0798 102.845 15.8643 102.547C15.6458 102.245 15.3842 102.094 15.0795 102.094C14.8333 102.094 14.6271 102.181 14.4609 102.353C14.2917 102.525 14.1655 102.79 14.0824 103.147L13.8054 104.329C13.6515 104.978 13.413 105.455 13.0898 105.76C12.7636 106.062 12.3558 106.212 11.8665 106.212C11.4664 106.212 11.1125 106.1 10.8047 105.875C10.4969 105.648 10.2553 105.338 10.0799 104.947C9.90447 104.554 9.81676 104.107 9.81676 103.609C9.81676 102.907 9.97064 102.356 10.2784 101.956C10.5862 101.553 10.9924 101.267 11.4972 101.097ZM17.1477 96.355C17.1477 97.0383 16.9969 97.6276 16.6953 98.1231C16.3906 98.6156 15.9659 98.9956 15.4212 99.2634C14.8733 99.5281 14.2363 99.6604 13.5099 99.6604C12.7836 99.6604 12.1435 99.5281 11.5895 99.2634C11.0324 98.9956 10.5985 98.6233 10.2876 98.1462C9.97372 97.6661 9.81676 97.106 9.81676 96.4658C9.81676 96.0965 9.87831 95.7318 10.0014 95.3717C10.1245 95.0116 10.3246 94.6839 10.6016 94.3884C10.8755 94.093 11.2386 93.8575 11.6911 93.6821C12.1435 93.5067 12.7005 93.4189 13.3622 93.4189H13.8239V98.8849H12.8821V94.5269C12.482 94.5269 12.125 94.6069 11.8111 94.767C11.4972 94.9239 11.2494 95.1486 11.0678 95.441C10.8862 95.7303 10.7955 96.0719 10.7955 96.4658C10.7955 96.8998 10.9032 97.2752 11.1186 97.5922C11.331 97.9062 11.608 98.1478 11.9496 98.317C12.2912 98.4863 12.6574 98.5709 13.0483 98.5709H13.6761C14.2116 98.5709 14.6656 98.4786 15.038 98.2939C15.4073 98.1062 15.6889 97.8461 15.8828 97.5138C16.0736 97.1814 16.169 96.7951 16.169 96.355C16.169 96.0688 16.129 95.8103 16.049 95.5795C15.9659 95.3456 15.8428 95.144 15.6797 94.9747C15.5135 94.8054 15.3073 94.6746 15.0611 94.5823L15.3565 93.5297C15.7135 93.6405 16.0275 93.8267 16.2983 94.0883C16.5661 94.3499 16.7753 94.6731 16.9261 95.0578C17.0739 95.4425 17.1477 95.8749 17.1477 96.355Z" fill="#201E29"/>
<path d="M80.2077 250.727H81.0884V255.926C81.0884 256.39 81.0032 256.784 80.8327 257.109C80.6623 257.433 80.422 257.679 80.1119 257.847C79.8017 258.015 79.436 258.099 79.0146 258.099C78.6168 258.099 78.2629 258.027 77.9528 257.883C77.6426 257.736 77.3988 257.528 77.2212 257.258C77.0437 256.988 76.9549 256.667 76.9549 256.295H77.8214C77.8214 256.501 77.8723 256.681 77.9741 256.835C78.0782 256.987 78.2203 257.105 78.4002 257.19C78.5801 257.276 78.7849 257.318 79.0146 257.318C79.2679 257.318 79.4833 257.265 79.6609 257.158C79.8384 257.052 79.9734 256.896 80.0657 256.69C80.1604 256.481 80.2077 256.227 80.2077 255.926V250.727ZM84.3448 258.128C83.9992 258.128 83.6855 258.063 83.4038 257.933C83.122 257.8 82.8983 257.609 82.7326 257.361C82.5669 257.11 82.484 256.807 82.484 256.452C82.484 256.139 82.5456 255.886 82.6687 255.692C82.7918 255.495 82.9563 255.341 83.1623 255.23C83.3683 255.119 83.5955 255.036 83.8441 254.982C84.0951 254.925 84.3472 254.88 84.6005 254.847C84.9319 254.804 85.2006 254.772 85.4066 254.751C85.6149 254.727 85.7665 254.688 85.8612 254.634C85.9582 254.579 86.0067 254.484 86.0067 254.349V254.321C86.0067 253.971 85.9109 253.698 85.7191 253.504C85.5297 253.31 85.2421 253.213 84.8562 253.213C84.4561 253.213 84.1424 253.301 83.9151 253.476C83.6879 253.651 83.5281 253.838 83.4357 254.037L82.6403 253.753C82.7823 253.421 82.9717 253.163 83.2085 252.979C83.4476 252.792 83.708 252.661 83.9897 252.588C84.2738 252.512 84.5531 252.474 84.8278 252.474C85.003 252.474 85.2042 252.496 85.4315 252.538C85.6611 252.579 85.8825 252.663 86.0955 252.79C86.311 252.918 86.4897 253.111 86.6317 253.369C86.7738 253.627 86.8448 253.973 86.8448 254.406V258H86.0067V257.261H85.9641C85.9073 257.38 85.8126 257.506 85.68 257.641C85.5475 257.776 85.3711 257.891 85.1509 257.986C84.9308 258.08 84.6621 258.128 84.3448 258.128ZM84.4727 257.375C84.8041 257.375 85.0835 257.31 85.3107 257.18C85.5404 257.049 85.7132 256.881 85.8292 256.675C85.9476 256.469 86.0067 256.253 86.0067 256.026V255.259C85.9712 255.301 85.8931 255.34 85.7724 255.376C85.654 255.409 85.5167 255.438 85.3604 255.464C85.2066 255.488 85.0562 255.509 84.9094 255.528C84.765 255.545 84.6478 255.559 84.5579 255.571C84.3401 255.599 84.1365 255.646 83.9471 255.71C83.7601 255.771 83.6085 255.865 83.4925 255.99C83.3789 256.113 83.3221 256.281 83.3221 256.494C83.3221 256.786 83.4298 257.006 83.6452 257.155C83.863 257.302 84.1388 257.375 84.4727 257.375ZM89.2125 254.719V258H88.3745V252.545H89.1841V253.398H89.2551C89.383 253.121 89.5771 252.898 89.8375 252.73C90.098 252.56 90.4341 252.474 90.8461 252.474C91.2154 252.474 91.5385 252.55 91.8155 252.702C92.0925 252.851 92.3079 253.078 92.4618 253.384C92.6157 253.687 92.6926 254.07 92.6926 254.534V258H91.8546V254.591C91.8546 254.162 91.7433 253.829 91.5208 253.589C91.2982 253.348 90.9928 253.227 90.6046 253.227C90.3371 253.227 90.098 253.285 89.8873 253.401C89.6789 253.517 89.5144 253.687 89.3936 253.909C89.2729 254.132 89.2125 254.402 89.2125 254.719Z" fill="#201E29"/>
<path d="M113.131 258V250.727H117.491V251.509H114.011V253.966H117.165V254.747H114.011V258H113.131ZM120.773 258.114C120.247 258.114 119.794 257.998 119.413 257.766C119.034 257.531 118.741 257.205 118.536 256.786C118.332 256.364 118.23 255.874 118.23 255.315C118.23 254.757 118.332 254.264 118.536 253.838C118.741 253.41 119.028 253.076 119.395 252.837C119.764 252.595 120.195 252.474 120.688 252.474C120.972 252.474 121.252 252.522 121.529 252.616C121.806 252.711 122.058 252.865 122.286 253.078C122.513 253.289 122.694 253.568 122.829 253.916C122.964 254.264 123.031 254.693 123.031 255.202V255.557H118.827V254.832H122.179C122.179 254.525 122.117 254.25 121.994 254.009C121.874 253.767 121.701 253.576 121.476 253.437C121.253 253.297 120.991 253.227 120.688 253.227C120.354 253.227 120.065 253.31 119.821 253.476C119.58 253.639 119.394 253.852 119.263 254.115C119.133 254.378 119.068 254.66 119.068 254.96V255.443C119.068 255.855 119.139 256.204 119.281 256.491C119.426 256.775 119.626 256.991 119.881 257.141C120.137 257.287 120.434 257.361 120.773 257.361C120.993 257.361 121.192 257.33 121.369 257.268C121.549 257.205 121.704 257.11 121.835 256.984C121.965 256.857 122.065 256.698 122.136 256.509L122.946 256.736C122.861 257.01 122.718 257.252 122.516 257.46C122.315 257.666 122.067 257.827 121.771 257.943C121.475 258.057 121.142 258.114 120.773 258.114ZM124.42 258V250.727H125.258V253.412H125.329C125.39 253.317 125.476 253.196 125.585 253.05C125.696 252.901 125.854 252.768 126.06 252.652C126.269 252.534 126.55 252.474 126.906 252.474C127.365 252.474 127.77 252.589 128.12 252.819C128.47 253.049 128.744 253.374 128.94 253.795C129.137 254.217 129.235 254.714 129.235 255.287C129.235 255.865 129.137 256.365 128.94 256.789C128.744 257.21 128.472 257.537 128.124 257.769C127.776 257.999 127.374 258.114 126.92 258.114C126.569 258.114 126.289 258.056 126.078 257.94C125.867 257.821 125.705 257.687 125.592 257.538C125.478 257.387 125.39 257.261 125.329 257.162H125.229V258H124.42ZM125.244 255.273C125.244 255.685 125.304 256.048 125.425 256.363C125.545 256.675 125.722 256.92 125.954 257.098C126.186 257.273 126.47 257.361 126.806 257.361C127.156 257.361 127.449 257.268 127.683 257.084C127.92 256.897 128.098 256.646 128.216 256.331C128.337 256.014 128.397 255.661 128.397 255.273C128.397 254.889 128.338 254.544 128.219 254.236C128.103 253.926 127.927 253.681 127.69 253.501C127.456 253.318 127.161 253.227 126.806 253.227C126.465 253.227 126.179 253.314 125.947 253.487C125.715 253.657 125.54 253.896 125.421 254.204C125.303 254.509 125.244 254.866 125.244 255.273Z" fill="#201E29"/>
<path d="M148.755 250.727H149.806L152.277 256.764H152.363L154.834 250.727H155.885V258H155.062V252.474H154.991L152.718 258H151.922L149.65 252.474H149.579V258H148.755V250.727ZM159.143 258.128C158.797 258.128 158.483 258.063 158.202 257.933C157.92 257.8 157.696 257.609 157.53 257.361C157.365 257.11 157.282 256.807 157.282 256.452C157.282 256.139 157.343 255.886 157.467 255.692C157.59 255.495 157.754 255.341 157.96 255.23C158.166 255.119 158.393 255.036 158.642 254.982C158.893 254.925 159.145 254.88 159.398 254.847C159.73 254.804 159.998 254.772 160.204 254.751C160.413 254.727 160.564 254.688 160.659 254.634C160.756 254.579 160.805 254.484 160.805 254.349V254.321C160.805 253.971 160.709 253.698 160.517 253.504C160.328 253.31 160.04 253.213 159.654 253.213C159.254 253.213 158.94 253.301 158.713 253.476C158.486 253.651 158.326 253.838 158.234 254.037L157.438 253.753C157.58 253.421 157.77 253.163 158.006 252.979C158.245 252.792 158.506 252.661 158.788 252.588C159.072 252.512 159.351 252.474 159.626 252.474C159.801 252.474 160.002 252.496 160.229 252.538C160.459 252.579 160.68 252.663 160.893 252.79C161.109 252.918 161.288 253.111 161.43 253.369C161.572 253.627 161.643 253.973 161.643 254.406V258H160.805V257.261H160.762C160.705 257.38 160.61 257.506 160.478 257.641C160.345 257.776 160.169 257.891 159.949 257.986C159.729 258.08 159.46 258.128 159.143 258.128ZM159.271 257.375C159.602 257.375 159.881 257.31 160.109 257.18C160.338 257.049 160.511 256.881 160.627 256.675C160.745 256.469 160.805 256.253 160.805 256.026V255.259C160.769 255.301 160.691 255.34 160.57 255.376C160.452 255.409 160.315 255.438 160.158 255.464C160.004 255.488 159.854 255.509 159.707 255.528C159.563 255.545 159.446 255.559 159.356 255.571C159.138 255.599 158.934 255.646 158.745 255.71C158.558 255.771 158.406 255.865 158.29 255.99C158.177 256.113 158.12 256.281 158.12 256.494C158.12 256.786 158.228 257.006 158.443 257.155C158.661 257.302 158.937 257.375 159.271 257.375ZM163.172 258V252.545H163.982V253.369H164.039C164.138 253.099 164.318 252.88 164.579 252.712C164.839 252.544 165.133 252.46 165.459 252.46C165.521 252.46 165.598 252.461 165.69 252.464C165.782 252.466 165.852 252.47 165.9 252.474V253.327C165.871 253.32 165.806 253.309 165.704 253.295C165.605 253.278 165.499 253.27 165.388 253.27C165.123 253.27 164.886 253.326 164.678 253.437C164.472 253.546 164.309 253.697 164.188 253.891C164.07 254.083 164.01 254.302 164.01 254.548V258H163.172Z" fill="#201E29"/>
<path d="M185.893 258H184.97L187.64 250.727H188.549L191.22 258H190.296L188.123 251.878H188.066L185.893 258ZM186.234 255.159H189.955V255.94H186.234V255.159ZM192.239 260.045V252.545H193.048V253.412H193.148C193.209 253.317 193.295 253.196 193.403 253.05C193.515 252.901 193.673 252.768 193.879 252.652C194.088 252.534 194.369 252.474 194.725 252.474C195.184 252.474 195.589 252.589 195.939 252.819C196.289 253.049 196.563 253.374 196.759 253.795C196.956 254.217 197.054 254.714 197.054 255.287C197.054 255.865 196.956 256.365 196.759 256.789C196.563 257.21 196.291 257.537 195.943 257.769C195.595 257.999 195.193 258.114 194.739 258.114C194.388 258.114 194.108 258.056 193.897 257.94C193.686 257.821 193.524 257.687 193.411 257.538C193.297 257.387 193.209 257.261 193.148 257.162H193.077V260.045H192.239ZM193.063 255.273C193.063 255.685 193.123 256.048 193.244 256.363C193.364 256.675 193.541 256.92 193.773 257.098C194.005 257.273 194.289 257.361 194.625 257.361C194.975 257.361 195.268 257.268 195.502 257.084C195.739 256.897 195.917 256.646 196.035 256.331C196.156 256.014 196.216 255.661 196.216 255.273C196.216 254.889 196.157 254.544 196.038 254.236C195.922 253.926 195.746 253.681 195.509 253.501C195.275 253.318 194.98 253.227 194.625 253.227C194.284 253.227 193.998 253.314 193.766 253.487C193.534 253.657 193.359 253.896 193.24 254.204C193.122 254.509 193.063 254.866 193.063 255.273ZM198.332 258V252.545H199.142V253.369H199.199C199.298 253.099 199.478 252.88 199.739 252.712C199.999 252.544 200.293 252.46 200.619 252.46C200.681 252.46 200.758 252.461 200.85 252.464C200.943 252.466 201.012 252.47 201.06 252.474V253.327C201.031 253.32 200.966 253.309 200.864 253.295C200.765 253.278 200.66 253.27 200.548 253.27C200.283 253.27 200.046 253.326 199.838 253.437C199.632 253.546 199.469 253.697 199.348 253.891C199.23 254.083 199.171 254.302 199.171 254.548V258H198.332Z" fill="#201E29"/>
<path d="M219.93 250.727H220.981L223.452 256.764H223.537L226.009 250.727H227.06V258H226.236V252.474H226.165L223.893 258H223.097L220.824 252.474H220.753V258H219.93V250.727ZM230.317 258.128C229.972 258.128 229.658 258.063 229.376 257.933C229.095 257.8 228.871 257.609 228.705 257.361C228.54 257.11 228.457 256.807 228.457 256.452C228.457 256.139 228.518 255.886 228.641 255.692C228.764 255.495 228.929 255.341 229.135 255.23C229.341 255.119 229.568 255.036 229.817 254.982C230.068 254.925 230.32 254.88 230.573 254.847C230.905 254.804 231.173 254.772 231.379 254.751C231.588 254.727 231.739 254.688 231.834 254.634C231.931 254.579 231.979 254.484 231.979 254.349V254.321C231.979 253.971 231.884 253.698 231.692 253.504C231.502 253.31 231.215 253.213 230.829 253.213C230.429 253.213 230.115 253.301 229.888 253.476C229.661 253.651 229.501 253.838 229.408 254.037L228.613 253.753C228.755 253.421 228.944 253.163 229.181 252.979C229.42 252.792 229.681 252.661 229.962 252.588C230.246 252.512 230.526 252.474 230.8 252.474C230.976 252.474 231.177 252.496 231.404 252.538C231.634 252.579 231.855 252.663 232.068 252.79C232.284 252.918 232.462 253.111 232.604 253.369C232.746 253.627 232.817 253.973 232.817 254.406V258H231.979V257.261H231.937C231.88 257.38 231.785 257.506 231.653 257.641C231.52 257.776 231.344 257.891 231.124 257.986C230.903 258.08 230.635 258.128 230.317 258.128ZM230.445 257.375C230.777 257.375 231.056 257.31 231.283 257.18C231.513 257.049 231.686 256.881 231.802 256.675C231.92 256.469 231.979 256.253 231.979 256.026V255.259C231.944 255.301 231.866 255.34 231.745 255.376C231.627 255.409 231.489 255.438 231.333 255.464C231.179 255.488 231.029 255.509 230.882 255.528C230.738 255.545 230.621 255.559 230.531 255.571C230.313 255.599 230.109 255.646 229.92 255.71C229.733 255.771 229.581 255.865 229.465 255.99C229.352 256.113 229.295 256.281 229.295 256.494C229.295 256.786 229.402 257.006 229.618 257.155C229.836 257.302 230.112 257.375 230.445 257.375ZM234.692 260.045C234.55 260.045 234.423 260.034 234.312 260.01C234.2 259.989 234.123 259.967 234.081 259.946L234.294 259.207C234.497 259.259 234.677 259.278 234.834 259.264C234.99 259.25 235.128 259.18 235.249 259.055C235.372 258.932 235.485 258.732 235.586 258.455L235.743 258.028L233.726 252.545H234.635L236.14 256.892H236.197L237.703 252.545H238.612L236.297 258.795C236.193 259.077 236.064 259.31 235.91 259.495C235.756 259.682 235.577 259.821 235.373 259.911C235.172 260 234.945 260.045 234.692 260.045Z" fill="#201E29"/>
<path d="M260.12 250.727H261.001V255.926C261.001 256.39 260.915 256.784 260.745 257.109C260.574 257.433 260.334 257.679 260.024 257.847C259.714 258.015 259.348 258.099 258.927 258.099C258.529 258.099 258.175 258.027 257.865 257.883C257.555 257.736 257.311 257.528 257.133 257.258C256.956 256.988 256.867 256.667 256.867 256.295H257.733C257.733 256.501 257.784 256.681 257.886 256.835C257.99 256.987 258.132 257.105 258.312 257.19C258.492 257.276 258.697 257.318 258.927 257.318C259.18 257.318 259.395 257.265 259.573 257.158C259.751 257.052 259.885 256.896 259.978 256.69C260.073 256.481 260.12 256.227 260.12 255.926V250.727ZM266.089 255.77V252.545H266.927V258H266.089V257.077H266.032C265.905 257.354 265.706 257.589 265.436 257.783C265.166 257.975 264.825 258.071 264.413 258.071C264.072 258.071 263.769 257.996 263.504 257.847C263.239 257.696 263.031 257.469 262.879 257.165C262.728 256.86 262.652 256.475 262.652 256.011V252.545H263.49V255.955C263.49 256.352 263.601 256.67 263.824 256.906C264.049 257.143 264.335 257.261 264.683 257.261C264.891 257.261 265.103 257.208 265.319 257.102C265.537 256.995 265.719 256.832 265.866 256.612C266.015 256.391 266.089 256.111 266.089 255.77ZM269.3 254.719V258H268.462V252.545H269.272V253.398H269.343C269.471 253.121 269.665 252.898 269.925 252.73C270.186 252.56 270.522 252.474 270.934 252.474C271.303 252.474 271.626 252.55 271.903 252.702C272.18 252.851 272.396 253.078 272.55 253.384C272.704 253.687 272.781 254.07 272.781 254.534V258H271.942V254.591C271.942 254.162 271.831 253.829 271.609 253.589C271.386 253.348 271.081 253.227 270.692 253.227C270.425 253.227 270.186 253.285 269.975 253.401C269.767 253.517 269.602 253.687 269.482 253.909C269.361 254.132 269.3 254.402 269.3 254.719Z" fill="#201E29"/>
<path d="M297.858 250.727H298.739V255.926C298.739 256.39 298.654 256.784 298.483 257.109C298.313 257.433 298.072 257.679 297.762 257.847C297.452 258.015 297.086 258.099 296.665 258.099C296.267 258.099 295.913 258.027 295.603 257.883C295.293 257.736 295.049 257.528 294.872 257.258C294.694 256.988 294.605 256.667 294.605 256.295H295.472C295.472 256.501 295.523 256.681 295.624 256.835C295.729 256.987 295.871 257.105 296.051 257.19C296.231 257.276 296.435 257.318 296.665 257.318C296.918 257.318 297.134 257.265 297.311 257.158C297.489 257.052 297.624 256.896 297.716 256.69C297.811 256.481 297.858 256.227 297.858 255.926V250.727ZM303.828 255.77V252.545H304.666V258H303.828V257.077H303.771C303.643 257.354 303.444 257.589 303.174 257.783C302.904 257.975 302.563 258.071 302.151 258.071C301.811 258.071 301.508 257.996 301.242 257.847C300.977 257.696 300.769 257.469 300.617 257.165C300.466 256.86 300.39 256.475 300.39 256.011V252.545H301.228V255.955C301.228 256.352 301.339 256.67 301.562 256.906C301.787 257.143 302.073 257.261 302.421 257.261C302.63 257.261 302.842 257.208 303.057 257.102C303.275 256.995 303.457 256.832 303.604 256.612C303.753 256.391 303.828 256.111 303.828 255.77ZM307.039 250.727V258H306.201V250.727H307.039Z" fill="#201E29"/>
<path d="M328.848 258H327.925L330.595 250.727H331.504L334.175 258H333.251L331.078 251.878H331.021L328.848 258ZM329.189 255.159H332.91V255.94H329.189V255.159ZM338.631 255.77V252.545H339.469V258H338.631V257.077H338.574C338.447 257.354 338.248 257.589 337.978 257.783C337.708 257.975 337.367 258.071 336.955 258.071C336.614 258.071 336.311 257.996 336.046 257.847C335.781 257.696 335.573 257.469 335.421 257.165C335.27 256.86 335.194 256.475 335.194 256.011V252.545H336.032V255.955C336.032 256.352 336.143 256.67 336.366 256.906C336.591 257.143 336.877 257.261 337.225 257.261C337.433 257.261 337.645 257.208 337.861 257.102C338.079 256.995 338.261 256.832 338.408 256.612C338.557 256.391 338.631 256.111 338.631 255.77ZM343.206 260.159C342.801 260.159 342.453 260.107 342.162 260.003C341.871 259.901 341.628 259.766 341.434 259.598C341.242 259.432 341.09 259.255 340.976 259.065L341.644 258.597C341.719 258.696 341.815 258.81 341.931 258.938C342.047 259.068 342.206 259.18 342.407 259.275C342.611 259.372 342.877 259.42 343.206 259.42C343.646 259.42 344.01 259.314 344.296 259.101C344.583 258.888 344.726 258.554 344.726 258.099V256.991H344.655C344.593 257.091 344.506 257.214 344.392 257.361C344.281 257.505 344.12 257.634 343.909 257.748C343.701 257.859 343.419 257.915 343.064 257.915C342.624 257.915 342.228 257.811 341.878 257.602C341.53 257.394 341.254 257.091 341.051 256.693C340.849 256.295 340.749 255.812 340.749 255.244C340.749 254.686 340.847 254.199 341.043 253.785C341.24 253.368 341.513 253.046 341.864 252.819C342.214 252.589 342.619 252.474 343.078 252.474C343.433 252.474 343.715 252.534 343.923 252.652C344.134 252.768 344.295 252.901 344.406 253.05C344.52 253.196 344.608 253.317 344.669 253.412H344.754V252.545H345.564V258.156C345.564 258.625 345.457 259.006 345.244 259.3C345.034 259.596 344.75 259.812 344.392 259.95C344.037 260.089 343.642 260.159 343.206 260.159ZM343.178 257.162C343.514 257.162 343.798 257.085 344.03 256.931C344.262 256.777 344.438 256.556 344.559 256.267C344.68 255.978 344.74 255.633 344.74 255.23C344.74 254.837 344.681 254.49 344.563 254.19C344.444 253.889 344.269 253.653 344.037 253.483C343.805 253.312 343.519 253.227 343.178 253.227C342.823 253.227 342.527 253.317 342.29 253.497C342.055 253.677 341.879 253.919 341.761 254.222C341.645 254.525 341.587 254.861 341.587 255.23C341.587 255.609 341.646 255.944 341.764 256.235C341.885 256.524 342.063 256.751 342.297 256.917C342.534 257.08 342.827 257.162 343.178 257.162Z" fill="#201E29"/>
<path d="M368.712 252.545C368.67 252.186 368.497 251.906 368.194 251.707C367.891 251.509 367.519 251.409 367.079 251.409C366.757 251.409 366.475 251.461 366.234 251.565C365.995 251.67 365.808 251.813 365.673 251.995C365.54 252.177 365.474 252.384 365.474 252.616C365.474 252.811 365.52 252.978 365.612 253.117C365.707 253.254 365.828 253.369 365.975 253.462C366.121 253.552 366.275 253.626 366.436 253.685C366.597 253.742 366.745 253.788 366.88 253.824L367.619 254.023C367.808 254.072 368.019 254.141 368.251 254.229C368.485 254.316 368.709 254.436 368.922 254.587C369.137 254.737 369.315 254.928 369.455 255.163C369.594 255.397 369.664 255.685 369.664 256.026C369.664 256.419 369.561 256.774 369.355 257.091C369.152 257.408 368.853 257.66 368.46 257.847C368.07 258.034 367.595 258.128 367.036 258.128C366.515 258.128 366.064 258.044 365.683 257.876C365.305 257.708 365.006 257.473 364.788 257.173C364.573 256.872 364.451 256.523 364.423 256.125H365.332C365.355 256.4 365.448 256.627 365.609 256.807C365.772 256.984 365.978 257.117 366.227 257.205C366.478 257.29 366.747 257.332 367.036 257.332C367.372 257.332 367.674 257.278 367.942 257.169C368.209 257.058 368.421 256.904 368.578 256.707C368.734 256.509 368.812 256.277 368.812 256.011C368.812 255.77 368.744 255.573 368.609 255.422C368.475 255.27 368.297 255.147 368.077 255.053C367.857 254.958 367.619 254.875 367.363 254.804L366.468 254.548C365.9 254.385 365.45 254.152 365.119 253.849C364.787 253.546 364.622 253.149 364.622 252.659C364.622 252.252 364.732 251.897 364.952 251.594C365.174 251.288 365.473 251.052 365.847 250.884C366.223 250.713 366.643 250.628 367.107 250.628C367.576 250.628 367.993 250.712 368.357 250.88C368.722 251.046 369.011 251.273 369.224 251.562C369.439 251.851 369.553 252.179 369.565 252.545H368.712ZM373.285 258.114C372.76 258.114 372.306 257.998 371.925 257.766C371.547 257.531 371.254 257.205 371.048 256.786C370.845 256.364 370.743 255.874 370.743 255.315C370.743 254.757 370.845 254.264 371.048 253.838C371.254 253.41 371.541 253.076 371.908 252.837C372.277 252.595 372.708 252.474 373.2 252.474C373.484 252.474 373.765 252.522 374.042 252.616C374.319 252.711 374.571 252.865 374.798 253.078C375.025 253.289 375.207 253.568 375.342 253.916C375.476 254.264 375.544 254.693 375.544 255.202V255.557H371.339V254.832H374.692C374.692 254.525 374.63 254.25 374.507 254.009C374.386 253.767 374.213 253.576 373.989 253.437C373.766 253.297 373.503 253.227 373.2 253.227C372.866 253.227 372.578 253.31 372.334 253.476C372.092 253.639 371.906 253.852 371.776 254.115C371.646 254.378 371.581 254.66 371.581 254.96V255.443C371.581 255.855 371.652 256.204 371.794 256.491C371.938 256.775 372.138 256.991 372.394 257.141C372.65 257.287 372.947 257.361 373.285 257.361C373.506 257.361 373.704 257.33 373.882 257.268C374.062 257.205 374.217 257.11 374.347 256.984C374.477 256.857 374.578 256.698 374.649 256.509L375.459 256.736C375.373 257.01 375.23 257.252 375.029 257.46C374.828 257.666 374.579 257.827 374.283 257.943C373.987 258.057 373.655 258.114 373.285 258.114ZM376.819 260.045V252.545H377.628V253.412H377.728C377.789 253.317 377.875 253.196 377.984 253.05C378.095 252.901 378.253 252.768 378.459 252.652C378.668 252.534 378.949 252.474 379.305 252.474C379.764 252.474 380.169 252.589 380.519 252.819C380.869 253.049 381.143 253.374 381.339 253.795C381.536 254.217 381.634 254.714 381.634 255.287C381.634 255.865 381.536 256.365 381.339 256.789C381.143 257.21 380.871 257.537 380.523 257.769C380.175 257.999 379.773 258.114 379.319 258.114C378.968 258.114 378.688 258.056 378.477 257.94C378.266 257.821 378.104 257.687 377.991 257.538C377.877 257.387 377.789 257.261 377.728 257.162H377.657V260.045H376.819ZM377.643 255.273C377.643 255.685 377.703 256.048 377.824 256.363C377.945 256.675 378.121 256.92 378.353 257.098C378.585 257.273 378.869 257.361 379.205 257.361C379.556 257.361 379.848 257.268 380.082 257.084C380.319 256.897 380.497 256.646 380.615 256.331C380.736 256.014 380.796 255.661 380.796 255.273C380.796 254.889 380.737 254.544 380.619 254.236C380.503 253.926 380.326 253.681 380.089 253.501C379.855 253.318 379.56 253.227 379.205 253.227C378.864 253.227 378.578 253.314 378.346 253.487C378.114 253.657 377.939 253.896 377.82 254.204C377.702 254.509 377.643 254.866 377.643 255.273Z" fill="#201E29"/>
<path d="M407.599 254.364C407.599 255.131 407.461 255.794 407.184 256.352C406.907 256.911 406.527 257.342 406.044 257.645C405.561 257.948 405.009 258.099 404.389 258.099C403.769 258.099 403.217 257.948 402.734 257.645C402.251 257.342 401.871 256.911 401.594 256.352C401.317 255.794 401.179 255.131 401.179 254.364C401.179 253.597 401.317 252.934 401.594 252.375C401.871 251.816 402.251 251.385 402.734 251.082C403.217 250.779 403.769 250.628 404.389 250.628C405.009 250.628 405.561 250.779 406.044 251.082C406.527 251.385 406.907 251.816 407.184 252.375C407.461 252.934 407.599 253.597 407.599 254.364ZM406.747 254.364C406.747 253.734 406.641 253.202 406.431 252.769C406.222 252.336 405.94 252.008 405.582 251.786C405.227 251.563 404.829 251.452 404.389 251.452C403.949 251.452 403.55 251.563 403.192 251.786C402.837 252.008 402.554 252.336 402.343 252.769C402.135 253.202 402.031 253.734 402.031 254.364C402.031 254.993 402.135 255.525 402.343 255.958C402.554 256.391 402.837 256.719 403.192 256.942C403.55 257.164 403.949 257.276 404.389 257.276C404.829 257.276 405.227 257.164 405.582 256.942C405.94 256.719 406.222 256.391 406.431 255.958C406.641 255.525 406.747 254.993 406.747 254.364ZM411.182 258.114C410.671 258.114 410.23 257.993 409.861 257.751C409.492 257.51 409.208 257.177 409.009 256.754C408.81 256.33 408.711 255.846 408.711 255.301C408.711 254.747 408.812 254.258 409.016 253.835C409.222 253.408 409.508 253.076 409.875 252.837C410.245 252.595 410.676 252.474 411.168 252.474C411.551 252.474 411.897 252.545 412.205 252.688C412.513 252.83 412.765 253.028 412.961 253.284C413.158 253.54 413.28 253.838 413.327 254.179H412.489C412.425 253.93 412.283 253.71 412.063 253.518C411.845 253.324 411.551 253.227 411.182 253.227C410.855 253.227 410.569 253.312 410.323 253.483C410.079 253.651 409.888 253.889 409.751 254.197C409.616 254.502 409.549 254.861 409.549 255.273C409.549 255.694 409.615 256.061 409.748 256.374C409.882 256.686 410.072 256.929 410.316 257.102C410.562 257.274 410.851 257.361 411.182 257.361C411.4 257.361 411.598 257.323 411.775 257.247C411.953 257.171 412.103 257.062 412.226 256.92C412.349 256.778 412.437 256.608 412.489 256.409H413.327C413.28 256.731 413.163 257.021 412.975 257.279C412.791 257.535 412.546 257.738 412.24 257.89C411.937 258.039 411.585 258.114 411.182 258.114ZM416.924 252.545V253.256H414.098V252.545H416.924ZM414.922 251.239H415.76V256.438C415.76 256.674 415.794 256.852 415.863 256.97C415.934 257.086 416.024 257.164 416.132 257.205C416.244 257.242 416.361 257.261 416.484 257.261C416.576 257.261 416.652 257.257 416.711 257.247C416.77 257.235 416.818 257.226 416.853 257.219L417.024 257.972C416.967 257.993 416.888 258.014 416.786 258.036C416.684 258.059 416.555 258.071 416.399 258.071C416.162 258.071 415.93 258.02 415.703 257.918C415.478 257.817 415.291 257.661 415.142 257.453C414.995 257.245 414.922 256.982 414.922 256.665V251.239Z" fill="#201E29"/>
<path d="M234.289 289.927L231.372 289.978L231.207 280.525L234.253 280.472C235.17 280.456 235.958 280.631 236.617 280.998C237.276 281.362 237.785 281.894 238.145 282.592C238.505 283.288 238.694 284.125 238.711 285.103C238.728 286.088 238.568 286.939 238.229 287.656C237.891 288.37 237.389 288.923 236.725 289.317C236.061 289.707 235.249 289.91 234.289 289.927ZM232.499 288.943L234.197 288.913C234.979 288.899 235.624 288.737 236.133 288.427C236.641 288.116 237.017 287.68 237.259 287.119C237.502 286.557 237.617 285.892 237.603 285.123C237.59 284.36 237.454 283.705 237.195 283.158C236.936 282.609 236.556 282.191 236.056 281.904C235.555 281.614 234.935 281.476 234.197 281.489L232.369 281.52L232.499 288.943ZM243.449 289.915C242.809 289.926 242.245 289.784 241.756 289.487C241.271 289.191 240.888 288.772 240.608 288.229C240.33 287.685 240.185 287.048 240.173 286.315C240.16 285.577 240.282 284.93 240.54 284.374C240.802 283.819 241.17 283.385 241.644 283.071C242.122 282.758 242.681 282.596 243.321 282.585C243.961 282.574 244.524 282.716 245.009 283.013C245.498 283.309 245.881 283.73 246.158 284.276C246.438 284.822 246.585 285.465 246.598 286.203C246.611 286.936 246.486 287.578 246.225 288.13C245.967 288.683 245.599 289.116 245.121 289.429C244.646 289.742 244.089 289.904 243.449 289.915ZM243.432 288.936C243.918 288.928 244.316 288.796 244.626 288.542C244.935 288.287 245.162 287.955 245.305 287.546C245.449 287.137 245.517 286.696 245.508 286.222C245.5 285.748 245.417 285.308 245.259 284.901C245.101 284.495 244.863 284.168 244.545 283.921C244.227 283.674 243.824 283.555 243.338 283.564C242.852 283.572 242.454 283.705 242.145 283.963C241.835 284.221 241.609 284.556 241.465 284.968C241.321 285.38 241.254 285.822 241.262 286.296C241.27 286.77 241.353 287.209 241.511 287.613C241.669 288.016 241.907 288.34 242.225 288.584C242.544 288.827 242.946 288.945 243.432 288.936ZM251.205 289.78C250.54 289.791 249.965 289.644 249.479 289.339C248.994 289.033 248.617 288.607 248.349 288.061C248.081 287.515 247.941 286.888 247.928 286.18C247.916 285.46 248.037 284.822 248.292 284.267C248.55 283.708 248.915 283.269 249.386 282.95C249.861 282.628 250.418 282.461 251.058 282.45C251.557 282.441 252.008 282.526 252.411 282.703C252.814 282.881 253.146 283.134 253.408 283.462C253.669 283.79 253.834 284.175 253.903 284.617L252.814 284.636C252.725 284.314 252.536 284.031 252.245 283.787C251.958 283.539 251.574 283.42 251.094 283.428C250.669 283.436 250.299 283.553 249.983 283.78C249.669 284.004 249.427 284.318 249.256 284.721C249.087 285.121 249.008 285.589 249.017 286.124C249.027 286.672 249.121 287.147 249.3 287.55C249.483 287.954 249.735 288.265 250.055 288.484C250.379 288.703 250.757 288.809 251.188 288.801C251.471 288.796 251.727 288.742 251.956 288.64C252.185 288.537 252.378 288.392 252.535 288.205C252.691 288.018 252.801 287.794 252.865 287.534L253.954 287.515C253.9 287.935 253.754 288.315 253.517 288.654C253.283 288.991 252.969 289.261 252.575 289.465C252.185 289.666 251.728 289.77 251.205 289.78ZM258.542 282.412L258.558 283.335L254.884 283.399L254.868 282.476L258.542 282.412ZM255.909 280.759L256.998 280.74L257.116 287.497C257.122 287.805 257.17 288.035 257.262 288.187C257.357 288.336 257.476 288.436 257.618 288.486C257.764 288.532 257.917 288.554 258.077 288.552C258.197 288.549 258.295 288.542 258.372 288.528C258.448 288.511 258.51 288.498 258.556 288.488L258.794 289.462C258.721 289.491 258.618 289.521 258.487 289.551C258.355 289.584 258.187 289.602 257.984 289.606C257.677 289.611 257.374 289.55 257.076 289.423C256.781 289.296 256.535 289.099 256.336 288.831C256.141 288.564 256.039 288.224 256.032 287.812L255.909 280.759ZM263.111 289.572C262.471 289.583 261.907 289.44 261.418 289.144C260.933 288.848 260.55 288.428 260.27 287.885C259.993 287.342 259.847 286.705 259.835 285.972C259.822 285.234 259.944 284.587 260.203 284.031C260.464 283.476 260.832 283.041 261.306 282.728C261.784 282.415 262.343 282.253 262.983 282.242C263.623 282.231 264.186 282.373 264.671 282.67C265.16 282.966 265.543 283.387 265.82 283.933C266.1 284.479 266.247 285.121 266.26 285.86C266.273 286.592 266.148 287.235 265.887 287.787C265.629 288.34 265.261 288.772 264.783 289.085C264.309 289.399 263.751 289.561 263.111 289.572ZM263.094 288.593C263.58 288.585 263.978 288.453 264.288 288.198C264.597 287.944 264.824 287.612 264.967 287.203C265.111 286.794 265.179 286.353 265.171 285.879C265.162 285.405 265.079 284.965 264.921 284.558C264.763 284.152 264.525 283.825 264.207 283.578C263.889 283.331 263.486 283.212 263 283.22C262.514 283.229 262.116 283.362 261.807 283.62C261.497 283.878 261.271 284.213 261.127 284.624C260.983 285.036 260.916 285.479 260.924 285.953C260.932 286.427 261.015 286.866 261.173 287.269C261.331 287.673 261.569 287.997 261.887 288.24C262.206 288.484 262.608 288.602 263.094 288.593ZM267.984 289.339L267.86 282.249L268.913 282.231L268.931 283.302L269.005 283.3C269.128 282.947 269.357 282.659 269.692 282.434C270.026 282.21 270.406 282.094 270.831 282.086C270.911 282.085 271.011 282.085 271.131 282.086C271.251 282.087 271.342 282.09 271.403 282.095L271.423 283.203C271.386 283.194 271.301 283.182 271.168 283.166C271.039 283.146 270.901 283.138 270.757 283.14C270.412 283.146 270.106 283.224 269.837 283.374C269.572 283.52 269.363 283.72 269.211 283.975C269.061 284.227 268.989 284.513 268.995 284.833L269.073 289.32L267.984 289.339Z" fill="#201E29"/>
<rect x="206" y="276" width="16" height="16" fill="#517DEE"/>
<path d="M305.372 290.025L305.207 280.572L306.351 280.552L306.499 288.989L310.893 288.913L310.911 289.928L305.372 290.025ZM314.625 290.03C314.175 290.037 313.766 289.96 313.397 289.797C313.028 289.631 312.733 289.389 312.512 289.069C312.29 288.747 312.176 288.355 312.168 287.893C312.161 287.487 312.235 287.156 312.391 286.901C312.546 286.643 312.757 286.439 313.022 286.29C313.287 286.141 313.58 286.028 313.902 285.951C314.227 285.872 314.554 285.808 314.882 285.759C315.312 285.696 315.661 285.648 315.928 285.616C316.198 285.58 316.394 285.526 316.516 285.453C316.641 285.38 316.702 285.256 316.699 285.081L316.698 285.044C316.69 284.588 316.56 284.237 316.306 283.989C316.055 283.741 315.679 283.621 315.178 283.63C314.658 283.639 314.252 283.76 313.96 283.993C313.669 284.226 313.466 284.472 313.35 284.733L312.31 284.382C312.487 283.948 312.727 283.608 313.031 283.363C313.337 283.114 313.673 282.939 314.037 282.837C314.405 282.732 314.767 282.677 315.124 282.67C315.352 282.666 315.614 282.69 315.91 282.74C316.21 282.787 316.499 282.891 316.779 283.052C317.062 283.214 317.299 283.46 317.489 283.793C317.68 284.125 317.78 284.572 317.79 285.136L317.871 289.807L316.782 289.826L316.765 288.866L316.71 288.867C316.638 289.022 316.518 289.189 316.349 289.367C316.18 289.545 315.953 289.699 315.669 289.827C315.385 289.955 315.037 290.022 314.625 290.03ZM314.774 289.048C315.204 289.041 315.566 288.95 315.858 288.775C316.154 288.601 316.375 288.378 316.521 288.108C316.67 287.838 316.742 287.555 316.737 287.259L316.72 286.262C316.674 286.319 316.574 286.371 316.418 286.42C316.264 286.466 316.087 286.507 315.884 286.545C315.685 286.579 315.49 286.61 315.299 286.638C315.112 286.663 314.96 286.684 314.843 286.701C314.561 286.743 314.297 286.808 314.053 286.895C313.811 286.98 313.616 287.105 313.468 287.27C313.323 287.433 313.253 287.653 313.258 287.93C313.265 288.308 313.41 288.592 313.693 288.781C313.98 288.967 314.34 289.056 314.774 289.048ZM320.007 289.769L319.842 280.316L320.931 280.297L320.992 283.787L321.085 283.785C321.162 283.661 321.271 283.502 321.409 283.309C321.55 283.112 321.753 282.936 322.018 282.781C322.286 282.622 322.651 282.539 323.113 282.531C323.71 282.52 324.239 282.661 324.699 282.951C325.16 283.242 325.523 283.659 325.788 284.202C326.053 284.745 326.191 285.389 326.204 286.134C326.218 286.885 326.101 287.538 325.855 288.093C325.61 288.645 325.263 289.076 324.816 289.385C324.369 289.692 323.85 289.85 323.259 289.86C322.804 289.868 322.438 289.799 322.161 289.653C321.885 289.504 321.671 289.334 321.52 289.143C321.369 288.948 321.252 288.787 321.17 288.66L321.04 288.662L321.059 289.751L320.007 289.769ZM321.016 286.206C321.025 286.741 321.112 287.212 321.276 287.619C321.44 288.022 321.675 288.337 321.981 288.562C322.286 288.785 322.657 288.892 323.094 288.884C323.55 288.877 323.928 288.75 324.228 288.505C324.532 288.256 324.757 287.926 324.903 287.514C325.053 287.099 325.124 286.639 325.115 286.134C325.106 285.636 325.021 285.188 324.861 284.791C324.703 284.39 324.468 284.076 324.156 283.847C323.847 283.615 323.462 283.504 323.001 283.512C322.557 283.519 322.187 283.638 321.889 283.868C321.592 284.095 321.369 284.41 321.223 284.812C321.076 285.212 321.007 285.677 321.016 286.206ZM330.815 289.729C330.175 289.74 329.611 289.597 329.122 289.301C328.637 289.005 328.254 288.585 327.974 288.042C327.697 287.499 327.552 286.861 327.539 286.129C327.526 285.39 327.648 284.743 327.907 284.188C328.168 283.632 328.536 283.198 329.01 282.885C329.488 282.572 330.047 282.41 330.687 282.399C331.327 282.388 331.89 282.53 332.375 282.826C332.864 283.123 333.247 283.544 333.524 284.09C333.804 284.636 333.951 285.278 333.964 286.017C333.977 286.749 333.852 287.392 333.591 287.944C333.333 288.496 332.965 288.929 332.487 289.242C332.013 289.555 331.455 289.717 330.815 289.729ZM330.798 288.75C331.284 288.742 331.682 288.61 331.992 288.355C332.301 288.1 332.528 287.769 332.671 287.36C332.815 286.951 332.883 286.51 332.875 286.036C332.866 285.562 332.783 285.122 332.625 284.715C332.467 284.308 332.229 283.982 331.911 283.735C331.593 283.488 331.19 283.369 330.704 283.377C330.218 283.386 329.82 283.519 329.511 283.777C329.201 284.034 328.975 284.369 328.831 284.781C328.688 285.193 328.62 285.636 328.628 286.11C328.636 286.584 328.719 287.023 328.877 287.426C329.035 287.83 329.273 288.153 329.591 288.397C329.91 288.641 330.312 288.758 330.798 288.75ZM335.688 289.496L335.564 282.406L336.617 282.388L336.635 283.458L336.709 283.457C336.832 283.104 337.061 282.815 337.396 282.591C337.731 282.367 338.11 282.251 338.535 282.243C338.615 282.242 338.715 282.242 338.835 282.243C338.955 282.244 339.046 282.247 339.108 282.252L339.127 283.36C339.09 283.351 339.005 283.339 338.872 283.322C338.743 283.303 338.606 283.295 338.461 283.297C338.116 283.303 337.81 283.381 337.542 283.53C337.276 283.677 337.067 283.877 336.915 284.132C336.765 284.384 336.693 284.67 336.699 284.99L336.777 289.477L335.688 289.496ZM342.613 289.541C342.164 289.549 341.755 289.471 341.386 289.309C341.017 289.143 340.721 288.9 340.5 288.581C340.279 288.258 340.165 287.866 340.157 287.405C340.15 286.998 340.224 286.668 340.379 286.413C340.535 286.154 340.745 285.951 341.011 285.801C341.276 285.652 341.569 285.539 341.891 285.463C342.216 285.383 342.543 285.319 342.871 285.27C343.301 285.207 343.65 285.16 343.917 285.127C344.187 285.092 344.383 285.038 344.505 284.965C344.63 284.892 344.691 284.768 344.688 284.592L344.687 284.555C344.679 284.1 344.548 283.748 344.295 283.5C344.044 283.252 343.668 283.132 343.167 283.141C342.647 283.15 342.241 283.271 341.949 283.504C341.658 283.737 341.454 283.984 341.339 284.244L340.299 283.893C340.476 283.459 340.716 283.119 341.02 282.874C341.326 282.625 341.662 282.45 342.026 282.349C342.394 282.244 342.756 282.188 343.113 282.182C343.341 282.178 343.603 282.201 343.899 282.251C344.198 282.298 344.488 282.403 344.768 282.564C345.051 282.725 345.288 282.972 345.478 283.304C345.668 283.636 345.769 284.084 345.778 284.647L345.86 289.318L344.771 289.337L344.754 288.377L344.699 288.378C344.627 288.533 344.507 288.7 344.338 288.878C344.169 289.057 343.942 289.21 343.658 289.338C343.374 289.466 343.026 289.534 342.613 289.541ZM342.762 288.56C343.193 288.552 343.555 288.461 343.847 288.287C344.143 288.112 344.364 287.89 344.51 287.62C344.659 287.349 344.731 287.066 344.726 286.771L344.708 285.774C344.663 285.83 344.563 285.883 344.407 285.931C344.253 285.977 344.076 286.019 343.873 286.056C343.674 286.09 343.479 286.122 343.288 286.15C343.101 286.174 342.949 286.195 342.832 286.213C342.55 286.255 342.286 286.319 342.042 286.407C341.8 286.491 341.605 286.616 341.457 286.782C341.312 286.944 341.242 287.164 341.247 287.441C341.254 287.82 341.399 288.103 341.682 288.292C341.968 288.478 342.329 288.567 342.762 288.56ZM350.808 282.14L350.824 283.063L347.15 283.127L347.134 282.204L350.808 282.14ZM348.175 280.487L349.264 280.468L349.382 287.225C349.388 287.533 349.436 287.763 349.528 287.915C349.623 288.064 349.742 288.164 349.884 288.214C350.03 288.26 350.182 288.282 350.342 288.28C350.462 288.277 350.561 288.27 350.638 288.256C350.714 288.239 350.776 288.226 350.822 288.216L351.06 289.19C350.987 289.219 350.884 289.249 350.752 289.279C350.621 289.312 350.453 289.33 350.25 289.334C349.942 289.339 349.64 289.278 349.342 289.151C349.047 289.024 348.801 288.827 348.602 288.559C348.407 288.292 348.305 287.952 348.298 287.54L348.175 280.487ZM352.57 289.201L352.446 282.111L353.499 282.093L353.518 283.164L353.591 283.162C353.714 282.809 353.943 282.521 354.278 282.296C354.613 282.072 354.992 281.956 355.417 281.949C355.497 281.947 355.597 281.947 355.717 281.948C355.837 281.949 355.928 281.952 355.99 281.957L356.009 283.065C355.972 283.056 355.887 283.044 355.754 283.028C355.625 283.008 355.488 283 355.343 283.003C354.998 283.009 354.692 283.086 354.424 283.236C354.159 283.382 353.95 283.582 353.797 283.838C353.648 284.09 353.576 284.375 353.581 284.696L353.66 289.182L352.57 289.201ZM360.073 289.218C359.433 289.229 358.869 289.086 358.381 288.79C357.895 288.494 357.512 288.074 357.232 287.531C356.955 286.988 356.81 286.351 356.797 285.618C356.784 284.88 356.907 284.233 357.165 283.677C357.426 283.122 357.794 282.687 358.269 282.374C358.746 282.061 359.305 281.899 359.945 281.888C360.586 281.877 361.148 282.019 361.634 282.316C362.122 282.612 362.505 283.033 362.782 283.579C363.063 284.125 363.209 284.768 363.222 285.506C363.235 286.238 363.111 286.881 362.85 287.433C362.591 287.986 362.223 288.418 361.746 288.732C361.271 289.045 360.713 289.207 360.073 289.218ZM360.056 288.239C360.543 288.231 360.94 288.099 361.25 287.844C361.559 287.59 361.786 287.258 361.93 286.849C362.073 286.44 362.141 285.999 362.133 285.525C362.125 285.051 362.041 284.611 361.884 284.204C361.726 283.798 361.488 283.471 361.169 283.224C360.851 282.977 360.449 282.858 359.963 282.867C359.476 282.875 359.079 283.008 358.769 283.266C358.46 283.524 358.233 283.859 358.089 284.271C357.946 284.682 357.878 285.125 357.886 285.599C357.895 286.073 357.978 286.512 358.136 286.915C358.293 287.319 358.531 287.643 358.85 287.886C359.168 288.13 359.57 288.248 360.056 288.239ZM365.44 291.636C365.256 291.639 365.091 291.627 364.946 291.598C364.801 291.573 364.7 291.547 364.644 291.521L364.904 290.556C365.17 290.619 365.405 290.639 365.607 290.617C365.81 290.595 365.988 290.501 366.143 290.335C366.3 290.173 366.441 289.91 366.567 289.548L366.761 288.99L364.015 281.909L365.196 281.889L367.252 287.504L367.326 287.503L369.184 281.819L370.366 281.798L367.498 289.975C367.369 290.343 367.207 290.649 367.011 290.893C366.815 291.139 366.586 291.323 366.324 291.445C366.064 291.567 365.77 291.63 365.44 291.636Z" fill="#201E29"/>
<rect x="280" y="276.047" width="16" height="16" fill="#EE6F57"/>
<path d="M56.875 238.099C56.34 238.099 55.8842 237.954 55.5078 237.663C55.1314 237.369 54.8438 236.944 54.6449 236.388C54.446 235.829 54.3466 235.154 54.3466 234.364C54.3466 233.578 54.446 232.906 54.6449 232.35C54.8461 231.791 55.1349 231.365 55.5114 231.072C55.8902 230.776 56.3447 230.628 56.875 230.628C57.4053 230.628 57.8587 230.776 58.2351 231.072C58.6139 231.365 58.9027 231.791 59.1016 232.35C59.3028 232.906 59.4034 233.578 59.4034 234.364C59.4034 235.154 59.304 235.829 59.1051 236.388C58.9062 236.944 58.6186 237.369 58.2422 237.663C57.8658 237.954 57.41 238.099 56.875 238.099ZM56.875 237.318C57.4053 237.318 57.8172 237.062 58.1108 236.551C58.4044 236.04 58.5511 235.311 58.5511 234.364C58.5511 233.734 58.4837 233.198 58.3487 232.755C58.2161 232.312 58.0244 231.975 57.7734 231.743C57.5249 231.511 57.2254 231.395 56.875 231.395C56.3494 231.395 55.9387 231.654 55.6428 232.173C55.3468 232.689 55.1989 233.419 55.1989 234.364C55.1989 234.993 55.2652 235.528 55.3977 235.969C55.5303 236.409 55.7209 236.744 55.9695 236.974C56.2204 237.203 56.5223 237.318 56.875 237.318Z" fill="#201E29"/>
<line x1="64" y1="233.5" x2="506" y2="233.5" stroke="#8492A6" stroke-opacity="0.3"/>
<path d="M44.4416 200.099C44.0249 200.099 43.6497 200.017 43.3159 199.851C42.9821 199.685 42.7145 199.458 42.5133 199.169C42.3121 198.88 42.202 198.551 42.1831 198.182H43.0353C43.0685 198.511 43.2176 198.783 43.4828 198.999C43.7503 199.212 44.0699 199.318 44.4416 199.318C44.7399 199.318 45.005 199.248 45.237 199.109C45.4714 198.969 45.6549 198.777 45.7875 198.533C45.9224 198.287 45.9899 198.009 45.9899 197.699C45.9899 197.382 45.92 197.099 45.7804 196.85C45.6431 196.599 45.4537 196.402 45.2122 196.257C44.9707 196.113 44.6949 196.039 44.3848 196.037C44.1622 196.035 43.9338 196.069 43.6994 196.14C43.465 196.209 43.2721 196.297 43.1206 196.406L42.2967 196.307L42.737 192.727H46.5154V193.509H43.4757L43.22 195.653H43.2626C43.4118 195.535 43.5988 195.437 43.8237 195.359C44.0486 195.281 44.283 195.241 44.5268 195.241C44.9719 195.241 45.3684 195.348 45.7164 195.561C46.0668 195.772 46.3414 196.061 46.5403 196.428C46.7415 196.795 46.8422 197.214 46.8422 197.685C46.8422 198.149 46.738 198.563 46.5297 198.928C46.3237 199.29 46.0396 199.576 45.6774 199.787C45.3152 199.995 44.9032 200.099 44.4416 200.099ZM50.625 200.099C50.09 200.099 49.6342 199.954 49.2578 199.663C48.8814 199.369 48.5938 198.944 48.3949 198.388C48.196 197.829 48.0966 197.154 48.0966 196.364C48.0966 195.578 48.196 194.906 48.3949 194.35C48.5961 193.791 48.8849 193.365 49.2614 193.072C49.6402 192.776 50.0947 192.628 50.625 192.628C51.1553 192.628 51.6087 192.776 51.9851 193.072C52.3639 193.365 52.6527 193.791 52.8516 194.35C53.0528 194.906 53.1534 195.578 53.1534 196.364C53.1534 197.154 53.054 197.829 52.8551 198.388C52.6562 198.944 52.3686 199.369 51.9922 199.663C51.6158 199.954 51.16 200.099 50.625 200.099ZM50.625 199.318C51.1553 199.318 51.5672 199.062 51.8608 198.551C52.1544 198.04 52.3011 197.311 52.3011 196.364C52.3011 195.734 52.2337 195.198 52.0987 194.755C51.9661 194.312 51.7744 193.975 51.5234 193.743C51.2749 193.511 50.9754 193.395 50.625 193.395C50.0994 193.395 49.6887 193.654 49.3928 194.173C49.0968 194.689 48.9489 195.419 48.9489 196.364C48.9489 196.993 49.0152 197.528 49.1477 197.969C49.2803 198.409 49.4709 198.744 49.7195 198.974C49.9704 199.203 50.2723 199.318 50.625 199.318ZM56.875 200.099C56.34 200.099 55.8842 199.954 55.5078 199.663C55.1314 199.369 54.8438 198.944 54.6449 198.388C54.446 197.829 54.3466 197.154 54.3466 196.364C54.3466 195.578 54.446 194.906 54.6449 194.35C54.8461 193.791 55.1349 193.365 55.5114 193.072C55.8902 192.776 56.3447 192.628 56.875 192.628C57.4053 192.628 57.8587 192.776 58.2351 193.072C58.6139 193.365 58.9027 193.791 59.1016 194.35C59.3028 194.906 59.4034 195.578 59.4034 196.364C59.4034 197.154 59.304 197.829 59.1051 198.388C58.9062 198.944 58.6186 199.369 58.2422 199.663C57.8658 199.954 57.41 200.099 56.875 200.099ZM56.875 199.318C57.4053 199.318 57.8172 199.062 58.1108 198.551C58.4044 198.04 58.5511 197.311 58.5511 196.364C58.5511 195.734 58.4837 195.198 58.3487 194.755C58.2161 194.312 58.0244 193.975 57.7734 193.743C57.5249 193.511 57.2254 193.395 56.875 193.395C56.3494 193.395 55.9387 193.654 55.6428 194.173C55.3468 194.689 55.1989 195.419 55.1989 196.364C55.1989 196.993 55.2652 197.528 55.3977 197.969C55.5303 198.409 55.7209 198.744 55.9695 198.974C56.2204 199.203 56.5223 199.318 56.875 199.318Z" fill="#201E29"/>
<line x1="64" y1="195.5" x2="506" y2="195.5" stroke="#8492A6" stroke-opacity="0.3"/>
<path d="M39.9112 154.727V162H39.0305V155.651H38.9879L37.2124 156.83V155.935L39.0305 154.727H39.9112ZM44.375 162.099C43.84 162.099 43.3842 161.954 43.0078 161.663C42.6314 161.369 42.3438 160.944 42.1449 160.388C41.946 159.829 41.8466 159.154 41.8466 158.364C41.8466 157.578 41.946 156.906 42.1449 156.35C42.3461 155.791 42.6349 155.365 43.0114 155.072C43.3902 154.776 43.8447 154.628 44.375 154.628C44.9053 154.628 45.3587 154.776 45.7351 155.072C46.1139 155.365 46.4027 155.791 46.6016 156.35C46.8028 156.906 46.9034 157.578 46.9034 158.364C46.9034 159.154 46.804 159.829 46.6051 160.388C46.4062 160.944 46.1186 161.369 45.7422 161.663C45.3658 161.954 44.91 162.099 44.375 162.099ZM44.375 161.318C44.9053 161.318 45.3172 161.062 45.6108 160.551C45.9044 160.04 46.0511 159.311 46.0511 158.364C46.0511 157.734 45.9837 157.198 45.8487 156.755C45.7161 156.312 45.5244 155.975 45.2734 155.743C45.0249 155.511 44.7254 155.395 44.375 155.395C43.8494 155.395 43.4387 155.654 43.1428 156.173C42.8468 156.689 42.6989 157.419 42.6989 158.364C42.6989 158.993 42.7652 159.528 42.8977 159.969C43.0303 160.409 43.2209 160.744 43.4695 160.974C43.7204 161.203 44.0223 161.318 44.375 161.318ZM50.625 162.099C50.09 162.099 49.6342 161.954 49.2578 161.663C48.8814 161.369 48.5938 160.944 48.3949 160.388C48.196 159.829 48.0966 159.154 48.0966 158.364C48.0966 157.578 48.196 156.906 48.3949 156.35C48.5961 155.791 48.8849 155.365 49.2614 155.072C49.6402 154.776 50.0947 154.628 50.625 154.628C51.1553 154.628 51.6087 154.776 51.9851 155.072C52.3639 155.365 52.6527 155.791 52.8516 156.35C53.0528 156.906 53.1534 157.578 53.1534 158.364C53.1534 159.154 53.054 159.829 52.8551 160.388C52.6562 160.944 52.3686 161.369 51.9922 161.663C51.6158 161.954 51.16 162.099 50.625 162.099ZM50.625 161.318C51.1553 161.318 51.5672 161.062 51.8608 160.551C52.1544 160.04 52.3011 159.311 52.3011 158.364C52.3011 157.734 52.2337 157.198 52.0987 156.755C51.9661 156.312 51.7744 155.975 51.5234 155.743C51.2749 155.511 50.9754 155.395 50.625 155.395C50.0994 155.395 49.6887 155.654 49.3928 156.173C49.0968 156.689 48.9489 157.419 48.9489 158.364C48.9489 158.993 49.0152 159.528 49.1477 159.969C49.2803 160.409 49.4709 160.744 49.7195 160.974C49.9704 161.203 50.2723 161.318 50.625 161.318ZM56.875 162.099C56.34 162.099 55.8842 161.954 55.5078 161.663C55.1314 161.369 54.8438 160.944 54.6449 160.388C54.446 159.829 54.3466 159.154 54.3466 158.364C54.3466 157.578 54.446 156.906 54.6449 156.35C54.8461 155.791 55.1349 155.365 55.5114 155.072C55.8902 154.776 56.3447 154.628 56.875 154.628C57.4053 154.628 57.8587 154.776 58.2351 155.072C58.6139 155.365 58.9027 155.791 59.1016 156.35C59.3028 156.906 59.4034 157.578 59.4034 158.364C59.4034 159.154 59.304 159.829 59.1051 160.388C58.9062 160.944 58.6186 161.369 58.2422 161.663C57.8658 161.954 57.41 162.099 56.875 162.099ZM56.875 161.318C57.4053 161.318 57.8172 161.062 58.1108 160.551C58.4044 160.04 58.5511 159.311 58.5511 158.364C58.5511 157.734 58.4837 157.198 58.3487 156.755C58.2161 156.312 58.0244 155.975 57.7734 155.743C57.5249 155.511 57.2254 155.395 56.875 155.395C56.3494 155.395 55.9387 155.654 55.6428 156.173C55.3468 156.689 55.1989 157.419 55.1989 158.364C55.1989 158.993 55.2652 159.528 55.3977 159.969C55.5303 160.409 55.7209 160.744 55.9695 160.974C56.2204 161.203 56.5223 161.318 56.875 161.318Z" fill="#201E29"/>
<line x1="64" y1="157.5" x2="506" y2="157.5" stroke="#8492A6" stroke-opacity="0.3"/>
<path d="M40.0772 116.727V124H39.1966V117.651H39.1539L37.3784 118.83V117.935L39.1966 116.727H40.0772ZM44.4416 124.099C44.0249 124.099 43.6497 124.017 43.3159 123.851C42.9821 123.685 42.7145 123.458 42.5133 123.169C42.3121 122.88 42.202 122.551 42.1831 122.182H43.0353C43.0685 122.511 43.2176 122.783 43.4828 122.999C43.7503 123.212 44.0699 123.318 44.4416 123.318C44.7399 123.318 45.005 123.248 45.237 123.109C45.4714 122.969 45.6549 122.777 45.7875 122.533C45.9224 122.287 45.9899 122.009 45.9899 121.699C45.9899 121.382 45.92 121.099 45.7804 120.85C45.6431 120.599 45.4537 120.402 45.2122 120.257C44.9707 120.113 44.6949 120.039 44.3848 120.037C44.1622 120.035 43.9338 120.069 43.6994 120.14C43.465 120.209 43.2721 120.297 43.1206 120.406L42.2967 120.307L42.737 116.727H46.5154V117.509H43.4757L43.22 119.653H43.2626C43.4118 119.535 43.5988 119.437 43.8237 119.359C44.0486 119.281 44.283 119.241 44.5268 119.241C44.9719 119.241 45.3684 119.348 45.7164 119.561C46.0668 119.772 46.3414 120.061 46.5403 120.428C46.7415 120.795 46.8422 121.214 46.8422 121.685C46.8422 122.149 46.738 122.563 46.5297 122.928C46.3237 123.29 46.0396 123.576 45.6774 123.787C45.3152 123.995 44.9032 124.099 44.4416 124.099ZM50.625 124.099C50.09 124.099 49.6342 123.954 49.2578 123.663C48.8814 123.369 48.5938 122.944 48.3949 122.388C48.196 121.829 48.0966 121.154 48.0966 120.364C48.0966 119.578 48.196 118.906 48.3949 118.35C48.5961 117.791 48.8849 117.365 49.2614 117.072C49.6402 116.776 50.0947 116.628 50.625 116.628C51.1553 116.628 51.6087 116.776 51.9851 117.072C52.3639 117.365 52.6527 117.791 52.8516 118.35C53.0528 118.906 53.1534 119.578 53.1534 120.364C53.1534 121.154 53.054 121.829 52.8551 122.388C52.6562 122.944 52.3686 123.369 51.9922 123.663C51.6158 123.954 51.16 124.099 50.625 124.099ZM50.625 123.318C51.1553 123.318 51.5672 123.062 51.8608 122.551C52.1544 122.04 52.3011 121.311 52.3011 120.364C52.3011 119.734 52.2337 119.198 52.0987 118.755C51.9661 118.312 51.7744 117.975 51.5234 117.743C51.2749 117.511 50.9754 117.395 50.625 117.395C50.0994 117.395 49.6887 117.654 49.3928 118.173C49.0968 118.689 48.9489 119.419 48.9489 120.364C48.9489 120.993 49.0152 121.528 49.1477 121.969C49.2803 122.409 49.4709 122.744 49.7195 122.974C49.9704 123.203 50.2723 123.318 50.625 123.318ZM56.875 124.099C56.34 124.099 55.8842 123.954 55.5078 123.663C55.1314 123.369 54.8438 122.944 54.6449 122.388C54.446 121.829 54.3466 121.154 54.3466 120.364C54.3466 119.578 54.446 118.906 54.6449 118.35C54.8461 117.791 55.1349 117.365 55.5114 117.072C55.8902 116.776 56.3447 116.628 56.875 116.628C57.4053 116.628 57.8587 116.776 58.2351 117.072C58.6139 117.365 58.9027 117.791 59.1016 118.35C59.3028 118.906 59.4034 119.578 59.4034 120.364C59.4034 121.154 59.304 121.829 59.1051 122.388C58.9062 122.944 58.6186 123.369 58.2422 123.663C57.8658 123.954 57.41 124.099 56.875 124.099ZM56.875 123.318C57.4053 123.318 57.8172 123.062 58.1108 122.551C58.4044 122.04 58.5511 121.311 58.5511 120.364C58.5511 119.734 58.4837 119.198 58.3487 118.755C58.2161 118.312 58.0244 117.975 57.7734 117.743C57.5249 117.511 57.2254 117.395 56.875 117.395C56.3494 117.395 55.9387 117.654 55.6428 118.173C55.3468 118.689 55.1989 119.419 55.1989 120.364C55.1989 120.993 55.2652 121.528 55.3977 121.969C55.5303 122.409 55.7209 122.744 55.9695 122.974C56.2204 123.203 56.5223 123.318 56.875 123.318Z" fill="#201E29"/>
<line x1="64" y1="119.5" x2="506" y2="119.5" stroke="#8492A6" stroke-opacity="0.3"/>
<path d="M35.9482 86V85.3608L38.3487 82.733C38.6304 82.4252 38.8625 82.1577 39.0447 81.9304C39.227 81.7008 39.362 81.4853 39.4496 81.2841C39.5395 81.0805 39.5845 80.8674 39.5845 80.6449C39.5845 80.3892 39.523 80.1679 39.3999 79.9808C39.2791 79.7938 39.1134 79.6494 38.9027 79.5476C38.692 79.4458 38.4553 79.3949 38.1925 79.3949C37.9131 79.3949 37.6693 79.4529 37.4609 79.5689C37.255 79.6825 37.0952 79.8423 36.9815 80.0483C36.8703 80.2543 36.8146 80.4957 36.8146 80.7727H35.9766C35.9766 80.3466 36.0748 79.9725 36.2713 79.6506C36.4678 79.3286 36.7353 79.0777 37.0739 78.8977C37.4148 78.7178 37.7971 78.6278 38.2209 78.6278C38.647 78.6278 39.0246 78.7178 39.3537 78.8977C39.6828 79.0777 39.9408 79.3203 40.1278 79.6257C40.3149 79.9311 40.4084 80.2708 40.4084 80.6449C40.4084 80.9124 40.3598 81.174 40.2628 81.4297C40.1681 81.683 40.0024 81.9659 39.7656 82.2784C39.5312 82.5885 39.2057 82.9673 38.7891 83.4148L37.1555 85.1619V85.2188H40.5362V86H35.9482ZM44.375 86.0994C43.84 86.0994 43.3842 85.9538 43.0078 85.6626C42.6314 85.3691 42.3438 84.9441 42.1449 84.3878C41.946 83.8291 41.8466 83.1544 41.8466 82.3636C41.8466 81.5777 41.946 80.9065 42.1449 80.3501C42.3461 79.7914 42.6349 79.3653 43.0114 79.0717C43.3902 78.7758 43.8447 78.6278 44.375 78.6278C44.9053 78.6278 45.3587 78.7758 45.7351 79.0717C46.1139 79.3653 46.4027 79.7914 46.6016 80.3501C46.8028 80.9065 46.9034 81.5777 46.9034 82.3636C46.9034 83.1544 46.804 83.8291 46.6051 84.3878C46.4062 84.9441 46.1186 85.3691 45.7422 85.6626C45.3658 85.9538 44.91 86.0994 44.375 86.0994ZM44.375 85.3182C44.9053 85.3182 45.3172 85.0625 45.6108 84.5511C45.9044 84.0398 46.0511 83.3106 46.0511 82.3636C46.0511 81.7339 45.9837 81.1977 45.8487 80.755C45.7161 80.3123 45.5244 79.9749 45.2734 79.7429C45.0249 79.5109 44.7254 79.3949 44.375 79.3949C43.8494 79.3949 43.4387 79.6541 43.1428 80.1726C42.8468 80.6887 42.6989 81.419 42.6989 82.3636C42.6989 82.9934 42.7652 83.5284 42.8977 83.9688C43.0303 84.4091 43.2209 84.7441 43.4695 84.9737C43.7204 85.2034 44.0223 85.3182 44.375 85.3182ZM50.625 86.0994C50.09 86.0994 49.6342 85.9538 49.2578 85.6626C48.8814 85.3691 48.5938 84.9441 48.3949 84.3878C48.196 83.8291 48.0966 83.1544 48.0966 82.3636C48.0966 81.5777 48.196 80.9065 48.3949 80.3501C48.5961 79.7914 48.8849 79.3653 49.2614 79.0717C49.6402 78.7758 50.0947 78.6278 50.625 78.6278C51.1553 78.6278 51.6087 78.7758 51.9851 79.0717C52.3639 79.3653 52.6527 79.7914 52.8516 80.3501C53.0528 80.9065 53.1534 81.5777 53.1534 82.3636C53.1534 83.1544 53.054 83.8291 52.8551 84.3878C52.6562 84.9441 52.3686 85.3691 51.9922 85.6626C51.6158 85.9538 51.16 86.0994 50.625 86.0994ZM50.625 85.3182C51.1553 85.3182 51.5672 85.0625 51.8608 84.5511C52.1544 84.0398 52.3011 83.3106 52.3011 82.3636C52.3011 81.7339 52.2337 81.1977 52.0987 80.755C51.9661 80.3123 51.7744 79.9749 51.5234 79.7429C51.2749 79.5109 50.9754 79.3949 50.625 79.3949C50.0994 79.3949 49.6887 79.6541 49.3928 80.1726C49.0968 80.6887 48.9489 81.419 48.9489 82.3636C48.9489 82.9934 49.0152 83.5284 49.1477 83.9688C49.2803 84.4091 49.4709 84.7441 49.7195 84.9737C49.9704 85.2034 50.2723 85.3182 50.625 85.3182ZM56.875 86.0994C56.34 86.0994 55.8842 85.9538 55.5078 85.6626C55.1314 85.3691 54.8438 84.9441 54.6449 84.3878C54.446 83.8291 54.3466 83.1544 54.3466 82.3636C54.3466 81.5777 54.446 80.9065 54.6449 80.3501C54.8461 79.7914 55.1349 79.3653 55.5114 79.0717C55.8902 78.7758 56.3447 78.6278 56.875 78.6278C57.4053 78.6278 57.8587 78.7758 58.2351 79.0717C58.6139 79.3653 58.9027 79.7914 59.1016 80.3501C59.3028 80.9065 59.4034 81.5777 59.4034 82.3636C59.4034 83.1544 59.304 83.8291 59.1051 84.3878C58.9062 84.9441 58.6186 85.3691 58.2422 85.6626C57.8658 85.9538 57.41 86.0994 56.875 86.0994ZM56.875 85.3182C57.4053 85.3182 57.8172 85.0625 58.1108 84.5511C58.4044 84.0398 58.5511 83.3106 58.5511 82.3636C58.5511 81.7339 58.4837 81.1977 58.3487 80.755C58.2161 80.3123 58.0244 79.9749 57.7734 79.7429C57.5249 79.5109 57.2254 79.3949 56.875 79.3949C56.3494 79.3949 55.9387 79.6541 55.6428 80.1726C55.3468 80.6887 55.1989 81.419 55.1989 82.3636C55.1989 82.9934 55.2652 83.5284 55.3977 83.9688C55.5303 84.4091 55.7209 84.7441 55.9695 84.9737C56.2204 85.2034 56.5223 85.3182 56.875 85.3182Z" fill="#201E29"/>
<line x1="64" y1="81.5" x2="506" y2="81.5" stroke="#8492A6" stroke-opacity="0.3"/>
<path d="M36.1142 48V47.3608L38.5147 44.733C38.7965 44.4252 39.0285 44.1577 39.2108 43.9304C39.3931 43.7008 39.528 43.4853 39.6156 43.2841C39.7056 43.0805 39.7505 42.8674 39.7505 42.6449C39.7505 42.3892 39.689 42.1679 39.5659 41.9808C39.4451 41.7938 39.2794 41.6494 39.0687 41.5476C38.858 41.4458 38.6213 41.3949 38.3585 41.3949C38.0791 41.3949 37.8353 41.4529 37.627 41.5689C37.421 41.6825 37.2612 41.8423 37.1475 42.0483C37.0363 42.2543 36.9806 42.4957 36.9806 42.7727H36.1426C36.1426 42.3466 36.2408 41.9725 36.4373 41.6506C36.6338 41.3286 36.9013 41.0777 37.2399 40.8977C37.5808 40.7178 37.9631 40.6278 38.3869 40.6278C38.813 40.6278 39.1906 40.7178 39.5197 40.8977C39.8488 41.0777 40.1068 41.3203 40.2939 41.6257C40.4809 41.9311 40.5744 42.2708 40.5744 42.6449C40.5744 42.9124 40.5259 43.174 40.4288 43.4297C40.3341 43.683 40.1684 43.9659 39.9316 44.2784C39.6973 44.5885 39.3717 44.9673 38.9551 45.4148L37.3216 47.1619V47.2188H40.7022V48H36.1142ZM44.4416 48.0994C44.0249 48.0994 43.6497 48.0166 43.3159 47.8509C42.9821 47.6851 42.7145 47.4579 42.5133 47.169C42.3121 46.8802 42.202 46.5511 42.1831 46.1818H43.0353C43.0685 46.5109 43.2176 46.7831 43.4828 46.9986C43.7503 47.2116 44.0699 47.3182 44.4416 47.3182C44.7399 47.3182 45.005 47.2483 45.237 47.1087C45.4714 46.969 45.6549 46.7772 45.7875 46.5334C45.9224 46.2872 45.9899 46.009 45.9899 45.6989C45.9899 45.3816 45.92 45.0987 45.7804 44.8501C45.6431 44.5992 45.4537 44.4015 45.2122 44.2571C44.9707 44.1127 44.6949 44.0393 44.3848 44.0369C44.1622 44.0346 43.9338 44.0689 43.6994 44.1399C43.465 44.2086 43.2721 44.2973 43.1206 44.4062L42.2967 44.3068L42.737 40.7273H46.5154V41.5085H43.4757L43.22 43.6534H43.2626C43.4118 43.535 43.5988 43.4368 43.8237 43.3587C44.0486 43.2805 44.283 43.2415 44.5268 43.2415C44.9719 43.2415 45.3684 43.348 45.7164 43.5611C46.0668 43.7718 46.3414 44.0606 46.5403 44.4276C46.7415 44.7945 46.8422 45.2135 46.8422 45.6847C46.8422 46.1487 46.738 46.563 46.5297 46.9276C46.3237 47.2898 46.0396 47.5762 45.6774 47.7869C45.3152 47.9953 44.9032 48.0994 44.4416 48.0994ZM50.625 48.0994C50.09 48.0994 49.6342 47.9538 49.2578 47.6626C48.8814 47.3691 48.5938 46.9441 48.3949 46.3878C48.196 45.8291 48.0966 45.1544 48.0966 44.3636C48.0966 43.5777 48.196 42.9065 48.3949 42.3501C48.5961 41.7914 48.8849 41.3653 49.2614 41.0717C49.6402 40.7758 50.0947 40.6278 50.625 40.6278C51.1553 40.6278 51.6087 40.7758 51.9851 41.0717C52.3639 41.3653 52.6527 41.7914 52.8516 42.3501C53.0528 42.9065 53.1534 43.5777 53.1534 44.3636C53.1534 45.1544 53.054 45.8291 52.8551 46.3878C52.6562 46.9441 52.3686 47.3691 51.9922 47.6626C51.6158 47.9538 51.16 48.0994 50.625 48.0994ZM50.625 47.3182C51.1553 47.3182 51.5672 47.0625 51.8608 46.5511C52.1544 46.0398 52.3011 45.3106 52.3011 44.3636C52.3011 43.7339 52.2337 43.1977 52.0987 42.755C51.9661 42.3123 51.7744 41.9749 51.5234 41.7429C51.2749 41.5109 50.9754 41.3949 50.625 41.3949C50.0994 41.3949 49.6887 41.6541 49.3928 42.1726C49.0968 42.6887 48.9489 43.419 48.9489 44.3636C48.9489 44.9934 49.0152 45.5284 49.1477 45.9688C49.2803 46.4091 49.4709 46.7441 49.7195 46.9737C49.9704 47.2034 50.2723 47.3182 50.625 47.3182ZM56.875 48.0994C56.34 48.0994 55.8842 47.9538 55.5078 47.6626C55.1314 47.3691 54.8438 46.9441 54.6449 46.3878C54.446 45.8291 54.3466 45.1544 54.3466 44.3636C54.3466 43.5777 54.446 42.9065 54.6449 42.3501C54.8461 41.7914 55.1349 41.3653 55.5114 41.0717C55.8902 40.7758 56.3447 40.6278 56.875 40.6278C57.4053 40.6278 57.8587 40.7758 58.2351 41.0717C58.6139 41.3653 58.9027 41.7914 59.1016 42.3501C59.3028 42.9065 59.4034 43.5777 59.4034 44.3636C59.4034 45.1544 59.304 45.8291 59.1051 46.3878C58.9062 46.9441 58.6186 47.3691 58.2422 47.6626C57.8658 47.9538 57.41 48.0994 56.875 48.0994ZM56.875 47.3182C57.4053 47.3182 57.8172 47.0625 58.1108 46.5511C58.4044 46.0398 58.5511 45.3106 58.5511 44.3636C58.5511 43.7339 58.4837 43.1977 58.3487 42.755C58.2161 42.3123 58.0244 41.9749 57.7734 41.7429C57.5249 41.5109 57.2254 41.3949 56.875 41.3949C56.3494 41.3949 55.9387 41.6541 55.6428 42.1726C55.3468 42.6887 55.1989 43.419 55.1989 44.3636C55.1989 44.9934 55.2652 45.5284 55.3977 45.9688C55.5303 46.4091 55.7209 46.7441 55.9695 46.9737C56.2204 47.2034 56.5223 47.3182 56.875 47.3182Z" fill="#201E29"/>
<line x1="64" y1="43.5" x2="506" y2="43.5" stroke="#8492A6" stroke-opacity="0.3"/>
<path d="M38.093 10.0994C37.6243 10.0994 37.2064 10.0189 36.8395 9.85795C36.4749 9.69697 36.1849 9.47325 35.9695 9.18679C35.7564 8.89796 35.6404 8.56297 35.6214 8.18182H36.5163C36.5353 8.41619 36.6158 8.61861 36.7578 8.78906C36.8999 8.95715 37.0857 9.08736 37.3153 9.17969C37.545 9.27202 37.7995 9.31818 38.0788 9.31818C38.3913 9.31818 38.6683 9.26373 38.9098 9.15483C39.1513 9.04593 39.3407 8.89441 39.478 8.70028C39.6153 8.50616 39.6839 8.28125 39.6839 8.02557C39.6839 7.75805 39.6177 7.52249 39.4851 7.31889C39.3525 7.11293 39.1584 6.95194 38.9027 6.83594C38.647 6.71993 38.3345 6.66193 37.9652 6.66193H37.3828V5.88068H37.9652C38.254 5.88068 38.5073 5.8286 38.7251 5.72443C38.9453 5.62026 39.117 5.47348 39.2401 5.28409C39.3655 5.0947 39.4283 4.87216 39.4283 4.61648C39.4283 4.37026 39.3738 4.15601 39.2649 3.97372C39.156 3.79143 39.0021 3.64938 38.8033 3.54759C38.6068 3.44579 38.3748 3.39489 38.1072 3.39489C37.8563 3.39489 37.6196 3.44105 37.397 3.53338C37.1768 3.62334 36.9969 3.75473 36.8572 3.92756C36.7176 4.09801 36.6418 4.30398 36.63 4.54545H35.7777C35.7919 4.1643 35.9067 3.83049 36.1222 3.54403C36.3376 3.25521 36.6193 3.0303 36.9673 2.86932C37.3177 2.70833 37.7024 2.62784 38.1214 2.62784C38.5713 2.62784 38.9571 2.71899 39.2791 2.90128C39.6011 3.0812 39.8485 3.31913 40.0213 3.61506C40.1941 3.91098 40.2805 4.23059 40.2805 4.57386C40.2805 4.98343 40.1728 5.33262 39.9574 5.62145C39.7443 5.91027 39.4543 6.11032 39.0874 6.22159V6.27841C39.5466 6.35417 39.9053 6.54948 40.1634 6.86435C40.4214 7.17685 40.5504 7.56392 40.5504 8.02557C40.5504 8.42093 40.4427 8.77604 40.2273 9.09091C40.0142 9.40341 39.723 9.64962 39.3537 9.82955C38.9844 10.0095 38.5642 10.0994 38.093 10.0994ZM44.375 10.0994C43.84 10.0994 43.3842 9.95384 43.0078 9.66264C42.6314 9.36908 42.3438 8.94413 42.1449 8.38778C41.946 7.82907 41.8466 7.15436 41.8466 6.36364C41.8466 5.57765 41.946 4.90649 42.1449 4.35014C42.3461 3.79143 42.6349 3.36529 43.0114 3.07173C43.3902 2.7758 43.8447 2.62784 44.375 2.62784C44.9053 2.62784 45.3587 2.7758 45.7351 3.07173C46.1139 3.36529 46.4027 3.79143 46.6016 4.35014C46.8028 4.90649 46.9034 5.57765 46.9034 6.36364C46.9034 7.15436 46.804 7.82907 46.6051 8.38778C46.4062 8.94413 46.1186 9.36908 45.7422 9.66264C45.3658 9.95384 44.91 10.0994 44.375 10.0994ZM44.375 9.31818C44.9053 9.31818 45.3172 9.0625 45.6108 8.55114C45.9044 8.03977 46.0511 7.31061 46.0511 6.36364C46.0511 5.7339 45.9837 5.19768 45.8487 4.75497C45.7161 4.31226 45.5244 3.97491 45.2734 3.7429C45.0249 3.51089 44.7254 3.39489 44.375 3.39489C43.8494 3.39489 43.4387 3.65412 43.1428 4.17259C42.8468 4.68868 42.6989 5.41903 42.6989 6.36364C42.6989 6.99337 42.7652 7.52841 42.8977 7.96875C43.0303 8.40909 43.2209 8.74408 43.4695 8.97372C43.7204 9.20336 44.0223 9.31818 44.375 9.31818ZM50.625 10.0994C50.09 10.0994 49.6342 9.95384 49.2578 9.66264C48.8814 9.36908 48.5938 8.94413 48.3949 8.38778C48.196 7.82907 48.0966 7.15436 48.0966 6.36364C48.0966 5.57765 48.196 4.90649 48.3949 4.35014C48.5961 3.79143 48.8849 3.36529 49.2614 3.07173C49.6402 2.7758 50.0947 2.62784 50.625 2.62784C51.1553 2.62784 51.6087 2.7758 51.9851 3.07173C52.3639 3.36529 52.6527 3.79143 52.8516 4.35014C53.0528 4.90649 53.1534 5.57765 53.1534 6.36364C53.1534 7.15436 53.054 7.82907 52.8551 8.38778C52.6562 8.94413 52.3686 9.36908 51.9922 9.66264C51.6158 9.95384 51.16 10.0994 50.625 10.0994ZM50.625 9.31818C51.1553 9.31818 51.5672 9.0625 51.8608 8.55114C52.1544 8.03977 52.3011 7.31061 52.3011 6.36364C52.3011 5.7339 52.2337 5.19768 52.0987 4.75497C51.9661 4.31226 51.7744 3.97491 51.5234 3.7429C51.2749 3.51089 50.9754 3.39489 50.625 3.39489C50.0994 3.39489 49.6887 3.65412 49.3928 4.17259C49.0968 4.68868 48.9489 5.41903 48.9489 6.36364C48.9489 6.99337 49.0152 7.52841 49.1477 7.96875C49.2803 8.40909 49.4709 8.74408 49.7195 8.97372C49.9704 9.20336 50.2723 9.31818 50.625 9.31818ZM56.875 10.0994C56.34 10.0994 55.8842 9.95384 55.5078 9.66264C55.1314 9.36908 54.8438 8.94413 54.6449 8.38778C54.446 7.82907 54.3466 7.15436 54.3466 6.36364C54.3466 5.57765 54.446 4.90649 54.6449 4.35014C54.8461 3.79143 55.1349 3.36529 55.5114 3.07173C55.8902 2.7758 56.3447 2.62784 56.875 2.62784C57.4053 2.62784 57.8587 2.7758 58.2351 3.07173C58.6139 3.36529 58.9027 3.79143 59.1016 4.35014C59.3028 4.90649 59.4034 5.57765 59.4034 6.36364C59.4034 7.15436 59.304 7.82907 59.1051 8.38778C58.9062 8.94413 58.6186 9.36908 58.2422 9.66264C57.8658 9.95384 57.41 10.0994 56.875 10.0994ZM56.875 9.31818C57.4053 9.31818 57.8172 9.0625 58.1108 8.55114C58.4044 8.03977 58.5511 7.31061 58.5511 6.36364C58.5511 5.7339 58.4837 5.19768 58.3487 4.75497C58.2161 4.31226 58.0244 3.97491 57.7734 3.7429C57.5249 3.51089 57.2254 3.39489 56.875 3.39489C56.3494 3.39489 55.9387 3.65412 55.6428 4.17259C55.3468 4.68868 55.1989 5.41903 55.1989 6.36364C55.1989 6.99337 55.2652 7.52841 55.3977 7.96875C55.5303 8.40909 55.7209 8.74408 55.9695 8.97372C56.2204 9.20336 56.5223 9.31818 56.875 9.31818Z" fill="#201E29"/>
<line x1="64" y1="5.5" x2="506" y2="5.5" stroke="#8492A6" stroke-opacity="0.3"/>
<path d="M86 182L122.929 106L155.47 144L192.399 106L228.962 59L264.793 144L303.916 106L339.016 92L376.676 112L411.411 92L449.803 106L486 144" stroke="#517DEE" stroke-width="2"/>
<path d="M87 187L121.467 146.162L157.767 121.759L198.1 187L236.233 110.304L271.433 72.9526L303.333 121.759L336.7 72.9526L372.633 129.727L418.833 121.759L439.733 61L483 81.419" stroke="#EE6F57" stroke-width="2"/>
</svg>
