<svg width="506" height="294" viewBox="0 0 506 294" fill="none" xmlns="http://www.w3.org/2000/svg">
<path d="M408.359 255.215C408.359 255.982 408.221 256.645 407.944 257.204C407.667 257.763 407.287 258.193 406.804 258.496C406.321 258.799 405.769 258.951 405.149 258.951C404.529 258.951 403.977 258.799 403.494 258.496C403.011 258.193 402.631 257.763 402.354 257.204C402.077 256.645 401.939 255.982 401.939 255.215C401.939 254.448 402.077 253.785 402.354 253.227C402.631 252.668 403.011 252.237 403.494 251.934C403.977 251.631 404.529 251.479 405.149 251.479C405.769 251.479 406.321 251.631 406.804 251.934C407.287 252.237 407.667 252.668 407.944 253.227C408.221 253.785 408.359 254.448 408.359 255.215ZM407.507 255.215C407.507 254.585 407.402 254.054 407.191 253.621C406.983 253.188 406.7 252.86 406.342 252.637C405.987 252.415 405.59 252.303 405.149 252.303C404.709 252.303 404.31 252.415 403.952 252.637C403.597 252.86 403.314 253.188 403.104 253.621C402.895 254.054 402.791 254.585 402.791 255.215C402.791 255.845 402.895 256.376 403.104 256.81C403.314 257.243 403.597 257.571 403.952 257.793C404.31 258.016 404.709 258.127 405.149 258.127C405.59 258.127 405.987 258.016 406.342 257.793C406.7 257.571 406.983 257.243 407.191 256.81C407.402 256.376 407.507 255.845 407.507 255.215ZM411.943 258.965C411.431 258.965 410.991 258.844 410.621 258.603C410.252 258.362 409.968 258.029 409.769 257.605C409.57 257.181 409.471 256.697 409.471 256.153C409.471 255.599 409.573 255.11 409.776 254.686C409.982 254.26 410.269 253.927 410.636 253.688C411.005 253.447 411.436 253.326 411.928 253.326C412.312 253.326 412.657 253.397 412.965 253.539C413.273 253.681 413.525 253.88 413.722 254.136C413.918 254.391 414.04 254.69 414.087 255.031H413.249C413.185 254.782 413.043 254.562 412.823 254.37C412.605 254.176 412.312 254.079 411.943 254.079C411.616 254.079 411.329 254.164 411.083 254.335C410.839 254.503 410.649 254.741 410.511 255.048C410.376 255.354 410.309 255.712 410.309 256.124C410.309 256.546 410.375 256.913 410.508 257.225C410.643 257.538 410.832 257.78 411.076 257.953C411.322 258.126 411.611 258.212 411.943 258.212C412.16 258.212 412.358 258.174 412.536 258.099C412.713 258.023 412.863 257.914 412.987 257.772C413.11 257.63 413.197 257.46 413.249 257.261H414.087C414.04 257.583 413.923 257.873 413.736 258.131C413.551 258.386 413.306 258.59 413.001 258.741C412.698 258.891 412.345 258.965 411.943 258.965ZM417.685 253.397V254.107H414.858V253.397H417.685ZM415.682 252.09H416.52V257.289C416.52 257.526 416.554 257.703 416.623 257.822C416.694 257.938 416.784 258.016 416.893 258.056C417.004 258.094 417.121 258.113 417.244 258.113C417.337 258.113 417.412 258.108 417.472 258.099C417.531 258.087 417.578 258.077 417.614 258.07L417.784 258.823C417.727 258.844 417.648 258.866 417.546 258.887C417.444 258.911 417.315 258.923 417.159 258.923C416.922 258.923 416.69 258.872 416.463 258.77C416.238 258.668 416.051 258.513 415.902 258.305C415.755 258.096 415.682 257.834 415.682 257.516V252.09Z" fill="#201E29"/>
<path d="M442.693 251.579V258.852H441.841L437.878 253.141H437.807V258.852H436.926V251.579H437.778L441.756 257.303H441.827V251.579H442.693ZM446.558 258.965C446.065 258.965 445.633 258.848 445.262 258.614C444.892 258.379 444.603 258.051 444.395 257.63C444.189 257.209 444.086 256.716 444.086 256.153C444.086 255.585 444.189 255.089 444.395 254.665C444.603 254.241 444.892 253.912 445.262 253.678C445.633 253.443 446.065 253.326 446.558 253.326C447.05 253.326 447.481 253.443 447.85 253.678C448.222 253.912 448.511 254.241 448.717 254.665C448.925 255.089 449.029 255.585 449.029 256.153C449.029 256.716 448.925 257.209 448.717 257.63C448.511 258.051 448.222 258.379 447.85 258.614C447.481 258.848 447.05 258.965 446.558 258.965ZM446.558 258.212C446.932 258.212 447.24 258.116 447.481 257.925C447.723 257.733 447.901 257.481 448.017 257.168C448.133 256.856 448.191 256.517 448.191 256.153C448.191 255.788 448.133 255.448 448.017 255.134C447.901 254.819 447.723 254.564 447.481 254.37C447.24 254.176 446.932 254.079 446.558 254.079C446.184 254.079 445.876 254.176 445.634 254.37C445.393 254.564 445.214 254.819 445.098 255.134C444.982 255.448 444.924 255.788 444.924 256.153C444.924 256.517 444.982 256.856 445.098 257.168C445.214 257.481 445.393 257.733 445.634 257.925C445.876 258.116 446.184 258.212 446.558 258.212ZM454.574 253.397L452.557 258.852H451.704L449.687 253.397H450.596L452.102 257.744H452.159L453.664 253.397H454.574Z" fill="#201E29"/>
<path d="M475.024 258.852H472.78V251.579H475.123C475.829 251.579 476.433 251.724 476.935 252.016C477.436 252.304 477.821 252.72 478.089 253.262C478.356 253.802 478.49 254.448 478.49 255.201C478.49 255.959 478.355 256.611 478.085 257.158C477.815 257.702 477.422 258.121 476.906 258.415C476.39 258.706 475.763 258.852 475.024 258.852ZM473.66 258.07H474.967C475.569 258.07 476.067 257.954 476.462 257.722C476.858 257.49 477.152 257.16 477.346 256.732C477.541 256.303 477.638 255.793 477.638 255.201C477.638 254.614 477.542 254.108 477.35 253.685C477.158 253.259 476.872 252.932 476.491 252.705C476.109 252.475 475.635 252.36 475.067 252.36H473.66V258.07ZM482.14 258.965C481.615 258.965 481.162 258.849 480.78 258.617C480.402 258.383 480.109 258.056 479.903 257.637C479.7 257.216 479.598 256.726 479.598 256.167C479.598 255.608 479.7 255.116 479.903 254.69C480.109 254.261 480.396 253.927 480.763 253.688C481.132 253.447 481.563 253.326 482.055 253.326C482.339 253.326 482.62 253.373 482.897 253.468C483.174 253.563 483.426 253.717 483.653 253.93C483.881 254.14 484.062 254.42 484.197 254.768C484.332 255.116 484.399 255.544 484.399 256.053V256.408H480.194V255.684H483.547C483.547 255.376 483.485 255.102 483.362 254.86C483.241 254.619 483.069 254.428 482.844 254.288C482.621 254.149 482.358 254.079 482.055 254.079C481.721 254.079 481.433 254.162 481.189 254.327C480.947 254.491 480.761 254.704 480.631 254.967C480.501 255.229 480.436 255.511 480.436 255.812V256.295C480.436 256.707 480.507 257.056 480.649 257.342C480.793 257.626 480.993 257.843 481.249 257.992C481.505 258.139 481.802 258.212 482.14 258.212C482.361 258.212 482.56 258.182 482.737 258.12C482.917 258.056 483.072 257.961 483.202 257.836C483.332 257.708 483.433 257.549 483.504 257.36L484.314 257.587C484.229 257.862 484.085 258.103 483.884 258.312C483.683 258.518 483.434 258.679 483.138 258.795C482.842 258.908 482.51 258.965 482.14 258.965ZM487.89 258.965C487.378 258.965 486.938 258.844 486.569 258.603C486.199 258.362 485.915 258.029 485.716 257.605C485.518 257.181 485.418 256.697 485.418 256.153C485.418 255.599 485.52 255.11 485.724 254.686C485.93 254.26 486.216 253.927 486.583 253.688C486.952 253.447 487.383 253.326 487.876 253.326C488.259 253.326 488.605 253.397 488.913 253.539C489.22 253.681 489.472 253.88 489.669 254.136C489.865 254.391 489.987 254.69 490.035 255.031H489.197C489.133 254.782 488.991 254.562 488.77 254.37C488.553 254.176 488.259 254.079 487.89 254.079C487.563 254.079 487.277 254.164 487.03 254.335C486.787 254.503 486.596 254.741 486.459 255.048C486.324 255.354 486.256 255.712 486.256 256.124C486.256 256.546 486.323 256.913 486.455 257.225C486.59 257.538 486.779 257.78 487.023 257.953C487.27 258.126 487.558 258.212 487.89 258.212C488.108 258.212 488.305 258.174 488.483 258.099C488.66 258.023 488.811 257.914 488.934 257.772C489.057 257.63 489.145 257.46 489.197 257.261H490.035C489.987 257.583 489.87 257.873 489.683 258.131C489.498 258.386 489.253 258.59 488.948 258.741C488.645 258.891 488.292 258.965 487.89 258.965Z" fill="#201E29"/>
<rect x="399.84" y="170.246" width="7.93725" height="63.5209" fill="#517DEE"/>
<rect x="411.746" y="158.541" width="7.93725" height="75.2222" fill="#EDBB75"/>
<rect x="435.556" y="170.246" width="7.93725" height="63.5209" fill="#517DEE"/>
<rect x="447.462" y="158.541" width="7.93725" height="75.2222" fill="#EDBB75"/>
<rect x="471.275" y="170.246" width="7.93725" height="63.5209" fill="#517DEE"/>
<rect x="483.182" y="158.541" width="7.93725" height="75.2222" fill="#EDBB75"/>
<path d="M224.99 289.929L224.796 280.477L230.502 280.392L230.522 281.407L225.962 281.475L226.027 284.669L230.292 284.606L230.313 285.621L226.048 285.685L226.114 288.897L230.748 288.828L230.769 289.843L224.99 289.929ZM233.278 282.714L235.036 285.588L236.675 282.664L237.931 282.645L235.714 286.224L238.076 289.734L236.82 289.753L235.065 287.028L233.423 289.804L232.167 289.822L234.347 286.244L232.022 282.733L233.278 282.714ZM239.685 292.37L239.485 282.622L240.538 282.606L240.561 283.732L240.69 283.73C240.768 283.606 240.875 283.447 241.013 283.255C241.153 283.059 241.356 282.883 241.621 282.728C241.888 282.571 242.253 282.488 242.715 282.481C243.312 282.472 243.841 282.614 244.302 282.905C244.764 283.197 245.128 283.615 245.395 284.159C245.661 284.703 245.802 285.347 245.817 286.092C245.833 286.842 245.718 287.495 245.474 288.05C245.23 288.601 244.885 289.031 244.439 289.339C243.992 289.645 243.474 289.802 242.883 289.81C242.427 289.817 242.061 289.747 241.784 289.601C241.507 289.451 241.293 289.28 241.141 289.088C240.989 288.894 240.872 288.732 240.79 288.604L240.697 288.606L240.774 292.354L239.685 292.37ZM240.629 286.151C240.64 286.686 240.728 287.157 240.893 287.564C241.058 287.968 241.294 288.283 241.6 288.509C241.907 288.732 242.278 288.841 242.715 288.834C243.171 288.827 243.548 288.702 243.848 288.457C244.151 288.21 244.375 287.88 244.52 287.468C244.669 287.054 244.738 286.594 244.728 286.089C244.717 285.591 244.631 285.143 244.469 284.745C244.31 284.344 244.074 284.029 243.762 283.8C243.452 283.568 243.067 283.455 242.605 283.462C242.162 283.468 241.792 283.586 241.495 283.815C241.198 284.041 240.977 284.356 240.831 284.758C240.685 285.157 240.618 285.621 240.629 286.151ZM249.641 289.728C249.192 289.735 248.782 289.656 248.413 289.493C248.043 289.326 247.747 289.082 247.525 288.762C247.303 288.44 247.187 288.047 247.178 287.586C247.169 287.18 247.243 286.849 247.398 286.594C247.552 286.337 247.762 286.133 248.027 285.985C248.292 285.836 248.585 285.724 248.907 285.649C249.231 285.57 249.558 285.506 249.886 285.459C250.316 285.397 250.664 285.35 250.931 285.318C251.202 285.283 251.398 285.23 251.519 285.157C251.644 285.085 251.704 284.96 251.701 284.785L251.7 284.748C251.691 284.293 251.559 283.941 251.305 283.692C251.053 283.444 250.677 283.323 250.175 283.33C249.655 283.338 249.25 283.458 248.959 283.69C248.668 283.922 248.465 284.168 248.351 284.429L247.309 284.075C247.485 283.641 247.724 283.302 248.027 283.058C248.333 282.81 248.668 282.636 249.032 282.535C249.4 282.431 249.762 282.376 250.119 282.371C250.346 282.368 250.608 282.391 250.905 282.442C251.205 282.49 251.495 282.595 251.775 282.757C252.058 282.919 252.296 283.166 252.487 283.499C252.679 283.832 252.78 284.28 252.792 284.843L252.887 289.514L251.798 289.53L251.778 288.57L251.723 288.571C251.652 288.726 251.532 288.892 251.364 289.07C251.195 289.248 250.969 289.401 250.685 289.528C250.401 289.655 250.053 289.722 249.641 289.728ZM249.787 288.747C250.218 288.741 250.579 288.651 250.871 288.477C251.166 288.303 251.387 288.082 251.532 287.812C251.68 287.542 251.751 287.259 251.745 286.964L251.725 285.967C251.68 286.023 251.58 286.075 251.424 286.124C251.271 286.169 251.093 286.21 250.89 286.247C250.691 286.281 250.496 286.311 250.306 286.339C250.119 286.363 249.967 286.384 249.85 286.401C249.568 286.442 249.304 286.506 249.06 286.593C248.818 286.676 248.624 286.801 248.476 286.966C248.332 287.128 248.263 287.348 248.268 287.625C248.276 288.003 248.422 288.287 248.706 288.477C248.993 288.664 249.353 288.754 249.787 288.747ZM255.878 285.203L255.965 289.468L254.876 289.484L254.731 282.395L255.783 282.379L255.806 283.487L255.898 283.485C256.057 283.123 256.303 282.83 256.637 282.606C256.971 282.38 257.406 282.262 257.942 282.254C258.422 282.247 258.844 282.339 259.208 282.531C259.572 282.719 259.858 283.011 260.066 283.405C260.274 283.795 260.384 284.292 260.397 284.896L260.489 289.4L259.399 289.417L259.309 284.986C259.297 284.429 259.144 283.997 258.848 283.691C258.552 283.381 258.152 283.23 257.648 283.238C257.3 283.243 256.991 283.323 256.72 283.478C256.452 283.632 256.243 283.856 256.092 284.147C255.941 284.439 255.869 284.791 255.878 285.203ZM267.389 283.794L266.416 284.086C266.351 283.923 266.257 283.766 266.134 283.614C266.014 283.459 265.851 283.332 265.646 283.234C265.441 283.135 265.18 283.088 264.863 283.093C264.429 283.099 264.069 283.205 263.784 283.409C263.502 283.61 263.364 283.863 263.37 284.168C263.376 284.439 263.479 284.651 263.679 284.805C263.879 284.959 264.189 285.085 264.61 285.184L265.668 285.426C266.305 285.571 266.782 285.799 267.099 286.111C267.416 286.421 267.58 286.823 267.59 287.318C267.599 287.725 267.489 288.089 267.262 288.413C267.037 288.736 266.72 288.993 266.308 289.184C265.896 289.375 265.415 289.475 264.864 289.483C264.141 289.494 263.539 289.346 263.059 289.039C262.579 288.732 262.269 288.278 262.131 287.677L263.159 287.403C263.266 287.783 263.458 288.066 263.735 288.253C264.016 288.44 264.38 288.53 264.826 288.523C265.334 288.515 265.735 288.402 266.029 288.182C266.326 287.959 266.471 287.695 266.465 287.391C266.46 287.144 266.37 286.94 266.194 286.776C266.018 286.609 265.751 286.487 265.392 286.409L264.205 286.15C263.552 286.006 263.071 285.774 262.759 285.456C262.451 285.134 262.292 284.729 262.282 284.24C262.274 283.84 262.379 283.484 262.597 283.173C262.819 282.862 263.123 282.616 263.51 282.434C263.901 282.253 264.345 282.159 264.844 282.151C265.545 282.141 266.099 282.287 266.505 282.588C266.915 282.89 267.209 283.292 267.389 283.794ZM272.246 289.373C271.563 289.383 270.971 289.241 270.469 288.947C269.97 288.65 269.582 288.231 269.303 287.69C269.027 287.146 268.882 286.511 268.867 285.785C268.852 285.059 268.971 284.417 269.225 283.859C269.481 283.298 269.844 282.859 270.315 282.541C270.789 282.22 271.345 282.055 271.986 282.045C272.355 282.039 272.721 282.096 273.083 282.213C273.446 282.331 273.778 282.526 274.079 282.799C274.38 283.068 274.623 283.428 274.807 283.877C274.992 284.327 275.091 284.883 275.105 285.544L275.114 286.006L269.649 286.087L269.629 285.146L273.987 285.081C273.979 284.681 273.891 284.325 273.725 284.014C273.562 283.702 273.332 283.458 273.036 283.281C272.743 283.103 272.399 283.018 272.006 283.023C271.572 283.03 271.198 283.143 270.886 283.363C270.576 283.58 270.34 283.861 270.178 284.205C270.016 284.549 269.939 284.916 269.947 285.307L269.96 285.935C269.971 286.47 270.072 286.923 270.264 287.292C270.46 287.659 270.725 287.937 271.062 288.125C271.398 288.311 271.786 288.401 272.226 288.394C272.512 288.39 272.77 288.346 272.999 288.263C273.231 288.176 273.43 288.05 273.596 287.884C273.762 287.716 273.889 287.508 273.976 287.26L275.035 287.54C274.931 287.898 274.751 288.215 274.495 288.49C274.239 288.761 273.92 288.975 273.539 289.132C273.157 289.285 272.726 289.366 272.246 289.373Z" fill="#201E29"/>
<rect x="195.377" y="275.945" width="18.8007" height="16.0549" fill="#517DEE"/>
<path d="M322.106 289.927L321.943 280.474L327.648 280.373L327.666 281.389L323.105 281.469L323.161 284.663L327.426 284.588L327.443 285.604L323.178 285.679L323.234 288.891L327.868 288.81L327.885 289.825L322.106 289.927ZM331.816 289.922C331.367 289.93 330.958 289.852 330.589 289.69C330.219 289.524 329.924 289.281 329.703 288.962C329.482 288.639 329.368 288.248 329.36 287.786C329.353 287.38 329.427 287.049 329.583 286.794C329.738 286.536 329.949 286.332 330.214 286.183C330.479 286.033 330.773 285.92 331.095 285.844C331.42 285.764 331.746 285.7 332.075 285.651C332.505 285.588 332.853 285.54 333.121 285.508C333.391 285.472 333.587 285.418 333.709 285.345C333.834 285.272 333.895 285.148 333.892 284.973L333.891 284.936C333.883 284.48 333.752 284.129 333.499 283.881C333.248 283.633 332.872 283.513 332.371 283.522C331.851 283.531 331.445 283.652 331.153 283.885C330.862 284.118 330.658 284.365 330.543 284.625L329.502 284.274C329.68 283.84 329.92 283.501 330.224 283.255C330.53 283.006 330.866 282.831 331.23 282.729C331.598 282.624 331.96 282.569 332.317 282.562C332.545 282.558 332.807 282.582 333.103 282.632C333.403 282.679 333.692 282.783 333.972 282.944C334.255 283.105 334.492 283.352 334.682 283.684C334.872 284.016 334.972 284.464 334.982 285.027L335.063 289.698L333.973 289.718L333.957 288.757L333.902 288.758C333.83 288.914 333.71 289.08 333.541 289.259C333.371 289.437 333.145 289.591 332.861 289.719C332.577 289.847 332.228 289.915 331.816 289.922ZM331.965 288.94C332.396 288.933 332.758 288.842 333.05 288.667C333.346 288.493 333.567 288.27 333.713 288C333.862 287.73 333.934 287.447 333.929 287.151L333.912 286.154C333.867 286.21 333.766 286.263 333.61 286.312C333.457 286.358 333.279 286.399 333.077 286.437C332.877 286.471 332.682 286.502 332.492 286.53C332.304 286.555 332.152 286.576 332.036 286.594C331.753 286.636 331.49 286.7 331.245 286.788C331.003 286.872 330.808 286.997 330.66 287.163C330.515 287.325 330.445 287.545 330.45 287.822C330.457 288.201 330.602 288.484 330.885 288.673C331.171 288.859 331.532 288.948 331.965 288.94ZM337.051 289.663L336.929 282.573L337.981 282.555L338 283.626L338.073 283.624C338.197 283.271 338.426 282.983 338.76 282.758C339.095 282.534 339.475 282.418 339.899 282.41C339.979 282.409 340.079 282.409 340.199 282.409C340.319 282.41 340.41 282.413 340.472 282.419L340.491 283.526C340.454 283.518 340.369 283.505 340.236 283.489C340.107 283.47 339.97 283.462 339.825 283.464C339.48 283.47 339.174 283.548 338.906 283.697C338.64 283.844 338.432 284.044 338.279 284.299C338.129 284.551 338.057 284.837 338.063 285.157L338.14 289.644L337.051 289.663ZM342.903 285.294L342.976 289.559L341.887 289.578L341.765 282.488L342.817 282.469L342.836 283.577L342.929 283.576C343.089 283.213 343.336 282.919 343.671 282.694C344.005 282.467 344.44 282.348 344.976 282.339C345.456 282.331 345.878 282.422 346.241 282.612C346.604 282.8 346.889 283.09 347.096 283.484C347.303 283.874 347.412 284.371 347.422 284.974L347.5 289.479L346.411 289.498L346.334 285.067C346.325 284.51 346.172 284.079 345.878 283.773C345.583 283.464 345.183 283.314 344.679 283.323C344.331 283.329 344.022 283.41 343.75 283.566C343.482 283.721 343.272 283.945 343.12 284.237C342.968 284.529 342.896 284.881 342.903 285.294ZM349.49 289.444L349.368 282.354L350.457 282.335L350.58 289.424L349.49 289.444ZM349.902 281.162C349.689 281.166 349.505 281.097 349.349 280.955C349.195 280.813 349.117 280.641 349.113 280.438C349.11 280.234 349.182 280.059 349.331 279.912C349.482 279.765 349.664 279.689 349.876 279.685C350.088 279.682 350.271 279.751 350.425 279.893C350.581 280.035 350.661 280.207 350.664 280.41C350.668 280.613 350.594 280.788 350.443 280.936C350.294 281.083 350.114 281.159 349.902 281.162ZM353.591 285.105L353.664 289.37L352.575 289.389L352.453 282.299L353.505 282.281L353.524 283.389L353.616 283.387C353.776 283.024 354.024 282.73 354.358 282.506C354.693 282.278 355.128 282.16 355.664 282.15C356.144 282.142 356.565 282.233 356.929 282.423C357.292 282.611 357.577 282.901 357.784 283.295C357.991 283.685 358.1 284.182 358.11 284.785L358.188 289.29L357.098 289.309L357.022 284.878C357.012 284.321 356.86 283.89 356.566 283.584C356.271 283.275 355.871 283.125 355.367 283.134C355.019 283.141 354.709 283.221 354.438 283.377C354.17 283.533 353.96 283.756 353.808 284.048C353.656 284.34 353.584 284.693 353.591 285.105ZM363.088 292.011C362.562 292.02 362.109 291.96 361.728 291.832C361.347 291.706 361.029 291.536 360.773 291.322C360.52 291.111 360.317 290.884 360.165 290.64L361.022 290.016C361.123 290.143 361.25 290.289 361.404 290.452C361.558 290.619 361.766 290.761 362.03 290.88C362.297 291.001 362.644 291.058 363.072 291.051C363.644 291.041 364.114 290.894 364.482 290.61C364.849 290.327 365.028 289.89 365.018 289.299L364.993 287.859L364.901 287.86C364.823 287.991 364.712 288.153 364.567 288.346C364.426 288.537 364.22 288.708 363.948 288.861C363.68 289.01 363.315 289.089 362.854 289.097C362.281 289.107 361.765 288.981 361.305 288.718C360.848 288.455 360.483 288.068 360.209 287.555C359.938 287.043 359.797 286.418 359.784 285.679C359.772 284.953 359.888 284.318 360.134 283.775C360.381 283.229 360.729 282.804 361.179 282.501C361.629 282.194 362.153 282.036 362.75 282.025C363.211 282.017 363.579 282.088 363.852 282.237C364.129 282.383 364.341 282.551 364.489 282.743C364.64 282.931 364.757 283.086 364.839 283.207L364.95 283.205L364.93 282.079L365.983 282.06L366.108 289.353C366.119 289.963 365.989 290.461 365.719 290.847C365.451 291.237 365.087 291.525 364.625 291.711C364.167 291.901 363.655 292.001 363.088 292.011ZM362.984 288.116C363.421 288.108 363.789 288.002 364.087 287.796C364.385 287.591 364.609 287.299 364.76 286.921C364.91 286.543 364.981 286.092 364.972 285.569C364.963 285.058 364.878 284.609 364.718 284.221C364.557 283.832 364.324 283.53 364.019 283.314C363.713 283.098 363.339 282.994 362.896 283.001C362.434 283.01 362.052 283.133 361.748 283.373C361.448 283.612 361.224 283.93 361.077 284.326C360.933 284.723 360.865 285.161 360.873 285.641C360.882 286.134 360.966 286.568 361.126 286.943C361.29 287.316 361.526 287.607 361.834 287.817C362.145 288.024 362.529 288.124 362.984 288.116Z" fill="#201E29"/>
<rect x="296.925" y="275.945" width="15.8745" height="16.0549" fill="#EDBB75"/>
<path d="M7.54545 143.208H17V144.353H7.54545V143.208ZM12.7344 139.971H17V141.06H9.90909V140.008H11.017V139.916C10.657 139.749 10.3677 139.497 10.1491 139.158C9.92756 138.82 9.81676 138.383 9.81676 137.847C9.81676 137.367 9.91525 136.947 10.1122 136.587C10.3061 136.227 10.6016 135.947 10.9986 135.747C11.3925 135.547 11.8911 135.447 12.4943 135.447H17V136.536H12.5682C12.0111 136.536 11.5772 136.681 11.2663 136.97C10.9524 137.26 10.7955 137.657 10.7955 138.161C10.7955 138.509 10.8709 138.82 11.0217 139.094C11.1725 139.365 11.3925 139.579 11.6818 139.736C11.9711 139.892 12.322 139.971 12.7344 139.971ZM17.1477 130.575C17.1477 131.24 16.9908 131.812 16.6768 132.293C16.3629 132.773 15.9305 133.142 15.3796 133.401C14.8287 133.659 14.1993 133.788 13.4915 133.788C12.7713 133.788 12.1358 133.656 11.5849 133.391C11.0309 133.124 10.5985 132.751 10.2876 132.274C9.97372 131.794 9.81676 131.234 9.81676 130.594C9.81676 130.095 9.90909 129.646 10.0938 129.246C10.2784 128.846 10.5369 128.518 10.8693 128.262C11.2017 128.007 11.5895 127.848 12.0327 127.787V128.876C11.7095 128.96 11.4233 129.144 11.174 129.43C10.9216 129.714 10.7955 130.095 10.7955 130.575C10.7955 131 10.9062 131.372 11.1278 131.692C11.3464 132.009 11.6557 132.257 12.0558 132.436C12.4528 132.611 12.919 132.699 13.4545 132.699C14.0024 132.699 14.4794 132.613 14.8857 132.44C15.2919 132.265 15.6074 132.019 15.832 131.702C16.0567 131.382 16.169 131.006 16.169 130.575C16.169 130.292 16.1198 130.035 16.0213 129.804C15.9228 129.574 15.7813 129.378 15.5966 129.218C15.4119 129.058 15.1903 128.944 14.9318 128.876V127.787C15.3504 127.848 15.7274 128.001 16.0629 128.244C16.3952 128.484 16.6599 128.803 16.8569 129.2C17.0508 129.594 17.1477 130.052 17.1477 130.575ZM17.1477 123.314C17.1477 123.954 16.9954 124.515 16.6907 124.999C16.386 125.479 15.9598 125.854 15.4119 126.125C14.8641 126.393 14.224 126.527 13.4915 126.527C12.7528 126.527 12.1081 126.393 11.5572 126.125C11.0063 125.854 10.5785 125.479 10.2738 124.999C9.96911 124.515 9.81676 123.954 9.81676 123.314C9.81676 122.673 9.96911 122.113 10.2738 121.633C10.5785 121.15 11.0063 120.775 11.5572 120.507C12.1081 120.236 12.7528 120.1 13.4915 120.1C14.224 120.1 14.8641 120.236 15.4119 120.507C15.9598 120.775 16.386 121.15 16.6907 121.633C16.9954 122.113 17.1477 122.673 17.1477 123.314ZM16.169 123.314C16.169 122.827 16.0444 122.427 15.7951 122.113C15.5458 121.799 15.218 121.567 14.8118 121.416C14.4055 121.265 13.9654 121.19 13.4915 121.19C13.0175 121.19 12.5759 121.265 12.1665 121.416C11.7572 121.567 11.4264 121.799 11.174 122.113C10.9216 122.427 10.7955 122.827 10.7955 123.314C10.7955 123.8 10.9216 124.2 11.174 124.514C11.4264 124.828 11.7572 125.06 12.1665 125.211C12.5759 125.362 13.0175 125.437 13.4915 125.437C13.9654 125.437 14.4055 125.362 14.8118 125.211C15.218 125.06 15.5458 124.828 15.7951 124.514C16.0444 124.2 16.169 123.8 16.169 123.314ZM17 118.437H9.90909V117.385H11.017V117.293C10.6385 117.145 10.3446 116.906 10.1353 116.577C9.92294 116.248 9.81676 115.852 9.81676 115.391C9.81676 114.923 9.92294 114.533 10.1353 114.223C10.3446 113.909 10.6385 113.664 11.017 113.489V113.415C10.6508 113.233 10.36 112.961 10.1445 112.598C9.92602 112.234 9.81676 111.799 9.81676 111.291C9.81676 110.657 10.0153 110.139 10.4123 109.735C10.8062 109.332 11.4202 109.131 12.2543 109.131H17V110.22H12.2543C11.7311 110.22 11.3571 110.363 11.1325 110.649C10.9078 110.936 10.7955 111.273 10.7955 111.66C10.7955 112.159 10.9463 112.545 11.2479 112.819C11.5464 113.093 11.925 113.23 12.3835 113.23H17V114.338H12.1435C11.7403 114.338 11.4156 114.469 11.1694 114.73C10.9201 114.992 10.7955 115.329 10.7955 115.741C10.7955 116.025 10.8709 116.289 11.0217 116.535C11.1725 116.779 11.3817 116.976 11.6495 117.126C11.9142 117.274 12.2204 117.348 12.5682 117.348H17V118.437ZM17.1477 104.166C17.1477 104.849 16.9969 105.438 16.6953 105.934C16.3906 106.426 15.9659 106.806 15.4212 107.074C14.8733 107.339 14.2363 107.471 13.5099 107.471C12.7836 107.471 12.1435 107.339 11.5895 107.074C11.0324 106.806 10.5985 106.434 10.2876 105.957C9.97372 105.477 9.81676 104.917 9.81676 104.276C9.81676 103.907 9.87831 103.542 10.0014 103.182C10.1245 102.822 10.3246 102.494 10.6016 102.199C10.8755 101.903 11.2386 101.668 11.6911 101.493C12.1435 101.317 12.7005 101.229 13.3622 101.229H13.8239L13.8239 106.695H12.8821V102.337C12.482 102.337 12.125 102.417 11.8111 102.578C11.4972 102.734 11.2494 102.959 11.0678 103.252C10.8862 103.541 10.7955 103.882 10.7955 104.276C10.7955 104.71 10.9032 105.086 11.1186 105.403C11.331 105.717 11.608 105.958 11.9496 106.128C12.2912 106.297 12.6574 106.381 13.0483 106.381H13.6761C14.2116 106.381 14.6656 106.289 15.038 106.104C15.4073 105.917 15.6889 105.657 15.8828 105.324C16.0736 104.992 16.169 104.606 16.169 104.166C16.169 103.879 16.129 103.621 16.049 103.39C15.9659 103.156 15.8428 102.955 15.6797 102.785C15.5135 102.616 15.3073 102.485 15.0611 102.393L15.3565 101.34C15.7135 101.451 16.0275 101.637 16.2983 101.899C16.5661 102.16 16.7753 102.484 16.9261 102.868C17.0739 103.253 17.1477 103.685 17.1477 104.166Z" fill="#201E29"/>
<path d="M83.5081 251.579H84.3888V256.778C84.3888 257.242 84.3036 257.636 84.1331 257.96C83.9627 258.285 83.7224 258.531 83.4122 258.699C83.1021 258.867 82.7363 258.951 82.3149 258.951C81.9172 258.951 81.5633 258.879 81.2532 258.734C80.943 258.588 80.6992 258.379 80.5216 258.109C80.3441 257.839 80.2553 257.519 80.2553 257.147H81.1218C81.1218 257.353 81.1727 257.533 81.2745 257.687C81.3786 257.838 81.5207 257.957 81.7006 258.042C81.8805 258.127 82.0853 258.17 82.3149 258.17C82.5683 258.17 82.7837 258.116 82.9613 258.01C83.1388 257.903 83.2738 257.747 83.3661 257.541C83.4608 257.333 83.5081 257.078 83.5081 256.778V251.579ZM87.6452 258.979C87.2996 258.979 86.9859 258.914 86.7041 258.784C86.4224 258.652 86.1987 258.461 86.033 258.212C85.8673 257.961 85.7844 257.658 85.7844 257.303C85.7844 256.991 85.846 256.737 85.9691 256.543C86.0922 256.347 86.2567 256.193 86.4627 256.082C86.6686 255.97 86.8959 255.888 87.1445 255.833C87.3954 255.776 87.6476 255.731 87.9009 255.698C88.2323 255.656 88.501 255.624 88.707 255.602C88.9153 255.579 89.0668 255.54 89.1615 255.485C89.2586 255.431 89.3071 255.336 89.3071 255.201V255.173C89.3071 254.822 89.2113 254.55 89.0195 254.356C88.8301 254.162 88.5425 254.065 88.1566 254.065C87.7565 254.065 87.4428 254.152 87.2155 254.327C86.9882 254.503 86.8284 254.69 86.7361 254.888L85.9407 254.604C86.0827 254.273 86.2721 254.015 86.5088 253.83C86.7479 253.643 87.0084 253.513 87.2901 253.44C87.5742 253.364 87.8535 253.326 88.1282 253.326C88.3033 253.326 88.5046 253.347 88.7318 253.39C88.9615 253.43 89.1828 253.514 89.3959 253.642C89.6113 253.77 89.7901 253.963 89.9321 254.221C90.0742 254.479 90.1452 254.825 90.1452 255.258V258.852H89.3071V258.113H89.2645C89.2077 258.231 89.113 258.358 88.9804 258.493C88.8479 258.628 88.6715 258.743 88.4513 258.837C88.2311 258.932 87.9624 258.979 87.6452 258.979ZM87.773 258.227C88.1045 258.227 88.3838 258.161 88.6111 258.031C88.8407 257.901 89.0136 257.733 89.1296 257.527C89.2479 257.321 89.3071 257.104 89.3071 256.877V256.11C89.2716 256.153 89.1935 256.192 89.0728 256.227C88.9544 256.26 88.8171 256.29 88.6608 256.316C88.5069 256.34 88.3566 256.361 88.2098 256.38C88.0654 256.397 87.9482 256.411 87.8583 256.423C87.6405 256.451 87.4369 256.497 87.2475 256.561C87.0604 256.623 86.9089 256.716 86.7929 256.842C86.6793 256.965 86.6225 257.133 86.6225 257.346C86.6225 257.637 86.7302 257.857 86.9456 258.006C87.1634 258.153 87.4392 258.227 87.773 258.227ZM92.5129 255.57V258.852H91.6749V253.397H92.4845V254.249H92.5555C92.6834 253.972 92.8775 253.75 93.1379 253.582C93.3983 253.411 93.7345 253.326 94.1464 253.326C94.5158 253.326 94.8389 253.402 95.1159 253.553C95.3929 253.702 95.6083 253.93 95.7622 254.235C95.9161 254.538 95.993 254.922 95.993 255.386V258.852H95.155V255.442C95.155 255.014 95.0437 254.68 94.8212 254.441C94.5986 254.2 94.2932 254.079 93.905 254.079C93.6374 254.079 93.3983 254.137 93.1876 254.253C92.9793 254.369 92.8148 254.538 92.694 254.761C92.5733 254.983 92.5129 255.253 92.5129 255.57Z" fill="#201E29"/>
<path d="M116.15 258.852V251.579H120.511V252.36H117.03V254.817H120.184V255.599H117.03V258.852H116.15ZM123.792 258.965C123.266 258.965 122.813 258.849 122.432 258.617C122.053 258.383 121.761 258.056 121.555 257.637C121.351 257.216 121.249 256.726 121.249 256.167C121.249 255.608 121.351 255.116 121.555 254.69C121.761 254.261 122.047 253.927 122.414 253.688C122.783 253.447 123.214 253.326 123.707 253.326C123.991 253.326 124.271 253.373 124.548 253.468C124.825 253.563 125.077 253.717 125.305 253.93C125.532 254.14 125.713 254.42 125.848 254.768C125.983 255.116 126.05 255.544 126.05 256.053V256.408H121.846V255.684H125.198C125.198 255.376 125.137 255.102 125.013 254.86C124.893 254.619 124.72 254.428 124.495 254.288C124.272 254.149 124.01 254.079 123.707 254.079C123.373 254.079 123.084 254.162 122.84 254.327C122.599 254.491 122.413 254.704 122.283 254.967C122.152 255.229 122.087 255.511 122.087 255.812V256.295C122.087 256.707 122.158 257.056 122.3 257.342C122.445 257.626 122.645 257.843 122.901 257.992C123.156 258.139 123.453 258.212 123.792 258.212C124.012 258.212 124.211 258.182 124.388 258.12C124.568 258.056 124.723 257.961 124.854 257.836C124.984 257.708 125.084 257.549 125.155 257.36L125.965 257.587C125.88 257.862 125.737 258.103 125.535 258.312C125.334 258.518 125.086 258.679 124.79 258.795C124.494 258.908 124.161 258.965 123.792 258.965ZM127.439 258.852V251.579H128.277V254.263H128.348C128.41 254.169 128.495 254.048 128.604 253.901C128.715 253.752 128.874 253.62 129.08 253.504C129.288 253.385 129.57 253.326 129.925 253.326C130.384 253.326 130.789 253.441 131.139 253.67C131.49 253.9 131.763 254.226 131.959 254.647C132.156 255.068 132.254 255.566 132.254 256.138C132.254 256.716 132.156 257.217 131.959 257.641C131.763 258.062 131.491 258.389 131.143 258.621C130.795 258.85 130.393 258.965 129.939 258.965C129.588 258.965 129.308 258.907 129.097 258.791C128.887 258.673 128.724 258.539 128.611 258.39C128.497 258.238 128.41 258.113 128.348 258.013H128.249V258.852H127.439ZM128.263 256.124C128.263 256.536 128.323 256.9 128.444 257.214C128.565 257.527 128.741 257.772 128.973 257.95C129.205 258.125 129.489 258.212 129.825 258.212C130.176 258.212 130.468 258.12 130.702 257.935C130.939 257.748 131.117 257.497 131.235 257.183C131.356 256.865 131.416 256.513 131.416 256.124C131.416 255.741 131.357 255.395 131.239 255.087C131.123 254.777 130.946 254.532 130.709 254.352C130.475 254.17 130.18 254.079 129.825 254.079C129.484 254.079 129.198 254.165 128.966 254.338C128.734 254.509 128.559 254.748 128.44 255.055C128.322 255.361 128.263 255.717 128.263 256.124Z" fill="#201E29"/>
<path d="M151.493 251.579H152.544L155.015 257.616H155.101L157.572 251.579H158.623V258.852H157.799V253.326H157.728L155.456 258.852H154.66L152.387 253.326H152.316V258.852H151.493V251.579ZM161.881 258.979C161.535 258.979 161.221 258.914 160.939 258.784C160.658 258.652 160.434 258.461 160.268 258.212C160.103 257.961 160.02 257.658 160.02 257.303C160.02 256.991 160.081 256.737 160.204 256.543C160.328 256.347 160.492 256.193 160.698 256.082C160.904 255.97 161.131 255.888 161.38 255.833C161.631 255.776 161.883 255.731 162.136 255.698C162.468 255.656 162.736 255.624 162.942 255.602C163.151 255.579 163.302 255.54 163.397 255.485C163.494 255.431 163.542 255.336 163.542 255.201V255.173C163.542 254.822 163.447 254.55 163.255 254.356C163.065 254.162 162.778 254.065 162.392 254.065C161.992 254.065 161.678 254.152 161.451 254.327C161.224 254.503 161.064 254.69 160.971 254.888L160.176 254.604C160.318 254.273 160.507 254.015 160.744 253.83C160.983 253.643 161.244 253.513 161.525 253.44C161.81 253.364 162.089 253.326 162.364 253.326C162.539 253.326 162.74 253.347 162.967 253.39C163.197 253.43 163.418 253.514 163.631 253.642C163.847 253.77 164.025 253.963 164.167 254.221C164.31 254.479 164.381 254.825 164.381 255.258V258.852H163.542V258.113H163.5C163.443 258.231 163.348 258.358 163.216 258.493C163.083 258.628 162.907 258.743 162.687 258.837C162.466 258.932 162.198 258.979 161.881 258.979ZM162.008 258.227C162.34 258.227 162.619 258.161 162.846 258.031C163.076 257.901 163.249 257.733 163.365 257.527C163.483 257.321 163.542 257.104 163.542 256.877V256.11C163.507 256.153 163.429 256.192 163.308 256.227C163.19 256.26 163.052 256.29 162.896 256.316C162.742 256.34 162.592 256.361 162.445 256.38C162.301 256.397 162.184 256.411 162.094 256.423C161.876 256.451 161.672 256.497 161.483 256.561C161.296 256.623 161.144 256.716 161.028 256.842C160.915 256.965 160.858 257.133 160.858 257.346C160.858 257.637 160.966 257.857 161.181 258.006C161.399 258.153 161.675 258.227 162.008 258.227ZM165.91 258.852V253.397H166.72V254.221H166.777C166.876 253.951 167.056 253.732 167.316 253.564C167.577 253.396 167.87 253.312 168.197 253.312C168.259 253.312 168.336 253.313 168.428 253.315C168.52 253.318 168.59 253.321 168.637 253.326V254.178C168.609 254.171 168.544 254.161 168.442 254.146C168.343 254.13 168.237 254.121 168.126 254.121C167.861 254.121 167.624 254.177 167.416 254.288C167.21 254.397 167.047 254.549 166.926 254.743C166.807 254.935 166.748 255.154 166.748 255.4V258.852H165.91Z" fill="#201E29"/>
<path d="M188.349 258.852H187.425L190.096 251.579H191.005L193.675 258.852H192.752L190.579 252.729H190.522L188.349 258.852ZM188.689 256.011H192.411V256.792H188.689V256.011ZM194.694 260.897V253.397H195.504V254.263H195.603C195.665 254.169 195.75 254.048 195.859 253.901C195.97 253.752 196.129 253.62 196.335 253.504C196.543 253.385 196.825 253.326 197.18 253.326C197.639 253.326 198.044 253.441 198.395 253.67C198.745 253.9 199.018 254.226 199.215 254.647C199.411 255.068 199.51 255.566 199.51 256.138C199.51 256.716 199.411 257.217 199.215 257.641C199.018 258.062 198.746 258.389 198.398 258.621C198.05 258.85 197.649 258.965 197.194 258.965C196.844 258.965 196.563 258.907 196.353 258.791C196.142 258.673 195.98 258.539 195.866 258.39C195.753 258.238 195.665 258.113 195.603 258.013H195.532V260.897H194.694ZM195.518 256.124C195.518 256.536 195.579 256.9 195.699 257.214C195.82 257.527 195.996 257.772 196.228 257.95C196.46 258.125 196.745 258.212 197.081 258.212C197.431 258.212 197.724 258.12 197.958 257.935C198.195 257.748 198.372 257.497 198.491 257.183C198.611 256.865 198.672 256.513 198.672 256.124C198.672 255.741 198.612 255.395 198.494 255.087C198.378 254.777 198.202 254.532 197.965 254.352C197.731 254.17 197.436 254.079 197.081 254.079C196.74 254.079 196.453 254.165 196.221 254.338C195.989 254.509 195.814 254.748 195.696 255.055C195.577 255.361 195.518 255.717 195.518 256.124ZM200.788 258.852V253.397H201.598V254.221H201.655C201.754 253.951 201.934 253.732 202.194 253.564C202.455 253.396 202.748 253.312 203.075 253.312C203.137 253.312 203.214 253.313 203.306 253.315C203.398 253.318 203.468 253.321 203.515 253.326V254.178C203.487 254.171 203.422 254.161 203.32 254.146C203.221 254.13 203.115 254.121 203.004 254.121C202.739 254.121 202.502 254.177 202.294 254.288C202.088 254.397 201.924 254.549 201.804 254.743C201.685 254.935 201.626 255.154 201.626 255.4V258.852H200.788Z" fill="#201E29"/>
<path d="M222.101 251.579H223.152L225.624 257.616H225.709L228.181 251.579H229.232V258.852H228.408V253.326H228.337L226.064 258.852H225.269L222.996 253.326H222.925V258.852H222.101V251.579ZM232.489 258.979C232.143 258.979 231.83 258.914 231.548 258.784C231.266 258.652 231.042 258.461 230.877 258.212C230.711 257.961 230.628 257.658 230.628 257.303C230.628 256.991 230.69 256.737 230.813 256.543C230.936 256.347 231.1 256.193 231.306 256.082C231.512 255.97 231.74 255.888 231.988 255.833C232.239 255.776 232.491 255.731 232.745 255.698C233.076 255.656 233.345 255.624 233.551 255.602C233.759 255.579 233.911 255.54 234.005 255.485C234.102 255.431 234.151 255.336 234.151 255.201V255.173C234.151 254.822 234.055 254.55 233.863 254.356C233.674 254.162 233.386 254.065 233 254.065C232.6 254.065 232.287 254.152 232.059 254.327C231.832 254.503 231.672 254.69 231.58 254.888L230.784 254.604C230.926 254.273 231.116 254.015 231.353 253.83C231.592 253.643 231.852 253.513 232.134 253.44C232.418 253.364 232.697 253.326 232.972 253.326C233.147 253.326 233.348 253.347 233.576 253.39C233.805 253.43 234.027 253.514 234.24 253.642C234.455 253.77 234.634 253.963 234.776 254.221C234.918 254.479 234.989 254.825 234.989 255.258V258.852H234.151V258.113H234.108C234.051 258.231 233.957 258.358 233.824 258.493C233.692 258.628 233.515 258.743 233.295 258.837C233.075 258.932 232.806 258.979 232.489 258.979ZM232.617 258.227C232.948 258.227 233.228 258.161 233.455 258.031C233.684 257.901 233.857 257.733 233.973 257.527C234.092 257.321 234.151 257.104 234.151 256.877V256.11C234.115 256.153 234.037 256.192 233.917 256.227C233.798 256.26 233.661 256.29 233.505 256.316C233.351 256.34 233.2 256.361 233.054 256.38C232.909 256.397 232.792 256.411 232.702 256.423C232.484 256.451 232.281 256.497 232.091 256.561C231.904 256.623 231.753 256.716 231.637 256.842C231.523 256.965 231.466 257.133 231.466 257.346C231.466 257.637 231.574 257.857 231.789 258.006C232.007 258.153 232.283 258.227 232.617 258.227ZM236.863 260.897C236.721 260.897 236.594 260.885 236.483 260.862C236.372 260.84 236.295 260.819 236.252 260.798L236.465 260.059C236.669 260.111 236.849 260.13 237.005 260.116C237.161 260.102 237.3 260.032 237.421 259.906C237.544 259.783 237.656 259.583 237.758 259.306L237.914 258.88L235.897 253.397H236.806L238.312 257.744H238.369L239.874 253.397H240.784L238.468 259.647C238.364 259.929 238.235 260.162 238.081 260.347C237.927 260.534 237.748 260.672 237.545 260.762C237.344 260.852 237.116 260.897 236.863 260.897Z" fill="#201E29"/>
<path d="M262.01 251.579H262.891V256.778C262.891 257.242 262.806 257.636 262.635 257.96C262.465 258.285 262.224 258.531 261.914 258.699C261.604 258.867 261.238 258.951 260.817 258.951C260.419 258.951 260.065 258.879 259.755 258.734C259.445 258.588 259.201 258.379 259.024 258.109C258.846 257.839 258.757 257.519 258.757 257.147H259.624C259.624 257.353 259.675 257.533 259.776 257.687C259.881 257.838 260.023 257.957 260.203 258.042C260.382 258.127 260.587 258.17 260.817 258.17C261.07 258.17 261.286 258.116 261.463 258.01C261.641 257.903 261.776 257.747 261.868 257.541C261.963 257.333 262.01 257.078 262.01 256.778V251.579ZM267.98 256.621V253.397H268.818V258.852H267.98V257.928H267.923C267.795 258.205 267.596 258.441 267.326 258.635C267.056 258.827 266.715 258.923 266.303 258.923C265.962 258.923 265.659 258.848 265.394 258.699C265.129 258.547 264.921 258.32 264.769 258.017C264.618 257.712 264.542 257.327 264.542 256.863V253.397H265.38V256.806C265.38 257.204 265.491 257.521 265.714 257.758C265.939 257.995 266.225 258.113 266.573 258.113C266.782 258.113 266.994 258.06 267.209 257.953C267.427 257.847 267.609 257.683 267.756 257.463C267.905 257.243 267.98 256.962 267.98 256.621ZM271.191 255.57V258.852H270.353V253.397H271.162V254.249H271.233C271.361 253.972 271.555 253.75 271.816 253.582C272.076 253.411 272.412 253.326 272.824 253.326C273.193 253.326 273.517 253.402 273.794 253.553C274.071 253.702 274.286 253.93 274.44 254.235C274.594 254.538 274.671 254.922 274.671 255.386V258.852H273.833V255.442C273.833 255.014 273.721 254.68 273.499 254.441C273.276 254.2 272.971 254.079 272.583 254.079C272.315 254.079 272.076 254.137 271.865 254.253C271.657 254.369 271.493 254.538 271.372 254.761C271.251 254.983 271.191 255.253 271.191 255.57Z" fill="#201E29"/>
<path d="M299.466 251.579H300.347V256.778C300.347 257.242 300.262 257.636 300.091 257.96C299.921 258.285 299.68 258.531 299.37 258.699C299.06 258.867 298.694 258.951 298.273 258.951C297.875 258.951 297.521 258.879 297.211 258.734C296.901 258.588 296.657 258.379 296.48 258.109C296.302 257.839 296.213 257.519 296.213 257.147H297.08C297.08 257.353 297.131 257.533 297.232 257.687C297.337 257.838 297.479 257.957 297.659 258.042C297.839 258.127 298.043 258.17 298.273 258.17C298.526 258.17 298.742 258.116 298.919 258.01C299.097 257.903 299.232 257.747 299.324 257.541C299.419 257.333 299.466 257.078 299.466 256.778V251.579ZM305.436 256.621V253.397H306.274V258.852H305.436V257.928H305.379C305.251 258.205 305.052 258.441 304.782 258.635C304.512 258.827 304.171 258.923 303.759 258.923C303.419 258.923 303.116 258.848 302.85 258.699C302.585 258.547 302.377 258.32 302.225 258.017C302.074 257.712 301.998 257.327 301.998 256.863V253.397H302.836V256.806C302.836 257.204 302.947 257.521 303.17 257.758C303.395 257.995 303.681 258.113 304.029 258.113C304.238 258.113 304.45 258.06 304.665 257.953C304.883 257.847 305.065 257.683 305.212 257.463C305.361 257.243 305.436 256.962 305.436 256.621ZM308.647 251.579V258.852H307.809V251.579H308.647Z" fill="#201E29"/>
<path d="M330.173 258.852H329.249L331.92 251.579H332.829L335.499 258.852H334.576L332.403 252.729H332.346L330.173 258.852ZM330.514 256.011H334.235V256.792H330.514V256.011ZM339.956 256.621V253.397H340.794V258.852H339.956V257.928H339.899C339.771 258.205 339.573 258.441 339.303 258.635C339.033 258.827 338.692 258.923 338.28 258.923C337.939 258.923 337.636 258.848 337.371 258.699C337.106 258.547 336.897 258.32 336.746 258.017C336.594 257.712 336.519 257.327 336.519 256.863V253.397H337.357V256.806C337.357 257.204 337.468 257.521 337.69 257.758C337.915 257.995 338.202 258.113 338.55 258.113C338.758 258.113 338.97 258.06 339.186 257.953C339.403 257.847 339.586 257.683 339.732 257.463C339.882 257.243 339.956 256.962 339.956 256.621ZM344.531 261.011C344.126 261.011 343.778 260.959 343.487 260.854C343.196 260.753 342.953 260.618 342.759 260.45C342.567 260.284 342.414 260.106 342.301 259.917L342.968 259.448C343.044 259.548 343.14 259.661 343.256 259.789C343.372 259.919 343.531 260.032 343.732 260.126C343.935 260.223 344.202 260.272 344.531 260.272C344.971 260.272 345.335 260.165 345.621 259.952C345.908 259.739 346.051 259.406 346.051 258.951V257.843H345.98C345.918 257.942 345.831 258.066 345.717 258.212C345.606 258.357 345.445 258.486 345.234 258.599C345.026 258.711 344.744 258.766 344.389 258.766C343.948 258.766 343.553 258.662 343.203 258.454C342.855 258.246 342.579 257.942 342.375 257.545C342.174 257.147 342.073 256.664 342.073 256.096C342.073 255.537 342.172 255.051 342.368 254.636C342.565 254.22 342.838 253.898 343.189 253.67C343.539 253.441 343.944 253.326 344.403 253.326C344.758 253.326 345.04 253.385 345.248 253.504C345.459 253.62 345.62 253.752 345.731 253.901C345.845 254.048 345.932 254.169 345.994 254.263H346.079V253.397H346.889V259.008C346.889 259.477 346.782 259.858 346.569 260.151C346.359 260.447 346.074 260.664 345.717 260.801C345.362 260.941 344.966 261.011 344.531 261.011ZM344.502 258.013C344.839 258.013 345.123 257.937 345.355 257.783C345.587 257.629 345.763 257.407 345.884 257.119C346.005 256.83 346.065 256.484 346.065 256.082C346.065 255.689 346.006 255.342 345.887 255.041C345.769 254.741 345.594 254.505 345.362 254.335C345.13 254.164 344.843 254.079 344.502 254.079C344.147 254.079 343.851 254.169 343.615 254.349C343.38 254.529 343.204 254.77 343.086 255.073C342.97 255.376 342.912 255.712 342.912 256.082C342.912 256.46 342.971 256.795 343.089 257.087C343.21 257.375 343.387 257.603 343.622 257.768C343.859 257.932 344.152 258.013 344.502 258.013Z" fill="#201E29"/>
<path d="M369.755 253.397C369.712 253.037 369.54 252.758 369.237 252.559C368.934 252.36 368.562 252.261 368.121 252.261C367.8 252.261 367.518 252.313 367.276 252.417C367.037 252.521 366.85 252.664 366.715 252.847C366.583 253.029 366.516 253.236 366.516 253.468C366.516 253.662 366.563 253.829 366.655 253.969C366.75 254.106 366.87 254.221 367.017 254.313C367.164 254.403 367.318 254.478 367.479 254.537C367.64 254.594 367.788 254.64 367.923 254.675L368.661 254.874C368.851 254.924 369.061 254.993 369.293 255.08C369.528 255.168 369.751 255.287 369.965 255.439C370.18 255.588 370.358 255.78 370.497 256.014C370.637 256.249 370.707 256.536 370.707 256.877C370.707 257.27 370.604 257.625 370.398 257.942C370.194 258.26 369.896 258.512 369.503 258.699C369.112 258.886 368.638 258.979 368.079 258.979C367.558 258.979 367.107 258.895 366.726 258.727C366.347 258.559 366.049 258.325 365.831 258.024C365.616 257.723 365.494 257.374 365.465 256.977H366.374C366.398 257.251 366.49 257.478 366.651 257.658C366.815 257.836 367.021 257.969 367.269 258.056C367.52 258.141 367.79 258.184 368.079 258.184C368.415 258.184 368.717 258.129 368.984 258.021C369.252 257.909 369.464 257.755 369.62 257.559C369.776 257.36 369.854 257.128 369.854 256.863C369.854 256.621 369.787 256.425 369.652 256.273C369.517 256.122 369.34 255.999 369.119 255.904C368.899 255.809 368.661 255.727 368.406 255.656L367.511 255.4C366.943 255.237 366.493 255.003 366.161 254.7C365.83 254.397 365.664 254.001 365.664 253.511C365.664 253.103 365.774 252.748 365.994 252.445C366.217 252.14 366.515 251.903 366.889 251.735C367.266 251.565 367.686 251.479 368.15 251.479C368.619 251.479 369.035 251.563 369.4 251.732C369.764 251.897 370.053 252.125 370.266 252.413C370.482 252.702 370.595 253.03 370.607 253.397H369.755ZM374.328 258.965C373.802 258.965 373.349 258.849 372.968 258.617C372.589 258.383 372.297 258.056 372.091 257.637C371.887 257.216 371.785 256.726 371.785 256.167C371.785 255.608 371.887 255.116 372.091 254.69C372.297 254.261 372.583 253.927 372.95 253.688C373.319 253.447 373.75 253.326 374.243 253.326C374.527 253.326 374.807 253.373 375.084 253.468C375.361 253.563 375.614 253.717 375.841 253.93C376.068 254.14 376.249 254.42 376.384 254.768C376.519 255.116 376.587 255.544 376.587 256.053V256.408H372.382V255.684H375.734C375.734 255.376 375.673 255.102 375.55 254.86C375.429 254.619 375.256 254.428 375.031 254.288C374.809 254.149 374.546 254.079 374.243 254.079C373.909 254.079 373.62 254.162 373.376 254.327C373.135 254.491 372.949 254.704 372.819 254.967C372.689 255.229 372.623 255.511 372.623 255.812V256.295C372.623 256.707 372.694 257.056 372.837 257.342C372.981 257.626 373.181 257.843 373.437 257.992C373.692 258.139 373.989 258.212 374.328 258.212C374.548 258.212 374.747 258.182 374.925 258.12C375.105 258.056 375.26 257.961 375.39 257.836C375.52 257.708 375.621 257.549 375.692 257.36L376.501 257.587C376.416 257.862 376.273 258.103 376.072 258.312C375.87 258.518 375.622 258.679 375.326 258.795C375.03 258.908 374.697 258.965 374.328 258.965ZM377.861 260.897V253.397H378.671V254.263H378.77C378.832 254.169 378.917 254.048 379.026 253.901C379.137 253.752 379.296 253.62 379.502 253.504C379.71 253.385 379.992 253.326 380.347 253.326C380.806 253.326 381.211 253.441 381.562 253.67C381.912 253.9 382.185 254.226 382.382 254.647C382.578 255.068 382.677 255.566 382.677 256.138C382.677 256.716 382.578 257.217 382.382 257.641C382.185 258.062 381.913 258.389 381.565 258.621C381.217 258.85 380.816 258.965 380.361 258.965C380.011 258.965 379.73 258.907 379.52 258.791C379.309 258.673 379.147 258.539 379.033 258.39C378.92 258.238 378.832 258.113 378.77 258.013H378.699V260.897H377.861ZM378.685 256.124C378.685 256.536 378.746 256.9 378.866 257.214C378.987 257.527 379.163 257.772 379.395 257.95C379.627 258.125 379.912 258.212 380.248 258.212C380.598 258.212 380.89 258.12 381.125 257.935C381.362 257.748 381.539 257.497 381.658 257.183C381.778 256.865 381.839 256.513 381.839 256.124C381.839 255.741 381.779 255.395 381.661 255.087C381.545 254.777 381.369 254.532 381.132 254.352C380.898 254.17 380.603 254.079 380.248 254.079C379.907 254.079 379.62 254.165 379.388 254.338C379.156 254.509 378.981 254.748 378.863 255.055C378.744 255.361 378.685 255.717 378.685 256.124Z" fill="#201E29"/>
<path d="M56.406 238.883C55.871 238.883 55.4153 238.737 55.0388 238.446C54.6624 238.152 54.3748 237.727 54.1759 237.171C53.9771 236.612 53.8776 235.938 53.8776 235.147C53.8776 234.361 53.9771 233.69 54.1759 233.133C54.3772 232.575 54.666 232.148 55.0424 231.855C55.4212 231.559 55.8757 231.411 56.406 231.411C56.9363 231.411 57.3897 231.559 57.7661 231.855C58.1449 232.148 58.4337 232.575 58.6326 233.133C58.8338 233.69 58.9344 234.361 58.9344 235.147C58.9344 235.938 58.835 236.612 58.6361 237.171C58.4373 237.727 58.1496 238.152 57.7732 238.446C57.3968 238.737 56.9411 238.883 56.406 238.883ZM56.406 238.101C56.9363 238.101 57.3483 237.846 57.6418 237.334C57.9354 236.823 58.0822 236.094 58.0822 235.147C58.0822 234.517 58.0147 233.981 57.8798 233.538C57.7472 233.095 57.5554 232.758 57.3045 232.526C57.0559 232.294 56.7564 232.178 56.406 232.178C55.8805 232.178 55.4697 232.437 55.1738 232.956C54.8779 233.472 54.7299 234.202 54.7299 235.147C54.7299 235.777 54.7962 236.312 54.9288 236.752C55.0613 237.192 55.2519 237.527 55.5005 237.757C55.7514 237.987 56.0533 238.101 56.406 238.101Z" fill="#201E29"/>
<line x1="67.4658" y1="234.303" x2="505.999" y2="234.303" stroke="#8492A6" stroke-opacity="0.3"/>
<path d="M43.9723 200.752C43.5556 200.752 43.1804 200.669 42.8465 200.503C42.5127 200.337 42.2452 200.11 42.044 199.821C41.8428 199.533 41.7327 199.203 41.7137 198.834H42.566C42.5991 199.163 42.7483 199.435 43.0134 199.651C43.281 199.864 43.6006 199.971 43.9723 199.971C44.2705 199.971 44.5357 199.901 44.7677 199.761C45.0021 199.621 45.1856 199.43 45.3181 199.186C45.4531 198.94 45.5205 198.661 45.5205 198.351C45.5205 198.034 45.4507 197.751 45.311 197.502C45.1737 197.252 44.9843 197.054 44.7429 196.909C44.5014 196.765 44.2256 196.692 43.9154 196.689C43.6929 196.687 43.4644 196.721 43.2301 196.792C42.9957 196.861 42.8027 196.95 42.6512 197.059L41.8274 196.959L42.2677 193.38H46.0461V194.161H43.0063L42.7507 196.306H42.7933C42.9424 196.187 43.1295 196.089 43.3544 196.011C43.5793 195.933 43.8136 195.894 44.0575 195.894C44.5026 195.894 44.8991 196 45.2471 196.213C45.5975 196.424 45.8721 196.713 46.071 197.08C46.2722 197.447 46.3728 197.866 46.3728 198.337C46.3728 198.801 46.2687 199.215 46.0603 199.58C45.8544 199.942 45.5703 200.229 45.208 200.439C44.8458 200.648 44.4339 200.752 43.9723 200.752ZM50.1557 200.752C49.6206 200.752 49.1649 200.606 48.7885 200.315C48.4121 200.021 48.1244 199.596 47.9256 199.04C47.7267 198.481 47.6273 197.807 47.6273 197.016C47.6273 196.23 47.7267 195.559 47.9256 195.002C48.1268 194.444 48.4156 194.018 48.792 193.724C49.1708 193.428 49.6254 193.28 50.1557 193.28C50.686 193.28 51.1393 193.428 51.5158 193.724C51.8945 194.018 52.1834 194.444 52.3822 195.002C52.5835 195.559 52.6841 196.23 52.6841 197.016C52.6841 197.807 52.5846 198.481 52.3858 199.04C52.1869 199.596 51.8993 200.021 51.5229 200.315C51.1464 200.606 50.6907 200.752 50.1557 200.752ZM50.1557 199.971C50.686 199.971 51.0979 199.715 51.3915 199.203C51.685 198.692 51.8318 197.963 51.8318 197.016C51.8318 196.386 51.7643 195.85 51.6294 195.407C51.4968 194.965 51.3051 194.627 51.0541 194.395C50.8055 194.163 50.506 194.047 50.1557 194.047C49.6301 194.047 49.2194 194.306 48.9234 194.825C48.6275 195.341 48.4795 196.071 48.4795 197.016C48.4795 197.646 48.5458 198.181 48.6784 198.621C48.811 199.061 49.0016 199.396 49.2501 199.626C49.5011 199.856 49.8029 199.971 50.1557 199.971ZM56.4057 200.752C55.8706 200.752 55.4149 200.606 55.0385 200.315C54.6621 200.021 54.3744 199.596 54.1756 199.04C53.9767 198.481 53.8773 197.807 53.8773 197.016C53.8773 196.23 53.9767 195.559 54.1756 195.002C54.3768 194.444 54.6656 194.018 55.042 193.724C55.4208 193.428 55.8754 193.28 56.4057 193.28C56.936 193.28 57.3893 193.428 57.7658 193.724C58.1445 194.018 58.4334 194.444 58.6322 195.002C58.8335 195.559 58.9341 196.23 58.9341 197.016C58.9341 197.807 58.8346 198.481 58.6358 199.04C58.4369 199.596 58.1493 200.021 57.7729 200.315C57.3964 200.606 56.9407 200.752 56.4057 200.752ZM56.4057 199.971C56.936 199.971 57.3479 199.715 57.6415 199.203C57.935 198.692 58.0818 197.963 58.0818 197.016C58.0818 196.386 58.0143 195.85 57.8794 195.407C57.7468 194.965 57.5551 194.627 57.3041 194.395C57.0555 194.163 56.756 194.047 56.4057 194.047C55.8801 194.047 55.4694 194.306 55.1734 194.825C54.8775 195.341 54.7295 196.071 54.7295 197.016C54.7295 197.646 54.7958 198.181 54.9284 198.621C55.061 199.061 55.2516 199.396 55.5001 199.626C55.7511 199.856 56.0529 199.971 56.4057 199.971Z" fill="#201E29"/>
<line x1="67.4658" y1="196.174" x2="505.999" y2="196.174" stroke="#8492A6" stroke-opacity="0.3"/>
<path d="M39.4417 155.249V162.521H38.5611V156.172H38.5184L36.7429 157.351V156.456L38.5611 155.249H39.4417ZM43.9055 162.621C43.3705 162.621 42.9147 162.475 42.5383 162.184C42.1619 161.891 41.8743 161.466 41.6754 160.909C41.4765 160.351 41.3771 159.676 41.3771 158.885C41.3771 158.099 41.4765 157.428 41.6754 156.872C41.8766 156.313 42.1655 155.887 42.5419 155.593C42.9207 155.297 43.3752 155.149 43.9055 155.149C44.4358 155.149 44.8892 155.297 45.2656 155.593C45.6444 155.887 45.9332 156.313 46.1321 156.872C46.3333 157.428 46.4339 158.099 46.4339 158.885C46.4339 159.676 46.3345 160.351 46.1356 160.909C45.9368 161.466 45.6491 161.891 45.2727 162.184C44.8963 162.475 44.4406 162.621 43.9055 162.621ZM43.9055 161.84C44.4358 161.84 44.8478 161.584 45.1413 161.073C45.4349 160.561 45.5817 159.832 45.5817 158.885C45.5817 158.255 45.5142 157.719 45.3792 157.276C45.2467 156.834 45.0549 156.496 44.804 156.264C44.5554 156.032 44.2559 155.916 43.9055 155.916C43.3799 155.916 42.9692 156.176 42.6733 156.694C42.3773 157.21 42.2294 157.941 42.2294 158.885C42.2294 159.515 42.2957 160.05 42.4282 160.49C42.5608 160.931 42.7514 161.266 43 161.495C43.2509 161.725 43.5528 161.84 43.9055 161.84ZM50.1555 162.621C49.6205 162.621 49.1647 162.475 48.7883 162.184C48.4119 161.891 48.1243 161.466 47.9254 160.909C47.7265 160.351 47.6271 159.676 47.6271 158.885C47.6271 158.099 47.7265 157.428 47.9254 156.872C48.1266 156.313 48.4155 155.887 48.7919 155.593C49.1707 155.297 49.6252 155.149 50.1555 155.149C50.6858 155.149 51.1392 155.297 51.5156 155.593C51.8944 155.887 52.1832 156.313 52.3821 156.872C52.5833 157.428 52.6839 158.099 52.6839 158.885C52.6839 159.676 52.5845 160.351 52.3856 160.909C52.1868 161.466 51.8991 161.891 51.5227 162.184C51.1463 162.475 50.6906 162.621 50.1555 162.621ZM50.1555 161.84C50.6858 161.84 51.0978 161.584 51.3913 161.073C51.6849 160.561 51.8317 159.832 51.8317 158.885C51.8317 158.255 51.7642 157.719 51.6292 157.276C51.4967 156.834 51.3049 156.496 51.054 156.264C50.8054 156.032 50.5059 155.916 50.1555 155.916C49.6299 155.916 49.2192 156.176 48.9233 156.694C48.6273 157.21 48.4794 157.941 48.4794 158.885C48.4794 159.515 48.5457 160.05 48.6782 160.49C48.8108 160.931 49.0014 161.266 49.25 161.495C49.5009 161.725 49.8028 161.84 50.1555 161.84ZM56.4055 162.621C55.8705 162.621 55.4147 162.475 55.0383 162.184C54.6619 161.891 54.3743 161.466 54.1754 160.909C53.9765 160.351 53.8771 159.676 53.8771 158.885C53.8771 158.099 53.9765 157.428 54.1754 156.872C54.3766 156.313 54.6655 155.887 55.0419 155.593C55.4207 155.297 55.8752 155.149 56.4055 155.149C56.9358 155.149 57.3892 155.297 57.7656 155.593C58.1444 155.887 58.4332 156.313 58.6321 156.872C58.8333 157.428 58.9339 158.099 58.9339 158.885C58.9339 159.676 58.8345 160.351 58.6356 160.909C58.4368 161.466 58.1491 161.891 57.7727 162.184C57.3963 162.475 56.9406 162.621 56.4055 162.621ZM56.4055 161.84C56.9358 161.84 57.3478 161.584 57.6413 161.073C57.9349 160.561 58.0817 159.832 58.0817 158.885C58.0817 158.255 58.0142 157.719 57.8792 157.276C57.7467 156.834 57.5549 156.496 57.304 156.264C57.0554 156.032 56.7559 155.916 56.4055 155.916C55.8799 155.916 55.4692 156.176 55.1733 156.694C54.8773 157.21 54.7294 157.941 54.7294 158.885C54.7294 159.515 54.7957 160.05 54.9282 160.49C55.0608 160.931 55.2514 161.266 55.5 161.495C55.7509 161.725 56.0528 161.84 56.4055 161.84Z" fill="#201E29"/>
<line x1="67.4658" y1="158.043" x2="505.999" y2="158.043" stroke="#8492A6" stroke-opacity="0.3"/>
<path d="M39.6078 117.118V124.391H38.7271V118.041H38.6845L36.9089 119.22V118.325L38.7271 117.118H39.6078ZM43.9721 124.49C43.5554 124.49 43.1802 124.407 42.8464 124.241C42.5126 124.076 42.2451 123.848 42.0438 123.56C41.8426 123.271 41.7325 122.942 41.7136 122.572H42.5658C42.599 122.902 42.7481 123.174 43.0133 123.389C43.2808 123.602 43.6004 123.709 43.9721 123.709C44.2704 123.709 44.5355 123.639 44.7676 123.499C45.0019 123.36 45.1854 123.168 45.318 122.924C45.4529 122.678 45.5204 122.4 45.5204 122.089C45.5204 121.772 45.4506 121.489 45.3109 121.241C45.1736 120.99 44.9842 120.792 44.7427 120.648C44.5012 120.503 44.2254 120.43 43.9153 120.428C43.6927 120.425 43.4643 120.46 43.2299 120.531C42.9955 120.599 42.8026 120.688 42.6511 120.797L41.8272 120.697L42.2676 117.118H46.046V117.899H43.0062L42.7505 120.044H42.7931C42.9423 119.926 43.1293 119.827 43.3542 119.749C43.5791 119.671 43.8135 119.632 44.0573 119.632C44.5024 119.632 44.8989 119.739 45.247 119.952C45.5973 120.162 45.872 120.451 46.0708 120.818C46.2721 121.185 46.3727 121.604 46.3727 122.075C46.3727 122.539 46.2685 122.954 46.0602 123.318C45.8542 123.68 45.5701 123.967 45.2079 124.178C44.8457 124.386 44.4337 124.49 43.9721 124.49ZM50.1555 124.49C49.6205 124.49 49.1647 124.344 48.7883 124.053C48.4119 123.76 48.1243 123.335 47.9254 122.778C47.7265 122.22 47.6271 121.545 47.6271 120.754C47.6271 119.968 47.7265 119.297 47.9254 118.741C48.1266 118.182 48.4155 117.756 48.7919 117.462C49.1707 117.166 49.6252 117.018 50.1555 117.018C50.6858 117.018 51.1392 117.166 51.5156 117.462C51.8944 117.756 52.1832 118.182 52.3821 118.741C52.5833 119.297 52.6839 119.968 52.6839 120.754C52.6839 121.545 52.5845 122.22 52.3856 122.778C52.1868 123.335 51.8991 123.76 51.5227 124.053C51.1463 124.344 50.6906 124.49 50.1555 124.49ZM50.1555 123.709C50.6858 123.709 51.0978 123.453 51.3913 122.942C51.6849 122.43 51.8317 121.701 51.8317 120.754C51.8317 120.125 51.7642 119.588 51.6292 119.146C51.4967 118.703 51.3049 118.366 51.054 118.134C50.8054 117.902 50.5059 117.786 50.1555 117.786C49.6299 117.786 49.2192 118.045 48.9233 118.563C48.6273 119.079 48.4794 119.81 48.4794 120.754C48.4794 121.384 48.5457 121.919 48.6782 122.359C48.8108 122.8 49.0014 123.135 49.25 123.364C49.5009 123.594 49.8028 123.709 50.1555 123.709ZM56.4055 124.49C55.8705 124.49 55.4147 124.344 55.0383 124.053C54.6619 123.76 54.3743 123.335 54.1754 122.778C53.9765 122.22 53.8771 121.545 53.8771 120.754C53.8771 119.968 53.9765 119.297 54.1754 118.741C54.3766 118.182 54.6655 117.756 55.0419 117.462C55.4207 117.166 55.8752 117.018 56.4055 117.018C56.9358 117.018 57.3892 117.166 57.7656 117.462C58.1444 117.756 58.4332 118.182 58.6321 118.741C58.8333 119.297 58.9339 119.968 58.9339 120.754C58.9339 121.545 58.8345 122.22 58.6356 122.778C58.4368 123.335 58.1491 123.76 57.7727 124.053C57.3963 124.344 56.9406 124.49 56.4055 124.49ZM56.4055 123.709C56.9358 123.709 57.3478 123.453 57.6413 122.942C57.9349 122.43 58.0817 121.701 58.0817 120.754C58.0817 120.125 58.0142 119.588 57.8792 119.146C57.7467 118.703 57.5549 118.366 57.304 118.134C57.0554 117.902 56.7559 117.786 56.4055 117.786C55.8799 117.786 55.4692 118.045 55.1733 118.563C54.8773 119.079 54.7294 119.81 54.7294 120.754C54.7294 121.384 54.7957 121.919 54.9282 122.359C55.0608 122.8 55.2514 123.135 55.5 123.364C55.7509 123.594 56.0528 123.709 56.4055 123.709Z" fill="#201E29"/>
<line x1="67.4658" y1="119.912" x2="505.999" y2="119.912" stroke="#8492A6" stroke-opacity="0.3"/>
<path d="M41.7286 86.2617V85.6225L44.1292 82.9947C44.4109 82.6869 44.6429 82.4194 44.8252 82.1921C45.0075 81.9625 45.1425 81.747 45.2301 81.5458C45.32 81.3422 45.365 81.1291 45.365 80.9066C45.365 80.6509 45.3034 80.4296 45.1803 80.2425C45.0596 80.0555 44.8939 79.9111 44.6832 79.8093C44.4725 79.7075 44.2357 79.6566 43.973 79.6566C43.6936 79.6566 43.4498 79.7146 43.2414 79.8306C43.0355 79.9442 42.8757 80.104 42.762 80.31C42.6508 80.516 42.5951 80.7575 42.5951 81.0344H41.757C41.757 80.6083 41.8553 80.2343 42.0518 79.9123C42.2483 79.5903 42.5158 79.3394 42.8543 79.1594C43.1953 78.9795 43.5776 78.8896 44.0014 78.8896C44.4275 78.8896 44.8051 78.9795 45.1342 79.1594C45.4633 79.3394 45.7213 79.582 45.9083 79.8874C46.0954 80.1928 46.1889 80.5326 46.1889 80.9066C46.1889 81.1741 46.1403 81.4357 46.0433 81.6914C45.9486 81.9447 45.7829 82.2276 45.5461 82.5401C45.3117 82.8503 44.9862 83.229 44.5695 83.6765L42.936 85.4237V85.4805H46.3167V86.2617H41.7286ZM50.1555 86.3612C49.6204 86.3612 49.1647 86.2156 48.7883 85.9244C48.4119 85.6308 48.1242 85.2058 47.9254 84.6495C47.7265 84.0908 47.6271 83.4161 47.6271 82.6254C47.6271 81.8394 47.7265 81.1682 47.9254 80.6119C48.1266 80.0531 48.4154 79.627 48.7918 79.3335C49.1706 79.0375 49.6252 78.8896 50.1555 78.8896C50.6858 78.8896 51.1392 79.0375 51.5156 79.3335C51.8944 79.627 52.1832 80.0531 52.382 80.6119C52.5833 81.1682 52.6839 81.8394 52.6839 82.6254C52.6839 83.4161 52.5845 84.0908 52.3856 84.6495C52.1867 85.2058 51.8991 85.6308 51.5227 85.9244C51.1463 86.2156 50.6905 86.3612 50.1555 86.3612ZM50.1555 85.5799C50.6858 85.5799 51.0977 85.3242 51.3913 84.8129C51.6848 84.3015 51.8316 83.5723 51.8316 82.6254C51.8316 81.9956 51.7642 81.4594 51.6292 81.0167C51.4966 80.574 51.3049 80.2366 51.0539 80.0046C50.8053 79.7726 50.5059 79.6566 50.1555 79.6566C49.6299 79.6566 49.2192 79.9158 48.9232 80.4343C48.6273 80.9504 48.4793 81.6808 48.4793 82.6254C48.4793 83.2551 48.5456 83.7901 48.6782 84.2305C48.8108 84.6708 49.0014 85.0058 49.2499 85.2354C49.5009 85.4651 49.8027 85.5799 50.1555 85.5799ZM56.4055 86.3612C55.8704 86.3612 55.4147 86.2156 55.0383 85.9244C54.6619 85.6308 54.3742 85.2058 54.1754 84.6495C53.9765 84.0908 53.8771 83.4161 53.8771 82.6254C53.8771 81.8394 53.9765 81.1682 54.1754 80.6119C54.3766 80.0531 54.6654 79.627 55.0418 79.3335C55.4206 79.0375 55.8752 78.8896 56.4055 78.8896C56.9358 78.8896 57.3892 79.0375 57.7656 79.3335C58.1444 79.627 58.4332 80.0531 58.632 80.6119C58.8333 81.1682 58.9339 81.8394 58.9339 82.6254C58.9339 83.4161 58.8345 84.0908 58.6356 84.6495C58.4367 85.2058 58.1491 85.6308 57.7727 85.9244C57.3963 86.2156 56.9405 86.3612 56.4055 86.3612ZM56.4055 85.5799C56.9358 85.5799 57.3477 85.3242 57.6413 84.8129C57.9348 84.3015 58.0816 83.5723 58.0816 82.6254C58.0816 81.9956 58.0142 81.4594 57.8792 81.0167C57.7466 80.574 57.5549 80.2366 57.3039 80.0046C57.0553 79.7726 56.7559 79.6566 56.4055 79.6566C55.8799 79.6566 55.4692 79.9158 55.1732 80.4343C54.8773 80.9504 54.7293 81.6808 54.7293 82.6254C54.7293 83.2551 54.7956 83.7901 54.9282 84.2305C55.0608 84.6708 55.2514 85.0058 55.4999 85.2354C55.7509 85.4651 56.0527 85.5799 56.4055 85.5799ZM56.4055 98.3612C55.8704 98.3612 55.4147 98.2156 55.0383 97.9244C54.6619 97.6308 54.3742 97.2058 54.1754 96.6495C53.9765 96.0908 53.8771 95.4161 53.8771 94.6254C53.8771 93.8394 53.9765 93.1682 54.1754 92.6119C54.3766 92.0531 54.6654 91.627 55.0418 91.3335C55.4206 91.0375 55.8752 90.8896 56.4055 90.8896C56.9358 90.8896 57.3892 91.0375 57.7656 91.3335C58.1444 91.627 58.4332 92.0531 58.632 92.6119C58.8333 93.1682 58.9339 93.8394 58.9339 94.6254C58.9339 95.4161 58.8345 96.0908 58.6356 96.6495C58.4367 97.2058 58.1491 97.6308 57.7727 97.9244C57.3963 98.2156 56.9405 98.3612 56.4055 98.3612ZM56.4055 97.5799C56.9358 97.5799 57.3477 97.3242 57.6413 96.8129C57.9348 96.3015 58.0816 95.5723 58.0816 94.6254C58.0816 93.9956 58.0142 93.4594 57.8792 93.0167C57.7466 92.574 57.5549 92.2366 57.3039 92.0046C57.0553 91.7726 56.7559 91.6566 56.4055 91.6566C55.8799 91.6566 55.4692 91.9158 55.1732 92.4343C54.8773 92.9504 54.7293 93.6808 54.7293 94.6254C54.7293 95.2551 54.7956 95.7901 54.9282 96.2305C55.0608 96.6708 55.2514 97.0058 55.4999 97.2354C55.7509 97.4651 56.0527 97.5799 56.4055 97.5799Z" fill="#201E29"/>
<line x1="67.4658" y1="81.7812" x2="505.999" y2="81.7812" stroke="#8492A6" stroke-opacity="0.3"/>
<path d="M35.6447 48.1309V47.4917L38.0452 44.8638C38.3269 44.556 38.559 44.2885 38.7412 44.0613C38.9235 43.8316 39.0585 43.6162 39.1461 43.415C39.236 43.2114 39.281 42.9983 39.281 42.7757C39.281 42.5201 39.2195 42.2987 39.0964 42.1117C38.9756 41.9247 38.8099 41.7802 38.5992 41.6784C38.3885 41.5766 38.1518 41.5257 37.889 41.5257C37.6096 41.5257 37.3658 41.5837 37.1574 41.6998C36.9515 41.8134 36.7917 41.9732 36.678 42.1792C36.5668 42.3851 36.5111 42.6266 36.5111 42.9036H35.6731C35.6731 42.4775 35.7713 42.1034 35.9678 41.7814C36.1643 41.4595 36.4318 41.2085 36.7704 41.0286C37.1113 40.8487 37.4936 40.7587 37.9174 40.7587C38.3435 40.7587 38.7211 40.8487 39.0502 41.0286C39.3793 41.2085 39.6373 41.4512 39.8243 41.7566C40.0114 42.062 40.1049 42.4017 40.1049 42.7757C40.1049 43.0433 40.0563 43.3049 39.9593 43.5605C39.8646 43.8139 39.6989 44.0968 39.4621 44.4093C39.2278 44.7194 38.9022 45.0982 38.4856 45.5456L36.852 47.2928V47.3496H40.2327V48.1309H35.6447ZM43.9721 48.2303C43.5554 48.2303 43.1802 48.1474 42.8464 47.9817C42.5126 47.816 42.245 47.5887 42.0438 47.2999C41.8426 47.0111 41.7325 46.682 41.7135 46.3127H42.5658C42.599 46.6417 42.7481 46.914 43.0133 47.1294C43.2808 47.3425 43.6004 47.449 43.9721 47.449C44.2704 47.449 44.5355 47.3792 44.7675 47.2395C45.0019 47.0998 45.1854 46.9081 45.3179 46.6642C45.4529 46.418 45.5204 46.1399 45.5204 45.8297C45.5204 45.5125 45.4505 45.2296 45.3108 44.981C45.1735 44.7301 44.9841 44.5324 44.7427 44.388C44.5012 44.2435 44.2254 44.1702 43.9153 44.1678C43.6927 44.1654 43.4643 44.1998 43.2299 44.2708C42.9955 44.3394 42.8026 44.4282 42.651 44.5371L41.8272 44.4377L42.2675 40.8581H46.0459V41.6394H43.0062L42.7505 43.7843H42.7931C42.9422 43.6659 43.1293 43.5676 43.3542 43.4895C43.5791 43.4114 43.8135 43.3723 44.0573 43.3723C44.5024 43.3723 44.8989 43.4789 45.2469 43.6919C45.5973 43.9026 45.8719 44.1915 46.0708 44.5584C46.272 44.9254 46.3726 45.3444 46.3726 45.8155C46.3726 46.2795 46.2685 46.6938 46.0601 47.0584C45.8542 47.4206 45.5701 47.7071 45.2079 47.9178C44.8456 48.1261 44.4337 48.2303 43.9721 48.2303ZM50.1555 48.2303C49.6204 48.2303 49.1647 48.0847 48.7883 47.7935C48.4119 47.4999 48.1242 47.075 47.9254 46.5186C47.7265 45.9599 47.6271 45.2852 47.6271 44.4945C47.6271 43.7085 47.7265 43.0373 47.9254 42.481C48.1266 41.9223 48.4154 41.4962 48.7918 41.2026C49.1706 40.9067 49.6252 40.7587 50.1555 40.7587C50.6858 40.7587 51.1392 40.9067 51.5156 41.2026C51.8944 41.4962 52.1832 41.9223 52.382 42.481C52.5833 43.0373 52.6839 43.7085 52.6839 44.4945C52.6839 45.2852 52.5845 45.9599 52.3856 46.5186C52.1867 47.075 51.8991 47.4999 51.5227 47.7935C51.1463 48.0847 50.6905 48.2303 50.1555 48.2303ZM50.1555 47.449C50.6858 47.449 51.0977 47.1934 51.3913 46.682C51.6848 46.1706 51.8316 45.4415 51.8316 44.4945C51.8316 43.8648 51.7642 43.3285 51.6292 42.8858C51.4966 42.4431 51.3049 42.1058 51.0539 41.8738C50.8053 41.6417 50.5059 41.5257 50.1555 41.5257C49.6299 41.5257 49.2192 41.785 48.9232 42.3034C48.6273 42.8195 48.4793 43.5499 48.4793 44.4945C48.4793 45.1242 48.5456 45.6593 48.6782 46.0996C48.8108 46.54 49.0014 46.8749 49.2499 47.1046C49.5009 47.3342 49.8027 47.449 50.1555 47.449ZM56.4055 48.2303C55.8704 48.2303 55.4147 48.0847 55.0383 47.7935C54.6619 47.4999 54.3742 47.075 54.1754 46.5186C53.9765 45.9599 53.8771 45.2852 53.8771 44.4945C53.8771 43.7085 53.9765 43.0373 54.1754 42.481C54.3766 41.9223 54.6654 41.4962 55.0418 41.2026C55.4206 40.9067 55.8752 40.7587 56.4055 40.7587C56.9358 40.7587 57.3892 40.9067 57.7656 41.2026C58.1444 41.4962 58.4332 41.9223 58.632 42.481C58.8333 43.0373 58.9339 43.7085 58.9339 44.4945C58.9339 45.2852 58.8345 45.9599 58.6356 46.5186C58.4367 47.075 58.1491 47.4999 57.7727 47.7935C57.3963 48.0847 56.9405 48.2303 56.4055 48.2303ZM56.4055 47.449C56.9358 47.449 57.3477 47.1934 57.6413 46.682C57.9348 46.1706 58.0816 45.4415 58.0816 44.4945C58.0816 43.8648 58.0142 43.3285 57.8792 42.8858C57.7466 42.4431 57.5549 42.1058 57.3039 41.8738C57.0553 41.6417 56.7559 41.5257 56.4055 41.5257C55.8799 41.5257 55.4692 41.785 55.1732 42.3034C54.8773 42.8195 54.7293 43.5499 54.7293 44.4945C54.7293 45.1242 54.7956 45.6593 54.9282 46.0996C55.0608 46.54 55.2514 46.8749 55.4999 47.1046C55.7509 47.3342 56.0527 47.449 56.4055 47.449Z" fill="#201E29"/>
<line x1="67.4658" y1="43.6504" x2="505.999" y2="43.6504" stroke="#8492A6" stroke-opacity="0.3"/>
<path d="M37.6235 10.0994C37.1547 10.0994 36.7369 10.0189 36.3699 9.85795C36.0054 9.69697 35.7154 9.47325 35.4999 9.18679C35.2868 8.89796 35.1708 8.56297 35.1519 8.18182H36.0468C36.0657 8.41619 36.1462 8.61861 36.2883 8.78906C36.4303 8.95715 36.6162 9.08736 36.8458 9.17969C37.0754 9.27202 37.3299 9.31818 37.6093 9.31818C37.9218 9.31818 38.1988 9.26373 38.4403 9.15483C38.6817 9.04593 38.8711 8.89441 39.0084 8.70028C39.1457 8.50616 39.2144 8.28125 39.2144 8.02557C39.2144 7.75805 39.1481 7.52249 39.0155 7.31889C38.883 7.11293 38.6888 6.95194 38.4332 6.83594C38.1775 6.71993 37.865 6.66193 37.4957 6.66193H36.9133V5.88068H37.4957C37.7845 5.88068 38.0378 5.8286 38.2556 5.72443C38.4758 5.62026 38.6474 5.47348 38.7705 5.28409C38.896 5.0947 38.9587 4.87216 38.9587 4.61648C38.9587 4.37026 38.9043 4.15601 38.7954 3.97372C38.6865 3.79143 38.5326 3.64938 38.3337 3.54759C38.1372 3.44579 37.9052 3.39489 37.6377 3.39489C37.3868 3.39489 37.15 3.44105 36.9275 3.53338C36.7073 3.62334 36.5274 3.75473 36.3877 3.92756C36.248 4.09801 36.1723 4.30398 36.1604 4.54545H35.3082C35.3224 4.1643 35.4372 3.83049 35.6526 3.54403C35.868 3.25521 36.1498 3.0303 36.4978 2.86932C36.8482 2.70833 37.2329 2.62784 37.6519 2.62784C38.1017 2.62784 38.4876 2.71899 38.8096 2.90128C39.1315 3.0812 39.3789 3.31913 39.5518 3.61506C39.7246 3.91098 39.811 4.23059 39.811 4.57386C39.811 4.98343 39.7033 5.33262 39.4878 5.62145C39.2748 5.91027 38.9848 6.11032 38.6178 6.22159V6.27841C39.0771 6.35417 39.4358 6.54948 39.6938 6.86435C39.9519 7.17685 40.0809 7.56392 40.0809 8.02557C40.0809 8.42093 39.9732 8.77604 39.7577 9.09091C39.5447 9.40341 39.2535 9.64962 38.8841 9.82955C38.5148 10.0095 38.0946 10.0994 37.6235 10.0994ZM43.9055 10.0994C43.3704 10.0994 42.9147 9.95384 42.5383 9.66264C42.1618 9.36908 41.8742 8.94413 41.6753 8.38778C41.4765 7.82907 41.377 7.15436 41.377 6.36364C41.377 5.57765 41.4765 4.90649 41.6753 4.35014C41.8766 3.79143 42.1654 3.36529 42.5418 3.07173C42.9206 2.7758 43.3752 2.62784 43.9055 2.62784C44.4358 2.62784 44.8891 2.7758 45.2655 3.07173C45.6443 3.36529 45.9332 3.79143 46.132 4.35014C46.3332 4.90649 46.4339 5.57765 46.4339 6.36364C46.4339 7.15436 46.3344 7.82907 46.1356 8.38778C45.9367 8.94413 45.6491 9.36908 45.2726 9.66264C44.8962 9.95384 44.4405 10.0994 43.9055 10.0994ZM43.9055 9.31818C44.4358 9.31818 44.8477 9.0625 45.1413 8.55114C45.4348 8.03977 45.5816 7.31061 45.5816 6.36364C45.5816 5.7339 45.5141 5.19768 45.3792 4.75497C45.2466 4.31226 45.0548 3.97491 44.8039 3.7429C44.5553 3.51089 44.2558 3.39489 43.9055 3.39489C43.3799 3.39489 42.9691 3.65412 42.6732 4.17259C42.3773 4.68868 42.2293 5.41903 42.2293 6.36364C42.2293 6.99337 42.2956 7.52841 42.4282 7.96875C42.5608 8.40909 42.7513 8.74408 42.9999 8.97372C43.2509 9.20336 43.5527 9.31818 43.9055 9.31818ZM50.1555 10.0994C49.6204 10.0994 49.1647 9.95384 48.7883 9.66264C48.4118 9.36908 48.1242 8.94413 47.9253 8.38778C47.7265 7.82907 47.627 7.15436 47.627 6.36364C47.627 5.57765 47.7265 4.90649 47.9253 4.35014C48.1266 3.79143 48.4154 3.36529 48.7918 3.07173C49.1706 2.7758 49.6252 2.62784 50.1555 2.62784C50.6858 2.62784 51.1391 2.7758 51.5155 3.07173C51.8943 3.36529 52.1832 3.79143 52.382 4.35014C52.5832 4.90649 52.6839 5.57765 52.6839 6.36364C52.6839 7.15436 52.5844 7.82907 52.3856 8.38778C52.1867 8.94413 51.8991 9.36908 51.5226 9.66264C51.1462 9.95384 50.6905 10.0994 50.1555 10.0994ZM50.1555 9.31818C50.6858 9.31818 51.0977 9.0625 51.3913 8.55114C51.6848 8.03977 51.8316 7.31061 51.8316 6.36364C51.8316 5.7339 51.7641 5.19768 51.6292 4.75497C51.4966 4.31226 51.3048 3.97491 51.0539 3.7429C50.8053 3.51089 50.5058 3.39489 50.1555 3.39489C49.6299 3.39489 49.2191 3.65412 48.9232 4.17259C48.6273 4.68868 48.4793 5.41903 48.4793 6.36364C48.4793 6.99337 48.5456 7.52841 48.6782 7.96875C48.8108 8.40909 49.0013 8.74408 49.2499 8.97372C49.5009 9.20336 49.8027 9.31818 50.1555 9.31818ZM56.4055 10.0994C55.8704 10.0994 55.4147 9.95384 55.0383 9.66264C54.6618 9.36908 54.3742 8.94413 54.1753 8.38778C53.9765 7.82907 53.877 7.15436 53.877 6.36364C53.877 5.57765 53.9765 4.90649 54.1753 4.35014C54.3766 3.79143 54.6654 3.36529 55.0418 3.07173C55.4206 2.7758 55.8752 2.62784 56.4055 2.62784C56.9358 2.62784 57.3891 2.7758 57.7655 3.07173C58.1443 3.36529 58.4332 3.79143 58.632 4.35014C58.8332 4.90649 58.9339 5.57765 58.9339 6.36364C58.9339 7.15436 58.8344 7.82907 58.6356 8.38778C58.4367 8.94413 58.1491 9.36908 57.7726 9.66264C57.3962 9.95384 56.9405 10.0994 56.4055 10.0994ZM56.4055 9.31818C56.9358 9.31818 57.3477 9.0625 57.6413 8.55114C57.9348 8.03977 58.0816 7.31061 58.0816 6.36364C58.0816 5.7339 58.0141 5.19768 57.8792 4.75497C57.7466 4.31226 57.5548 3.97491 57.3039 3.7429C57.0553 3.51089 56.7558 3.39489 56.4055 3.39489C55.8799 3.39489 55.4691 3.65412 55.1732 4.17259C54.8773 4.68868 54.7293 5.41903 54.7293 6.36364C54.7293 6.99337 54.7956 7.52841 54.9282 7.96875C55.0608 8.40909 55.2513 8.74408 55.4999 8.97372C55.7509 9.20336 56.0527 9.31818 56.4055 9.31818Z" fill="#201E29"/>
<line x1="67.4658" y1="5.52148" x2="505.999" y2="5.52148" stroke="#8492A6" stroke-opacity="0.3"/>
<rect x="114.098" y="119.684" width="7.93725" height="114.6" fill="#517DEE"/>
<rect x="126.004" y="98.5723" width="7.93725" height="135.71" fill="#EDBB75"/>
<rect x="149.815" y="145.848" width="7.93725" height="88.4054" fill="#517DEE"/>
<rect x="161.722" y="129.562" width="7.93725" height="104.691" fill="#EDBB75"/>
<rect x="185.532" y="100.748" width="7.93725" height="132.936" fill="#517DEE"/>
<rect x="197.438" y="76.2598" width="7.93725" height="157.424" fill="#EDBB75"/>
<rect x="221.251" y="114.451" width="7.93725" height="119.838" fill="#517DEE"/>
<rect x="233.157" y="92.375" width="7.93725" height="141.914" fill="#EDBB75"/>
<rect x="328.404" y="114.451" width="7.93725" height="119.838" fill="#517DEE"/>
<rect x="340.311" y="92.375" width="7.93725" height="141.914" fill="#EDBB75"/>
<rect x="256.968" y="131.146" width="7.93725" height="102.812" fill="#517DEE"/>
<rect x="268.874" y="112.207" width="7.93725" height="121.751" fill="#EDBB75"/>
<rect x="364.122" y="131.324" width="7.93725" height="102.812" fill="#517DEE"/>
<rect x="376.028" y="112.385" width="7.93725" height="121.751" fill="#EDBB75"/>
<rect x="292.686" y="169.775" width="7.93725" height="63.5209" fill="#517DEE"/>
<rect x="304.592" y="158.072" width="7.93725" height="75.2222" fill="#EDBB75"/>
<rect x="78.3828" y="169.775" width="7.93725" height="63.5209" fill="#517DEE"/>
<rect x="90.2891" y="158.072" width="7.93725" height="75.2222" fill="#EDBB75"/>
</svg>
