<svg width="672" height="293" viewBox="0 0 672 293" fill="none" xmlns="http://www.w3.org/2000/svg">
<path d="M17 143.855H7.54545V140.661C7.54545 139.919 7.67933 139.312 7.94709 138.842C8.21177 138.368 8.57031 138.017 9.02273 137.789C9.47514 137.561 9.97988 137.447 10.5369 137.447C11.094 137.447 11.6003 137.561 12.0558 137.789C12.5112 138.014 12.8744 138.362 13.1452 138.832C13.413 139.303 13.5469 139.906 13.5469 140.642V142.932H12.5312V140.679C12.5312 140.171 12.4435 139.763 12.2681 139.456C12.0927 139.148 11.8557 138.925 11.5572 138.786C11.2556 138.645 10.9155 138.574 10.5369 138.574C10.1584 138.574 9.81984 138.645 9.52131 138.786C9.22277 138.925 8.98887 139.149 8.8196 139.46C8.64725 139.771 8.56108 140.183 8.56108 140.697V142.71H17V143.855ZM17.1662 133.664C17.1662 134.114 17.0816 134.521 16.9123 134.888C16.7399 135.254 16.4922 135.545 16.169 135.76C15.8428 135.976 15.4489 136.083 14.9872 136.083C14.581 136.083 14.2517 136.003 13.9993 135.843C13.7438 135.683 13.5438 135.469 13.3991 135.202C13.2545 134.934 13.1468 134.638 13.076 134.315C13.0021 133.989 12.9437 133.661 12.9006 133.332C12.8452 132.901 12.8036 132.552 12.7759 132.284C12.7451 132.013 12.6944 131.816 12.6236 131.693C12.5528 131.567 12.4297 131.504 12.2543 131.504H12.2173C11.7618 131.504 11.4079 131.628 11.1555 131.878C10.9032 132.124 10.777 132.498 10.777 132.999C10.777 133.52 10.8909 133.927 11.1186 134.223C11.3464 134.518 11.5895 134.726 11.848 134.846L11.4787 135.88C11.0478 135.695 10.7124 135.449 10.4723 135.142C10.2292 134.831 10.0599 134.492 9.96449 134.126C9.866 133.757 9.81676 133.393 9.81676 133.036C9.81676 132.809 9.84446 132.547 9.89986 132.252C9.95218 131.953 10.0614 131.665 10.2276 131.388C10.3938 131.108 10.6446 130.876 10.9801 130.691C11.3156 130.507 11.7649 130.414 12.3281 130.414H17V131.504H16.0398V131.559C16.1937 131.633 16.3583 131.756 16.5337 131.928C16.7092 132.101 16.8584 132.33 16.9815 132.616C17.1046 132.903 17.1662 133.252 17.1662 133.664ZM16.1875 133.498C16.1875 133.067 16.1029 132.704 15.9336 132.409C15.7643 132.11 15.5458 131.885 15.2781 131.735C15.0103 131.581 14.7287 131.504 14.4332 131.504H13.4361C13.4915 131.55 13.5423 131.651 13.5884 131.808C13.6315 131.962 13.67 132.141 13.7038 132.344C13.7346 132.544 13.7623 132.739 13.7869 132.93C13.8085 133.118 13.8269 133.27 13.8423 133.387C13.8793 133.67 13.9393 133.935 14.0224 134.181C14.1024 134.424 14.224 134.621 14.3871 134.772C14.5471 134.92 14.7656 134.994 15.0426 134.994C15.4212 134.994 15.7074 134.854 15.9013 134.574C16.0921 134.291 16.1875 133.932 16.1875 133.498ZM9.90909 125.342H10.8324V129.017H9.90909V125.342ZM8.21023 127.946V126.856H14.9688C15.2765 126.856 15.5073 126.811 15.6612 126.722C15.812 126.63 15.9136 126.513 15.9659 126.371C16.0152 126.227 16.0398 126.074 16.0398 125.914C16.0398 125.794 16.0336 125.696 16.0213 125.619C16.0059 125.542 15.9936 125.48 15.9844 125.434L16.9631 125.213C16.9908 125.286 17.0185 125.39 17.0462 125.522C17.0769 125.654 17.0923 125.822 17.0923 126.025C17.0923 126.333 17.0262 126.634 16.8938 126.93C16.7615 127.222 16.5599 127.465 16.2891 127.659C16.0182 127.85 15.6766 127.946 15.2642 127.946H8.21023ZM17 123.703H9.90909V122.614H17V123.703ZM8.72727 123.149C8.72727 123.361 8.65495 123.545 8.5103 123.698C8.36565 123.849 8.19176 123.925 7.98864 123.925C7.78551 123.925 7.61162 123.849 7.46697 123.698C7.32232 123.545 7.25 123.361 7.25 123.149C7.25 122.937 7.32232 122.755 7.46697 122.604C7.61162 122.45 7.78551 122.373 7.98864 122.373C8.19176 122.373 8.36565 122.45 8.5103 122.604C8.65495 122.755 8.72727 122.937 8.72727 123.149ZM17.1477 117.645C17.1477 118.328 16.9969 118.918 16.6953 119.413C16.3906 119.906 15.9659 120.286 15.4212 120.553C14.8733 120.818 14.2363 120.95 13.5099 120.95C12.7836 120.95 12.1435 120.818 11.5895 120.553C11.0324 120.286 10.5985 119.913 10.2876 119.436C9.97372 118.956 9.81676 118.396 9.81676 117.756C9.81676 117.387 9.87831 117.022 10.0014 116.662C10.1245 116.302 10.3246 115.974 10.6016 115.678C10.8755 115.383 11.2386 115.148 11.6911 114.972C12.1435 114.797 12.7005 114.709 13.3622 114.709H13.8239V120.175H12.8821V115.817C12.482 115.817 12.125 115.897 11.8111 116.057C11.4972 116.214 11.2494 116.439 11.0678 116.731C10.8862 117.02 10.7955 117.362 10.7955 117.756C10.7955 118.19 10.9032 118.565 11.1186 118.882C11.331 119.196 11.608 119.438 11.9496 119.607C12.2912 119.776 12.6574 119.861 13.0483 119.861H13.6761C14.2116 119.861 14.6656 119.769 15.038 119.584C15.4073 119.396 15.6889 119.136 15.8828 118.804C16.0736 118.471 16.169 118.085 16.169 117.645C16.169 117.359 16.129 117.1 16.049 116.869C15.9659 116.636 15.8428 116.434 15.6797 116.265C15.5135 116.095 15.3073 115.965 15.0611 115.872L15.3565 114.82C15.7135 114.931 16.0275 115.117 16.2983 115.378C16.5661 115.64 16.7753 115.963 16.9261 116.348C17.0739 116.733 17.1477 117.165 17.1477 117.645ZM12.7344 111.962H17V113.052H9.90909V111.999H11.017V111.907C10.657 111.741 10.3677 111.488 10.1491 111.15C9.92756 110.811 9.81676 110.374 9.81676 109.839C9.81676 109.358 9.91525 108.938 10.1122 108.578C10.3061 108.218 10.6016 107.938 10.9986 107.738C11.3925 107.538 11.8911 107.438 12.4943 107.438H17V108.528H12.5682C12.0111 108.528 11.5772 108.672 11.2663 108.961C10.9524 109.251 10.7955 109.648 10.7955 110.153C10.7955 110.5 10.8709 110.811 11.0217 111.085C11.1725 111.356 11.3925 111.57 11.6818 111.727C11.9711 111.884 12.322 111.962 12.7344 111.962ZM9.90909 102.363H10.8324V106.038H9.90909V102.363ZM8.21023 104.967V103.878H14.9688C15.2765 103.878 15.5073 103.833 15.6612 103.744C15.812 103.651 15.9136 103.534 15.9659 103.393C16.0152 103.248 16.0398 103.096 16.0398 102.936C16.0398 102.816 16.0336 102.717 16.0213 102.64C16.0059 102.563 15.9936 102.502 15.9844 102.456L16.9631 102.234C16.9908 102.308 17.0185 102.411 17.0462 102.543C17.0769 102.676 17.0923 102.843 17.0923 103.047C17.0923 103.354 17.0262 103.656 16.8938 103.951C16.7615 104.244 16.5599 104.487 16.2891 104.681C16.0182 104.872 15.6766 104.967 15.2642 104.967H8.21023ZM11.4972 95.8287L11.7741 96.8074C11.611 96.869 11.4525 96.9598 11.2987 97.0798C11.1417 97.1968 11.0124 97.3568 10.9109 97.5599C10.8093 97.7631 10.7585 98.0231 10.7585 98.3401C10.7585 98.7741 10.8585 99.1357 11.0586 99.425C11.2556 99.7112 11.5064 99.8543 11.8111 99.8543C12.0819 99.8543 12.2958 99.7558 12.4528 99.5589C12.6097 99.3619 12.7405 99.0541 12.8452 98.6356L13.1037 97.583C13.2576 96.949 13.493 96.4766 13.81 96.1657C14.1239 95.8549 14.5286 95.6995 15.0241 95.6995C15.4304 95.6995 15.7936 95.8164 16.1136 96.0503C16.4337 96.2812 16.6861 96.6043 16.8707 97.0198C17.0554 97.4353 17.1477 97.9185 17.1477 98.4694C17.1477 99.1926 16.9908 99.7912 16.6768 100.265C16.3629 100.739 15.9044 101.039 15.3011 101.165L15.0426 100.131C15.4242 100.033 15.7105 99.8466 15.9013 99.5727C16.0921 99.2957 16.1875 98.9341 16.1875 98.4878C16.1875 97.98 16.0798 97.5769 15.8643 97.2783C15.6458 96.9767 15.3842 96.8259 15.0795 96.8259C14.8333 96.8259 14.6271 96.9121 14.4609 97.0844C14.2917 97.2568 14.1655 97.5215 14.0824 97.8785L13.8054 99.0603C13.6515 99.7097 13.413 100.187 13.0898 100.491C12.7636 100.793 12.3558 100.944 11.8665 100.944C11.4664 100.944 11.1125 100.831 10.8047 100.607C10.4969 100.379 10.2553 100.07 10.0799 99.6789C9.90447 99.2849 9.81676 98.8387 9.81676 98.3401C9.81676 97.6384 9.97064 97.0875 10.2784 96.6874C10.5862 96.2842 10.9924 95.998 11.4972 95.8287Z" fill="#201E29"/>
<path d="M88.7077 250.727H89.5884V255.926C89.5884 256.39 89.5032 256.784 89.3327 257.109C89.1623 257.433 88.922 257.679 88.6119 257.847C88.3017 258.015 87.936 258.099 87.5146 258.099C87.1168 258.099 86.7629 258.027 86.4528 257.883C86.1426 257.736 85.8988 257.528 85.7212 257.258C85.5437 256.988 85.4549 256.667 85.4549 256.295H86.3214C86.3214 256.501 86.3723 256.681 86.4741 256.835C86.5782 256.987 86.7203 257.105 86.9002 257.19C87.0801 257.276 87.2849 257.318 87.5146 257.318C87.7679 257.318 87.9833 257.265 88.1609 257.158C88.3384 257.052 88.4734 256.896 88.5657 256.69C88.6604 256.481 88.7077 256.227 88.7077 255.926V250.727ZM92.8448 258.128C92.4992 258.128 92.1855 258.063 91.9038 257.933C91.622 257.8 91.3983 257.609 91.2326 257.361C91.0669 257.11 90.984 256.807 90.984 256.452C90.984 256.139 91.0456 255.886 91.1687 255.692C91.2918 255.495 91.4563 255.341 91.6623 255.23C91.8683 255.119 92.0955 255.036 92.3441 254.982C92.5951 254.925 92.8472 254.88 93.1005 254.847C93.4319 254.804 93.7006 254.772 93.9066 254.751C94.1149 254.727 94.2665 254.688 94.3612 254.634C94.4582 254.579 94.5067 254.484 94.5067 254.349V254.321C94.5067 253.971 94.4109 253.698 94.2191 253.504C94.0297 253.31 93.7421 253.213 93.3562 253.213C92.9561 253.213 92.6424 253.301 92.4151 253.476C92.1879 253.651 92.0281 253.838 91.9357 254.037L91.1403 253.753C91.2823 253.421 91.4717 253.163 91.7085 252.979C91.9476 252.792 92.208 252.661 92.4897 252.588C92.7738 252.512 93.0531 252.474 93.3278 252.474C93.503 252.474 93.7042 252.496 93.9315 252.538C94.1611 252.579 94.3825 252.663 94.5955 252.79C94.811 252.918 94.9897 253.111 95.1317 253.369C95.2738 253.627 95.3448 253.973 95.3448 254.406V258H94.5067V257.261H94.4641C94.4073 257.38 94.3126 257.506 94.18 257.641C94.0475 257.776 93.8711 257.891 93.6509 257.986C93.4308 258.08 93.1621 258.128 92.8448 258.128ZM92.9727 257.375C93.3041 257.375 93.5835 257.31 93.8107 257.18C94.0404 257.049 94.2132 256.881 94.3292 256.675C94.4476 256.469 94.5067 256.253 94.5067 256.026V255.259C94.4712 255.301 94.3931 255.34 94.2724 255.376C94.154 255.409 94.0167 255.438 93.8604 255.464C93.7066 255.488 93.5562 255.509 93.4094 255.528C93.265 255.545 93.1478 255.559 93.0579 255.571C92.8401 255.599 92.6365 255.646 92.4471 255.71C92.2601 255.771 92.1085 255.865 91.9925 255.99C91.8789 256.113 91.8221 256.281 91.8221 256.494C91.8221 256.786 91.9298 257.006 92.1452 257.155C92.363 257.302 92.6388 257.375 92.9727 257.375ZM97.7125 254.719V258H96.8745V252.545H97.6841V253.398H97.7551C97.883 253.121 98.0771 252.898 98.3375 252.73C98.598 252.56 98.9341 252.474 99.3461 252.474C99.7154 252.474 100.039 252.55 100.316 252.702C100.593 252.851 100.808 253.078 100.962 253.384C101.116 253.687 101.193 254.07 101.193 254.534V258H100.355V254.591C100.355 254.162 100.243 253.829 100.021 253.589C99.7982 253.348 99.4928 253.227 99.1046 253.227C98.8371 253.227 98.598 253.285 98.3873 253.401C98.1789 253.517 98.0144 253.687 97.8936 253.909C97.7729 254.132 97.7125 254.402 97.7125 254.719Z" fill="#201E29"/>
<path d="M135.131 258V250.727H139.491V251.509H136.011V253.966H139.165V254.747H136.011V258H135.131ZM142.773 258.114C142.247 258.114 141.794 257.998 141.413 257.766C141.034 257.531 140.741 257.205 140.536 256.786C140.332 256.364 140.23 255.874 140.23 255.315C140.23 254.757 140.332 254.264 140.536 253.838C140.741 253.41 141.028 253.076 141.395 252.837C141.764 252.595 142.195 252.474 142.688 252.474C142.972 252.474 143.252 252.522 143.529 252.616C143.806 252.711 144.058 252.865 144.286 253.078C144.513 253.289 144.694 253.568 144.829 253.916C144.964 254.264 145.031 254.693 145.031 255.202V255.557H140.827V254.832H144.179C144.179 254.525 144.117 254.25 143.994 254.009C143.874 253.767 143.701 253.576 143.476 253.437C143.253 253.297 142.991 253.227 142.688 253.227C142.354 253.227 142.065 253.31 141.821 253.476C141.58 253.639 141.394 253.852 141.263 254.115C141.133 254.378 141.068 254.66 141.068 254.96V255.443C141.068 255.855 141.139 256.204 141.281 256.491C141.426 256.775 141.626 256.991 141.881 257.141C142.137 257.287 142.434 257.361 142.773 257.361C142.993 257.361 143.192 257.33 143.369 257.268C143.549 257.205 143.704 257.11 143.835 256.984C143.965 256.857 144.065 256.698 144.136 256.509L144.946 256.736C144.861 257.01 144.718 257.252 144.516 257.46C144.315 257.666 144.067 257.827 143.771 257.943C143.475 258.057 143.142 258.114 142.773 258.114ZM146.42 258V250.727H147.258V253.412H147.329C147.39 253.317 147.476 253.196 147.585 253.05C147.696 252.901 147.854 252.768 148.06 252.652C148.269 252.534 148.55 252.474 148.906 252.474C149.365 252.474 149.77 252.589 150.12 252.819C150.47 253.049 150.744 253.374 150.94 253.795C151.137 254.217 151.235 254.714 151.235 255.287C151.235 255.865 151.137 256.365 150.94 256.789C150.744 257.21 150.472 257.537 150.124 257.769C149.776 257.999 149.374 258.114 148.92 258.114C148.569 258.114 148.289 258.056 148.078 257.94C147.867 257.821 147.705 257.687 147.592 257.538C147.478 257.387 147.39 257.261 147.329 257.162H147.229V258H146.42ZM147.244 255.273C147.244 255.685 147.304 256.048 147.425 256.363C147.545 256.675 147.722 256.92 147.954 257.098C148.186 257.273 148.47 257.361 148.806 257.361C149.156 257.361 149.449 257.268 149.683 257.084C149.92 256.897 150.098 256.646 150.216 256.331C150.337 256.014 150.397 255.661 150.397 255.273C150.397 254.889 150.338 254.544 150.219 254.236C150.103 253.926 149.927 253.681 149.69 253.501C149.456 253.318 149.161 253.227 148.806 253.227C148.465 253.227 148.179 253.314 147.947 253.487C147.715 253.657 147.54 253.896 147.421 254.204C147.303 254.509 147.244 254.866 147.244 255.273Z" fill="#201E29"/>
<path d="M184.755 250.727H185.806L188.277 256.764H188.363L190.834 250.727H191.885V258H191.062V252.474H190.991L188.718 258H187.922L185.65 252.474H185.579V258H184.755V250.727ZM195.143 258.128C194.797 258.128 194.483 258.063 194.202 257.933C193.92 257.8 193.696 257.609 193.53 257.361C193.365 257.11 193.282 256.807 193.282 256.452C193.282 256.139 193.343 255.886 193.467 255.692C193.59 255.495 193.754 255.341 193.96 255.23C194.166 255.119 194.393 255.036 194.642 254.982C194.893 254.925 195.145 254.88 195.398 254.847C195.73 254.804 195.998 254.772 196.204 254.751C196.413 254.727 196.564 254.688 196.659 254.634C196.756 254.579 196.805 254.484 196.805 254.349V254.321C196.805 253.971 196.709 253.698 196.517 253.504C196.328 253.31 196.04 253.213 195.654 253.213C195.254 253.213 194.94 253.301 194.713 253.476C194.486 253.651 194.326 253.838 194.234 254.037L193.438 253.753C193.58 253.421 193.77 253.163 194.006 252.979C194.245 252.792 194.506 252.661 194.788 252.588C195.072 252.512 195.351 252.474 195.626 252.474C195.801 252.474 196.002 252.496 196.229 252.538C196.459 252.579 196.68 252.663 196.893 252.79C197.109 252.918 197.288 253.111 197.43 253.369C197.572 253.627 197.643 253.973 197.643 254.406V258H196.805V257.261H196.762C196.705 257.38 196.61 257.506 196.478 257.641C196.345 257.776 196.169 257.891 195.949 257.986C195.729 258.08 195.46 258.128 195.143 258.128ZM195.271 257.375C195.602 257.375 195.881 257.31 196.109 257.18C196.338 257.049 196.511 256.881 196.627 256.675C196.745 256.469 196.805 256.253 196.805 256.026V255.259C196.769 255.301 196.691 255.34 196.57 255.376C196.452 255.409 196.315 255.438 196.158 255.464C196.004 255.488 195.854 255.509 195.707 255.528C195.563 255.545 195.446 255.559 195.356 255.571C195.138 255.599 194.934 255.646 194.745 255.71C194.558 255.771 194.406 255.865 194.29 255.99C194.177 256.113 194.12 256.281 194.12 256.494C194.12 256.786 194.228 257.006 194.443 257.155C194.661 257.302 194.937 257.375 195.271 257.375ZM199.172 258V252.545H199.982V253.369H200.039C200.138 253.099 200.318 252.88 200.579 252.712C200.839 252.544 201.133 252.46 201.459 252.46C201.521 252.46 201.598 252.461 201.69 252.464C201.782 252.466 201.852 252.47 201.9 252.474V253.327C201.871 253.32 201.806 253.309 201.704 253.295C201.605 253.278 201.499 253.27 201.388 253.27C201.123 253.27 200.886 253.326 200.678 253.437C200.472 253.546 200.309 253.697 200.188 253.891C200.07 254.083 200.01 254.302 200.01 254.548V258H199.172Z" fill="#201E29"/>
<path d="M235.893 258H234.97L237.64 250.727H238.549L241.22 258H240.296L238.123 251.878H238.066L235.893 258ZM236.234 255.159H239.955V255.94H236.234V255.159ZM242.239 260.045V252.545H243.048V253.412H243.148C243.209 253.317 243.295 253.196 243.403 253.05C243.515 252.901 243.673 252.768 243.879 252.652C244.088 252.534 244.369 252.474 244.725 252.474C245.184 252.474 245.589 252.589 245.939 252.819C246.289 253.049 246.563 253.374 246.759 253.795C246.956 254.217 247.054 254.714 247.054 255.287C247.054 255.865 246.956 256.365 246.759 256.789C246.563 257.21 246.291 257.537 245.943 257.769C245.595 257.999 245.193 258.114 244.739 258.114C244.388 258.114 244.108 258.056 243.897 257.94C243.686 257.821 243.524 257.687 243.411 257.538C243.297 257.387 243.209 257.261 243.148 257.162H243.077V260.045H242.239ZM243.063 255.273C243.063 255.685 243.123 256.048 243.244 256.363C243.364 256.675 243.541 256.92 243.773 257.098C244.005 257.273 244.289 257.361 244.625 257.361C244.975 257.361 245.268 257.268 245.502 257.084C245.739 256.897 245.917 256.646 246.035 256.331C246.156 256.014 246.216 255.661 246.216 255.273C246.216 254.889 246.157 254.544 246.038 254.236C245.922 253.926 245.746 253.681 245.509 253.501C245.275 253.318 244.98 253.227 244.625 253.227C244.284 253.227 243.998 253.314 243.766 253.487C243.534 253.657 243.359 253.896 243.24 254.204C243.122 254.509 243.063 254.866 243.063 255.273ZM248.332 258V252.545H249.142V253.369H249.199C249.298 253.099 249.478 252.88 249.739 252.712C249.999 252.544 250.293 252.46 250.619 252.46C250.681 252.46 250.758 252.461 250.85 252.464C250.943 252.466 251.012 252.47 251.06 252.474V253.327C251.031 253.32 250.966 253.309 250.864 253.295C250.765 253.278 250.66 253.27 250.548 253.27C250.283 253.27 250.046 253.326 249.838 253.437C249.632 253.546 249.469 253.697 249.348 253.891C249.23 254.083 249.171 254.302 249.171 254.548V258H248.332Z" fill="#201E29"/>
<path d="M283.93 250.727H284.981L287.452 256.764H287.537L290.009 250.727H291.06V258H290.236V252.474H290.165L287.893 258H287.097L284.824 252.474H284.753V258H283.93V250.727ZM294.317 258.128C293.972 258.128 293.658 258.063 293.376 257.933C293.095 257.8 292.871 257.609 292.705 257.361C292.54 257.11 292.457 256.807 292.457 256.452C292.457 256.139 292.518 255.886 292.641 255.692C292.764 255.495 292.929 255.341 293.135 255.23C293.341 255.119 293.568 255.036 293.817 254.982C294.068 254.925 294.32 254.88 294.573 254.847C294.905 254.804 295.173 254.772 295.379 254.751C295.588 254.727 295.739 254.688 295.834 254.634C295.931 254.579 295.979 254.484 295.979 254.349V254.321C295.979 253.971 295.884 253.698 295.692 253.504C295.502 253.31 295.215 253.213 294.829 253.213C294.429 253.213 294.115 253.301 293.888 253.476C293.661 253.651 293.501 253.838 293.408 254.037L292.613 253.753C292.755 253.421 292.944 253.163 293.181 252.979C293.42 252.792 293.681 252.661 293.962 252.588C294.246 252.512 294.526 252.474 294.8 252.474C294.976 252.474 295.177 252.496 295.404 252.538C295.634 252.579 295.855 252.663 296.068 252.79C296.284 252.918 296.462 253.111 296.604 253.369C296.746 253.627 296.817 253.973 296.817 254.406V258H295.979V257.261H295.937C295.88 257.38 295.785 257.506 295.653 257.641C295.52 257.776 295.344 257.891 295.124 257.986C294.903 258.08 294.635 258.128 294.317 258.128ZM294.445 257.375C294.777 257.375 295.056 257.31 295.283 257.18C295.513 257.049 295.686 256.881 295.802 256.675C295.92 256.469 295.979 256.253 295.979 256.026V255.259C295.944 255.301 295.866 255.34 295.745 255.376C295.627 255.409 295.489 255.438 295.333 255.464C295.179 255.488 295.029 255.509 294.882 255.528C294.738 255.545 294.621 255.559 294.531 255.571C294.313 255.599 294.109 255.646 293.92 255.71C293.733 255.771 293.581 255.865 293.465 255.99C293.352 256.113 293.295 256.281 293.295 256.494C293.295 256.786 293.402 257.006 293.618 257.155C293.836 257.302 294.112 257.375 294.445 257.375ZM298.692 260.045C298.55 260.045 298.423 260.034 298.312 260.01C298.2 259.989 298.123 259.967 298.081 259.946L298.294 259.207C298.497 259.259 298.677 259.278 298.834 259.264C298.99 259.25 299.128 259.18 299.249 259.055C299.372 258.932 299.485 258.732 299.586 258.455L299.743 258.028L297.726 252.545H298.635L300.14 256.892H300.197L301.703 252.545H302.612L300.297 258.795C300.193 259.077 300.064 259.31 299.91 259.495C299.756 259.682 299.577 259.821 299.373 259.911C299.172 260 298.945 260.045 298.692 260.045Z" fill="#201E29"/>
<path d="M338.12 250.727H339.001V255.926C339.001 256.39 338.915 256.784 338.745 257.109C338.574 257.433 338.334 257.679 338.024 257.847C337.714 258.015 337.348 258.099 336.927 258.099C336.529 258.099 336.175 258.027 335.865 257.883C335.555 257.736 335.311 257.528 335.133 257.258C334.956 256.988 334.867 256.667 334.867 256.295H335.733C335.733 256.501 335.784 256.681 335.886 256.835C335.99 256.987 336.132 257.105 336.312 257.19C336.492 257.276 336.697 257.318 336.927 257.318C337.18 257.318 337.395 257.265 337.573 257.158C337.751 257.052 337.885 256.896 337.978 256.69C338.073 256.481 338.12 256.227 338.12 255.926V250.727ZM344.089 255.77V252.545H344.927V258H344.089V257.077H344.032C343.905 257.354 343.706 257.589 343.436 257.783C343.166 257.975 342.825 258.071 342.413 258.071C342.072 258.071 341.769 257.996 341.504 257.847C341.239 257.696 341.031 257.469 340.879 257.165C340.728 256.86 340.652 256.475 340.652 256.011V252.545H341.49V255.955C341.49 256.352 341.601 256.67 341.824 256.906C342.049 257.143 342.335 257.261 342.683 257.261C342.891 257.261 343.103 257.208 343.319 257.102C343.537 256.995 343.719 256.832 343.866 256.612C344.015 256.391 344.089 256.111 344.089 255.77ZM347.3 254.719V258H346.462V252.545H347.272V253.398H347.343C347.471 253.121 347.665 252.898 347.925 252.73C348.186 252.56 348.522 252.474 348.934 252.474C349.303 252.474 349.626 252.55 349.903 252.702C350.18 252.851 350.396 253.078 350.55 253.384C350.704 253.687 350.781 254.07 350.781 254.534V258H349.942V254.591C349.942 254.162 349.831 253.829 349.609 253.589C349.386 253.348 349.081 253.227 348.692 253.227C348.425 253.227 348.186 253.285 347.975 253.401C347.767 253.517 347.602 253.687 347.482 253.909C347.361 254.132 347.3 254.402 347.3 254.719Z" fill="#201E29"/>
<path d="M389.858 250.727H390.739V255.926C390.739 256.39 390.654 256.784 390.483 257.109C390.313 257.433 390.072 257.679 389.762 257.847C389.452 258.015 389.086 258.099 388.665 258.099C388.267 258.099 387.913 258.027 387.603 257.883C387.293 257.736 387.049 257.528 386.872 257.258C386.694 256.988 386.605 256.667 386.605 256.295H387.472C387.472 256.501 387.523 256.681 387.624 256.835C387.729 256.987 387.871 257.105 388.051 257.19C388.231 257.276 388.435 257.318 388.665 257.318C388.918 257.318 389.134 257.265 389.311 257.158C389.489 257.052 389.624 256.896 389.716 256.69C389.811 256.481 389.858 256.227 389.858 255.926V250.727ZM395.828 255.77V252.545H396.666V258H395.828V257.077H395.771C395.643 257.354 395.444 257.589 395.174 257.783C394.904 257.975 394.563 258.071 394.151 258.071C393.811 258.071 393.508 257.996 393.242 257.847C392.977 257.696 392.769 257.469 392.617 257.165C392.466 256.86 392.39 256.475 392.39 256.011V252.545H393.228V255.955C393.228 256.352 393.339 256.67 393.562 256.906C393.787 257.143 394.073 257.261 394.421 257.261C394.63 257.261 394.842 257.208 395.057 257.102C395.275 256.995 395.457 256.832 395.604 256.612C395.753 256.391 395.828 256.111 395.828 255.77ZM399.039 250.727V258H398.201V250.727H399.039Z" fill="#201E29"/>
<path d="M434.848 258H433.925L436.595 250.727H437.504L440.175 258H439.251L437.078 251.878H437.021L434.848 258ZM435.189 255.159H438.91V255.94H435.189V255.159ZM444.631 255.77V252.545H445.469V258H444.631V257.077H444.574C444.447 257.354 444.248 257.589 443.978 257.783C443.708 257.975 443.367 258.071 442.955 258.071C442.614 258.071 442.311 257.996 442.046 257.847C441.781 257.696 441.573 257.469 441.421 257.165C441.27 256.86 441.194 256.475 441.194 256.011V252.545H442.032V255.955C442.032 256.352 442.143 256.67 442.366 256.906C442.591 257.143 442.877 257.261 443.225 257.261C443.433 257.261 443.645 257.208 443.861 257.102C444.079 256.995 444.261 256.832 444.408 256.612C444.557 256.391 444.631 256.111 444.631 255.77ZM449.206 260.159C448.801 260.159 448.453 260.107 448.162 260.003C447.871 259.901 447.628 259.766 447.434 259.598C447.242 259.432 447.09 259.255 446.976 259.065L447.644 258.597C447.719 258.696 447.815 258.81 447.931 258.938C448.047 259.068 448.206 259.18 448.407 259.275C448.611 259.372 448.877 259.42 449.206 259.42C449.646 259.42 450.01 259.314 450.296 259.101C450.583 258.888 450.726 258.554 450.726 258.099V256.991H450.655C450.593 257.091 450.506 257.214 450.392 257.361C450.281 257.505 450.12 257.634 449.909 257.748C449.701 257.859 449.419 257.915 449.064 257.915C448.624 257.915 448.228 257.811 447.878 257.602C447.53 257.394 447.254 257.091 447.051 256.693C446.849 256.295 446.749 255.812 446.749 255.244C446.749 254.686 446.847 254.199 447.043 253.785C447.24 253.368 447.513 253.046 447.864 252.819C448.214 252.589 448.619 252.474 449.078 252.474C449.433 252.474 449.715 252.534 449.923 252.652C450.134 252.768 450.295 252.901 450.406 253.05C450.52 253.196 450.608 253.317 450.669 253.412H450.754V252.545H451.564V258.156C451.564 258.625 451.457 259.006 451.244 259.3C451.034 259.596 450.75 259.812 450.392 259.95C450.037 260.089 449.642 260.159 449.206 260.159ZM449.178 257.162C449.514 257.162 449.798 257.085 450.03 256.931C450.262 256.777 450.438 256.556 450.559 256.267C450.68 255.978 450.74 255.633 450.74 255.23C450.74 254.837 450.681 254.49 450.563 254.19C450.444 253.889 450.269 253.653 450.037 253.483C449.805 253.312 449.519 253.227 449.178 253.227C448.823 253.227 448.527 253.317 448.29 253.497C448.055 253.677 447.879 253.919 447.761 254.222C447.645 254.525 447.587 254.861 447.587 255.23C447.587 255.609 447.646 255.944 447.764 256.235C447.885 256.524 448.063 256.751 448.297 256.917C448.534 257.08 448.827 257.162 449.178 257.162Z" fill="#201E29"/>
<path d="M488.712 252.545C488.67 252.186 488.497 251.906 488.194 251.707C487.891 251.509 487.519 251.409 487.079 251.409C486.757 251.409 486.475 251.461 486.234 251.565C485.995 251.67 485.808 251.813 485.673 251.995C485.54 252.177 485.474 252.384 485.474 252.616C485.474 252.811 485.52 252.978 485.612 253.117C485.707 253.254 485.828 253.369 485.975 253.462C486.121 253.552 486.275 253.626 486.436 253.685C486.597 253.742 486.745 253.788 486.88 253.824L487.619 254.023C487.808 254.072 488.019 254.141 488.251 254.229C488.485 254.316 488.709 254.436 488.922 254.587C489.137 254.737 489.315 254.928 489.455 255.163C489.594 255.397 489.664 255.685 489.664 256.026C489.664 256.419 489.561 256.774 489.355 257.091C489.152 257.408 488.853 257.66 488.46 257.847C488.07 258.034 487.595 258.128 487.036 258.128C486.515 258.128 486.064 258.044 485.683 257.876C485.305 257.708 485.006 257.473 484.788 257.173C484.573 256.872 484.451 256.523 484.423 256.125H485.332C485.355 256.4 485.448 256.627 485.609 256.807C485.772 256.984 485.978 257.117 486.227 257.205C486.478 257.29 486.747 257.332 487.036 257.332C487.372 257.332 487.674 257.278 487.942 257.169C488.209 257.058 488.421 256.904 488.578 256.707C488.734 256.509 488.812 256.277 488.812 256.011C488.812 255.77 488.744 255.573 488.609 255.422C488.475 255.27 488.297 255.147 488.077 255.053C487.857 254.958 487.619 254.875 487.363 254.804L486.468 254.548C485.9 254.385 485.45 254.152 485.119 253.849C484.787 253.546 484.622 253.149 484.622 252.659C484.622 252.252 484.732 251.897 484.952 251.594C485.174 251.288 485.473 251.052 485.847 250.884C486.223 250.713 486.643 250.628 487.107 250.628C487.576 250.628 487.993 250.712 488.357 250.88C488.722 251.046 489.011 251.273 489.224 251.562C489.439 251.851 489.553 252.179 489.565 252.545H488.712ZM493.285 258.114C492.76 258.114 492.306 257.998 491.925 257.766C491.547 257.531 491.254 257.205 491.048 256.786C490.845 256.364 490.743 255.874 490.743 255.315C490.743 254.757 490.845 254.264 491.048 253.838C491.254 253.41 491.541 253.076 491.908 252.837C492.277 252.595 492.708 252.474 493.2 252.474C493.484 252.474 493.765 252.522 494.042 252.616C494.319 252.711 494.571 252.865 494.798 253.078C495.025 253.289 495.207 253.568 495.342 253.916C495.476 254.264 495.544 254.693 495.544 255.202V255.557H491.339V254.832H494.692C494.692 254.525 494.63 254.25 494.507 254.009C494.386 253.767 494.213 253.576 493.989 253.437C493.766 253.297 493.503 253.227 493.2 253.227C492.866 253.227 492.578 253.31 492.334 253.476C492.092 253.639 491.906 253.852 491.776 254.115C491.646 254.378 491.581 254.66 491.581 254.96V255.443C491.581 255.855 491.652 256.204 491.794 256.491C491.938 256.775 492.138 256.991 492.394 257.141C492.65 257.287 492.947 257.361 493.285 257.361C493.506 257.361 493.704 257.33 493.882 257.268C494.062 257.205 494.217 257.11 494.347 256.984C494.477 256.857 494.578 256.698 494.649 256.509L495.459 256.736C495.373 257.01 495.23 257.252 495.029 257.46C494.828 257.666 494.579 257.827 494.283 257.943C493.987 258.057 493.655 258.114 493.285 258.114ZM496.819 260.045V252.545H497.628V253.412H497.728C497.789 253.317 497.875 253.196 497.984 253.05C498.095 252.901 498.253 252.768 498.459 252.652C498.668 252.534 498.949 252.474 499.305 252.474C499.764 252.474 500.169 252.589 500.519 252.819C500.869 253.049 501.143 253.374 501.339 253.795C501.536 254.217 501.634 254.714 501.634 255.287C501.634 255.865 501.536 256.365 501.339 256.789C501.143 257.21 500.871 257.537 500.523 257.769C500.175 257.999 499.773 258.114 499.319 258.114C498.968 258.114 498.688 258.056 498.477 257.94C498.266 257.821 498.104 257.687 497.991 257.538C497.877 257.387 497.789 257.261 497.728 257.162H497.657V260.045H496.819ZM497.643 255.273C497.643 255.685 497.703 256.048 497.824 256.363C497.945 256.675 498.121 256.92 498.353 257.098C498.585 257.273 498.869 257.361 499.205 257.361C499.556 257.361 499.848 257.268 500.082 257.084C500.319 256.897 500.497 256.646 500.615 256.331C500.736 256.014 500.796 255.661 500.796 255.273C500.796 254.889 500.737 254.544 500.619 254.236C500.503 253.926 500.326 253.681 500.089 253.501C499.855 253.318 499.56 253.227 499.205 253.227C498.864 253.227 498.578 253.314 498.346 253.487C498.114 253.657 497.939 253.896 497.82 254.204C497.702 254.509 497.643 254.866 497.643 255.273Z" fill="#201E29"/>
<path d="M324.207 280.525L325.573 280.501L328.922 288.292L329.033 288.29L332.109 280.387L333.475 280.363L333.64 289.816L332.569 289.835L332.444 282.653L332.352 282.654L329.523 289.888L328.489 289.906L325.409 282.776L325.317 282.777L325.442 289.959L324.372 289.978L324.207 280.525ZM337.877 289.909C337.428 289.916 337.018 289.839 336.649 289.676C336.28 289.51 335.985 289.267 335.764 288.948C335.543 288.626 335.428 288.234 335.42 287.772C335.413 287.366 335.487 287.035 335.643 286.78C335.798 286.522 336.009 286.318 336.274 286.169C336.539 286.02 336.833 285.907 337.155 285.83C337.479 285.751 337.806 285.687 338.135 285.638C338.565 285.575 338.913 285.527 339.18 285.495C339.451 285.459 339.647 285.405 339.768 285.332C339.893 285.259 339.954 285.135 339.951 284.96L339.951 284.923C339.943 284.467 339.812 284.116 339.558 283.868C339.308 283.62 338.932 283.5 338.43 283.509C337.91 283.518 337.504 283.639 337.213 283.872C336.921 284.104 336.718 284.351 336.602 284.612L335.562 284.261C335.739 283.827 335.979 283.487 336.283 283.241C336.589 282.993 336.925 282.818 337.29 282.716C337.657 282.611 338.019 282.555 338.376 282.549C338.604 282.545 338.866 282.568 339.162 282.619C339.462 282.666 339.751 282.77 340.031 282.931C340.314 283.093 340.551 283.339 340.741 283.671C340.932 284.004 341.032 284.451 341.042 285.014L341.123 289.686L340.034 289.705L340.017 288.745L339.962 288.746C339.891 288.901 339.771 289.067 339.601 289.246C339.432 289.424 339.205 289.578 338.921 289.706C338.637 289.834 338.289 289.901 337.877 289.909ZM338.026 288.927C338.457 288.92 338.818 288.829 339.111 288.654C339.406 288.48 339.627 288.257 339.773 287.987C339.922 287.717 339.994 287.434 339.989 287.138L339.972 286.141C339.927 286.197 339.826 286.25 339.67 286.299C339.517 286.345 339.339 286.386 339.136 286.424C338.937 286.458 338.742 286.489 338.552 286.517C338.364 286.542 338.212 286.563 338.096 286.58C337.813 286.622 337.55 286.687 337.305 286.774C337.063 286.858 336.868 286.983 336.72 287.149C336.576 287.312 336.506 287.532 336.51 287.808C336.517 288.187 336.662 288.471 336.945 288.66C337.232 288.846 337.592 288.935 338.026 288.927ZM344.036 280.179L344.201 289.632L343.112 289.651L342.947 280.198L344.036 280.179ZM349.171 289.693C348.488 289.705 347.896 289.564 347.396 289.271C346.898 288.975 346.51 288.557 346.233 288.017C345.959 287.474 345.816 286.84 345.803 286.113C345.79 285.387 345.911 284.745 346.166 284.186C346.424 283.625 346.789 283.184 347.261 282.865C347.735 282.543 348.292 282.376 348.933 282.365C349.302 282.359 349.668 282.414 350.03 282.531C350.392 282.647 350.723 282.842 351.023 283.113C351.324 283.382 351.565 283.741 351.749 284.19C351.932 284.64 352.029 285.195 352.041 285.857L352.049 286.318L346.584 286.414L346.567 285.472L350.925 285.396C350.918 284.996 350.831 284.64 350.666 284.329C350.504 284.018 350.275 283.774 349.979 283.598C349.687 283.421 349.344 283.337 348.95 283.344C348.516 283.351 348.142 283.465 347.829 283.686C347.519 283.904 347.282 284.185 347.119 284.53C346.956 284.874 346.877 285.242 346.884 285.633L346.895 286.261C346.904 286.796 347.005 287.248 347.196 287.617C347.39 287.983 347.655 288.26 347.991 288.448C348.326 288.633 348.714 288.722 349.154 288.714C349.44 288.709 349.698 288.665 349.928 288.581C350.16 288.494 350.359 288.367 350.526 288.201C350.692 288.032 350.819 287.823 350.907 287.576L351.965 287.853C351.86 288.212 351.68 288.529 351.423 288.804C351.166 289.076 350.846 289.291 350.464 289.449C350.082 289.603 349.651 289.685 349.171 289.693Z" fill="#201E29"/>
<rect x="299" y="276" width="16" height="16" fill="#517DEE"/>
<path d="M394.372 289.978L394.207 280.525L399.875 280.426L399.892 281.441L395.369 281.52L395.425 284.715L399.524 284.643L399.541 285.658L395.443 285.73L395.516 289.958L394.372 289.978ZM404.307 289.952C403.624 289.964 403.032 289.824 402.532 289.531C402.034 289.235 401.646 288.817 401.369 288.277C401.095 287.734 400.952 287.099 400.939 286.373C400.926 285.647 401.047 285.004 401.302 284.446C401.56 283.884 401.925 283.444 402.397 283.125C402.871 282.802 403.429 282.636 404.069 282.624C404.438 282.618 404.804 282.673 405.166 282.79C405.528 282.907 405.859 283.101 406.159 283.373C406.46 283.642 406.701 284.001 406.885 284.45C407.068 284.899 407.165 285.455 407.177 286.116L407.185 286.578L401.72 286.673L401.703 285.732L406.061 285.655C406.054 285.255 405.967 284.9 405.802 284.589C405.64 284.278 405.411 284.034 405.115 283.857C404.823 283.681 404.48 283.596 404.086 283.603C403.652 283.611 403.278 283.725 402.965 283.946C402.655 284.164 402.418 284.445 402.255 284.789C402.092 285.134 402.013 285.501 402.02 285.892L402.031 286.52C402.041 287.055 402.141 287.508 402.332 287.877C402.526 288.243 402.791 288.52 403.127 288.708C403.462 288.893 403.85 288.981 404.29 288.974C404.576 288.969 404.834 288.924 405.064 288.84C405.296 288.753 405.495 288.626 405.662 288.46C405.828 288.291 405.955 288.083 406.043 287.835L407.101 288.112C406.996 288.471 406.816 288.788 406.559 289.063C406.302 289.336 405.982 289.551 405.6 289.708C405.218 289.863 404.787 289.944 404.307 289.952ZM408.897 289.724L408.774 282.635L409.826 282.616L409.845 283.724L409.938 283.722C410.079 283.341 410.312 283.043 410.638 282.828C410.963 282.61 411.357 282.497 411.818 282.489C412.286 282.481 412.677 282.58 412.992 282.787C413.309 282.991 413.559 283.281 413.741 283.656L413.815 283.655C413.99 283.285 414.257 282.99 414.617 282.768C414.976 282.543 415.41 282.426 415.917 282.418C416.551 282.407 417.073 282.596 417.483 282.986C417.893 283.373 418.105 283.983 418.12 284.817L418.203 289.562L417.114 289.581L417.031 284.836C417.022 284.313 416.872 283.942 416.582 283.722C416.292 283.502 415.953 283.396 415.565 283.403C415.067 283.411 414.683 283.569 414.414 283.875C414.146 284.178 414.015 284.559 414.023 285.018L414.104 289.634L412.996 289.653L412.911 284.797C412.904 284.394 412.768 284.072 412.502 283.83C412.236 283.585 411.897 283.467 411.485 283.474C411.202 283.479 410.938 283.559 410.695 283.714C410.454 283.869 410.261 284.082 410.115 284.352C409.972 284.619 409.903 284.927 409.909 285.274L409.987 289.705L408.897 289.724ZM422.284 289.657C421.835 289.665 421.425 289.587 421.056 289.425C420.687 289.259 420.392 289.016 420.171 288.697C419.95 288.374 419.835 287.982 419.827 287.521C419.82 287.114 419.894 286.784 420.05 286.529C420.205 286.27 420.416 286.067 420.681 285.917C420.946 285.768 421.24 285.655 421.562 285.579C421.886 285.499 422.213 285.435 422.542 285.386C422.972 285.323 423.32 285.276 423.587 285.243C423.858 285.208 424.054 285.154 424.175 285.081C424.3 285.008 424.361 284.884 424.358 284.708L424.358 284.671C424.35 284.216 424.219 283.864 423.965 283.616C423.715 283.368 423.339 283.248 422.837 283.257C422.317 283.266 421.911 283.387 421.62 283.62C421.328 283.853 421.125 284.1 421.009 284.36L419.969 284.009C420.146 283.575 420.386 283.235 420.69 282.99C420.996 282.741 421.332 282.566 421.697 282.464C422.064 282.36 422.426 282.304 422.783 282.298C423.011 282.294 423.273 282.317 423.569 282.367C423.869 282.414 424.158 282.518 424.438 282.68C424.721 282.841 424.958 283.088 425.148 283.42C425.339 283.752 425.439 284.2 425.449 284.763L425.53 289.434L424.441 289.453L424.424 288.493L424.369 288.494C424.298 288.649 424.178 288.816 424.008 288.994C423.839 289.173 423.612 289.326 423.328 289.454C423.044 289.582 422.696 289.65 422.284 289.657ZM422.433 288.676C422.864 288.668 423.225 288.577 423.518 288.403C423.813 288.228 424.034 288.006 424.18 287.736C424.329 287.465 424.401 287.182 424.396 286.887L424.379 285.89C424.334 285.946 424.233 285.999 424.077 286.047C423.924 286.093 423.746 286.135 423.543 286.172C423.344 286.206 423.149 286.238 422.959 286.265C422.771 286.29 422.619 286.311 422.503 286.329C422.22 286.371 421.957 286.435 421.712 286.523C421.47 286.607 421.275 286.732 421.127 286.898C420.983 287.06 420.913 287.28 420.917 287.557C420.924 287.935 421.069 288.219 421.352 288.408C421.639 288.594 421.999 288.683 422.433 288.676ZM428.443 279.927L428.608 289.38L427.519 289.399L427.354 279.946L428.443 279.927ZM433.578 289.441C432.895 289.453 432.303 289.313 431.803 289.02C431.305 288.724 430.917 288.306 430.64 287.766C430.366 287.223 430.223 286.588 430.21 285.862C430.197 285.136 430.318 284.493 430.573 283.935C430.831 283.373 431.196 282.933 431.668 282.614C432.142 282.291 432.699 282.125 433.34 282.114C433.709 282.107 434.075 282.162 434.437 282.279C434.799 282.396 435.13 282.59 435.43 282.862C435.731 283.131 435.972 283.49 436.156 283.939C436.339 284.388 436.436 284.944 436.448 285.605L436.456 286.067L430.991 286.162L430.974 285.221L435.332 285.145C435.325 284.745 435.238 284.389 435.073 284.078C434.911 283.767 434.682 283.523 434.386 283.347C434.094 283.17 433.75 283.085 433.357 283.092C432.923 283.1 432.549 283.214 432.236 283.435C431.926 283.653 431.689 283.934 431.526 284.278C431.363 284.623 431.284 284.99 431.291 285.381L431.302 286.009C431.311 286.544 431.412 286.997 431.603 287.366C431.797 287.732 432.062 288.009 432.398 288.197C432.733 288.382 433.121 288.471 433.561 288.463C433.847 288.458 434.105 288.413 434.335 288.329C434.567 288.242 434.766 288.116 434.933 287.95C435.099 287.78 435.226 287.572 435.314 287.324L436.372 287.601C436.267 287.96 436.087 288.277 435.83 288.553C435.573 288.825 435.253 289.04 434.871 289.197C434.489 289.352 434.058 289.433 433.578 289.441Z" fill="#201E29"/>
<rect x="369" y="276" width="16" height="16" fill="#EDBB75"/>
<path d="M56.875 238.099C56.34 238.099 55.8842 237.954 55.5078 237.663C55.1314 237.369 54.8438 236.944 54.6449 236.388C54.446 235.829 54.3466 235.154 54.3466 234.364C54.3466 233.578 54.446 232.906 54.6449 232.35C54.8461 231.791 55.1349 231.365 55.5114 231.072C55.8902 230.776 56.3447 230.628 56.875 230.628C57.4053 230.628 57.8587 230.776 58.2351 231.072C58.6139 231.365 58.9027 231.791 59.1016 232.35C59.3028 232.906 59.4034 233.578 59.4034 234.364C59.4034 235.154 59.304 235.829 59.1051 236.388C58.9062 236.944 58.6186 237.369 58.2422 237.663C57.8658 237.954 57.41 238.099 56.875 238.099ZM56.875 237.318C57.4053 237.318 57.8172 237.062 58.1108 236.551C58.4044 236.04 58.5511 235.311 58.5511 234.364C58.5511 233.734 58.4837 233.198 58.3487 232.755C58.2161 232.312 58.0244 231.975 57.7734 231.743C57.5249 231.511 57.2254 231.395 56.875 231.395C56.3494 231.395 55.9387 231.654 55.6428 232.173C55.3468 232.689 55.1989 233.419 55.1989 234.364C55.1989 234.993 55.2652 235.528 55.3977 235.969C55.5303 236.409 55.7209 236.744 55.9695 236.974C56.2204 237.203 56.5223 237.318 56.875 237.318Z" fill="#201E29"/>
<line x1="68" y1="233.5" x2="672" y2="233.5" stroke="#8492A6" stroke-opacity="0.3"/>
<path d="M44.4416 200.099C44.0249 200.099 43.6497 200.017 43.3159 199.851C42.9821 199.685 42.7145 199.458 42.5133 199.169C42.3121 198.88 42.202 198.551 42.1831 198.182H43.0353C43.0685 198.511 43.2176 198.783 43.4828 198.999C43.7503 199.212 44.0699 199.318 44.4416 199.318C44.7399 199.318 45.005 199.248 45.237 199.109C45.4714 198.969 45.6549 198.777 45.7875 198.533C45.9224 198.287 45.9899 198.009 45.9899 197.699C45.9899 197.382 45.92 197.099 45.7804 196.85C45.6431 196.599 45.4537 196.402 45.2122 196.257C44.9707 196.113 44.6949 196.039 44.3848 196.037C44.1622 196.035 43.9338 196.069 43.6994 196.14C43.465 196.209 43.2721 196.297 43.1206 196.406L42.2967 196.307L42.737 192.727H46.5154V193.509H43.4757L43.22 195.653H43.2626C43.4118 195.535 43.5988 195.437 43.8237 195.359C44.0486 195.281 44.283 195.241 44.5268 195.241C44.9719 195.241 45.3684 195.348 45.7164 195.561C46.0668 195.772 46.3414 196.061 46.5403 196.428C46.7415 196.795 46.8422 197.214 46.8422 197.685C46.8422 198.149 46.738 198.563 46.5297 198.928C46.3237 199.29 46.0396 199.576 45.6774 199.787C45.3152 199.995 44.9032 200.099 44.4416 200.099ZM50.625 200.099C50.09 200.099 49.6342 199.954 49.2578 199.663C48.8814 199.369 48.5938 198.944 48.3949 198.388C48.196 197.829 48.0966 197.154 48.0966 196.364C48.0966 195.578 48.196 194.906 48.3949 194.35C48.5961 193.791 48.8849 193.365 49.2614 193.072C49.6402 192.776 50.0947 192.628 50.625 192.628C51.1553 192.628 51.6087 192.776 51.9851 193.072C52.3639 193.365 52.6527 193.791 52.8516 194.35C53.0528 194.906 53.1534 195.578 53.1534 196.364C53.1534 197.154 53.054 197.829 52.8551 198.388C52.6562 198.944 52.3686 199.369 51.9922 199.663C51.6158 199.954 51.16 200.099 50.625 200.099ZM50.625 199.318C51.1553 199.318 51.5672 199.062 51.8608 198.551C52.1544 198.04 52.3011 197.311 52.3011 196.364C52.3011 195.734 52.2337 195.198 52.0987 194.755C51.9661 194.312 51.7744 193.975 51.5234 193.743C51.2749 193.511 50.9754 193.395 50.625 193.395C50.0994 193.395 49.6887 193.654 49.3928 194.173C49.0968 194.689 48.9489 195.419 48.9489 196.364C48.9489 196.993 49.0152 197.528 49.1477 197.969C49.2803 198.409 49.4709 198.744 49.7195 198.974C49.9704 199.203 50.2723 199.318 50.625 199.318ZM56.875 200.099C56.34 200.099 55.8842 199.954 55.5078 199.663C55.1314 199.369 54.8438 198.944 54.6449 198.388C54.446 197.829 54.3466 197.154 54.3466 196.364C54.3466 195.578 54.446 194.906 54.6449 194.35C54.8461 193.791 55.1349 193.365 55.5114 193.072C55.8902 192.776 56.3447 192.628 56.875 192.628C57.4053 192.628 57.8587 192.776 58.2351 193.072C58.6139 193.365 58.9027 193.791 59.1016 194.35C59.3028 194.906 59.4034 195.578 59.4034 196.364C59.4034 197.154 59.304 197.829 59.1051 198.388C58.9062 198.944 58.6186 199.369 58.2422 199.663C57.8658 199.954 57.41 200.099 56.875 200.099ZM56.875 199.318C57.4053 199.318 57.8172 199.062 58.1108 198.551C58.4044 198.04 58.5511 197.311 58.5511 196.364C58.5511 195.734 58.4837 195.198 58.3487 194.755C58.2161 194.312 58.0244 193.975 57.7734 193.743C57.5249 193.511 57.2254 193.395 56.875 193.395C56.3494 193.395 55.9387 193.654 55.6428 194.173C55.3468 194.689 55.1989 195.419 55.1989 196.364C55.1989 196.993 55.2652 197.528 55.3977 197.969C55.5303 198.409 55.7209 198.744 55.9695 198.974C56.2204 199.203 56.5223 199.318 56.875 199.318Z" fill="#201E29"/>
<line x1="68" y1="195.5" x2="672" y2="195.5" stroke="#8492A6" stroke-opacity="0.3"/>
<path d="M39.9112 154.727V162H39.0305V155.651H38.9879L37.2124 156.83V155.935L39.0305 154.727H39.9112ZM44.375 162.099C43.84 162.099 43.3842 161.954 43.0078 161.663C42.6314 161.369 42.3438 160.944 42.1449 160.388C41.946 159.829 41.8466 159.154 41.8466 158.364C41.8466 157.578 41.946 156.906 42.1449 156.35C42.3461 155.791 42.6349 155.365 43.0114 155.072C43.3902 154.776 43.8447 154.628 44.375 154.628C44.9053 154.628 45.3587 154.776 45.7351 155.072C46.1139 155.365 46.4027 155.791 46.6016 156.35C46.8028 156.906 46.9034 157.578 46.9034 158.364C46.9034 159.154 46.804 159.829 46.6051 160.388C46.4062 160.944 46.1186 161.369 45.7422 161.663C45.3658 161.954 44.91 162.099 44.375 162.099ZM44.375 161.318C44.9053 161.318 45.3172 161.062 45.6108 160.551C45.9044 160.04 46.0511 159.311 46.0511 158.364C46.0511 157.734 45.9837 157.198 45.8487 156.755C45.7161 156.312 45.5244 155.975 45.2734 155.743C45.0249 155.511 44.7254 155.395 44.375 155.395C43.8494 155.395 43.4387 155.654 43.1428 156.173C42.8468 156.689 42.6989 157.419 42.6989 158.364C42.6989 158.993 42.7652 159.528 42.8977 159.969C43.0303 160.409 43.2209 160.744 43.4695 160.974C43.7204 161.203 44.0223 161.318 44.375 161.318ZM50.625 162.099C50.09 162.099 49.6342 161.954 49.2578 161.663C48.8814 161.369 48.5938 160.944 48.3949 160.388C48.196 159.829 48.0966 159.154 48.0966 158.364C48.0966 157.578 48.196 156.906 48.3949 156.35C48.5961 155.791 48.8849 155.365 49.2614 155.072C49.6402 154.776 50.0947 154.628 50.625 154.628C51.1553 154.628 51.6087 154.776 51.9851 155.072C52.3639 155.365 52.6527 155.791 52.8516 156.35C53.0528 156.906 53.1534 157.578 53.1534 158.364C53.1534 159.154 53.054 159.829 52.8551 160.388C52.6562 160.944 52.3686 161.369 51.9922 161.663C51.6158 161.954 51.16 162.099 50.625 162.099ZM50.625 161.318C51.1553 161.318 51.5672 161.062 51.8608 160.551C52.1544 160.04 52.3011 159.311 52.3011 158.364C52.3011 157.734 52.2337 157.198 52.0987 156.755C51.9661 156.312 51.7744 155.975 51.5234 155.743C51.2749 155.511 50.9754 155.395 50.625 155.395C50.0994 155.395 49.6887 155.654 49.3928 156.173C49.0968 156.689 48.9489 157.419 48.9489 158.364C48.9489 158.993 49.0152 159.528 49.1477 159.969C49.2803 160.409 49.4709 160.744 49.7195 160.974C49.9704 161.203 50.2723 161.318 50.625 161.318ZM56.875 162.099C56.34 162.099 55.8842 161.954 55.5078 161.663C55.1314 161.369 54.8438 160.944 54.6449 160.388C54.446 159.829 54.3466 159.154 54.3466 158.364C54.3466 157.578 54.446 156.906 54.6449 156.35C54.8461 155.791 55.1349 155.365 55.5114 155.072C55.8902 154.776 56.3447 154.628 56.875 154.628C57.4053 154.628 57.8587 154.776 58.2351 155.072C58.6139 155.365 58.9027 155.791 59.1016 156.35C59.3028 156.906 59.4034 157.578 59.4034 158.364C59.4034 159.154 59.304 159.829 59.1051 160.388C58.9062 160.944 58.6186 161.369 58.2422 161.663C57.8658 161.954 57.41 162.099 56.875 162.099ZM56.875 161.318C57.4053 161.318 57.8172 161.062 58.1108 160.551C58.4044 160.04 58.5511 159.311 58.5511 158.364C58.5511 157.734 58.4837 157.198 58.3487 156.755C58.2161 156.312 58.0244 155.975 57.7734 155.743C57.5249 155.511 57.2254 155.395 56.875 155.395C56.3494 155.395 55.9387 155.654 55.6428 156.173C55.3468 156.689 55.1989 157.419 55.1989 158.364C55.1989 158.993 55.2652 159.528 55.3977 159.969C55.5303 160.409 55.7209 160.744 55.9695 160.974C56.2204 161.203 56.5223 161.318 56.875 161.318Z" fill="#201E29"/>
<line x1="68" y1="157.5" x2="672" y2="157.5" stroke="#8492A6" stroke-opacity="0.3"/>
<path d="M40.0772 116.727V124H39.1966V117.651H39.1539L37.3784 118.83V117.935L39.1966 116.727H40.0772ZM44.4416 124.099C44.0249 124.099 43.6497 124.017 43.3159 123.851C42.9821 123.685 42.7145 123.458 42.5133 123.169C42.3121 122.88 42.202 122.551 42.1831 122.182H43.0353C43.0685 122.511 43.2176 122.783 43.4828 122.999C43.7503 123.212 44.0699 123.318 44.4416 123.318C44.7399 123.318 45.005 123.248 45.237 123.109C45.4714 122.969 45.6549 122.777 45.7875 122.533C45.9224 122.287 45.9899 122.009 45.9899 121.699C45.9899 121.382 45.92 121.099 45.7804 120.85C45.6431 120.599 45.4537 120.402 45.2122 120.257C44.9707 120.113 44.6949 120.039 44.3848 120.037C44.1622 120.035 43.9338 120.069 43.6994 120.14C43.465 120.209 43.2721 120.297 43.1206 120.406L42.2967 120.307L42.737 116.727H46.5154V117.509H43.4757L43.22 119.653H43.2626C43.4118 119.535 43.5988 119.437 43.8237 119.359C44.0486 119.281 44.283 119.241 44.5268 119.241C44.9719 119.241 45.3684 119.348 45.7164 119.561C46.0668 119.772 46.3414 120.061 46.5403 120.428C46.7415 120.795 46.8422 121.214 46.8422 121.685C46.8422 122.149 46.738 122.563 46.5297 122.928C46.3237 123.29 46.0396 123.576 45.6774 123.787C45.3152 123.995 44.9032 124.099 44.4416 124.099ZM50.625 124.099C50.09 124.099 49.6342 123.954 49.2578 123.663C48.8814 123.369 48.5938 122.944 48.3949 122.388C48.196 121.829 48.0966 121.154 48.0966 120.364C48.0966 119.578 48.196 118.906 48.3949 118.35C48.5961 117.791 48.8849 117.365 49.2614 117.072C49.6402 116.776 50.0947 116.628 50.625 116.628C51.1553 116.628 51.6087 116.776 51.9851 117.072C52.3639 117.365 52.6527 117.791 52.8516 118.35C53.0528 118.906 53.1534 119.578 53.1534 120.364C53.1534 121.154 53.054 121.829 52.8551 122.388C52.6562 122.944 52.3686 123.369 51.9922 123.663C51.6158 123.954 51.16 124.099 50.625 124.099ZM50.625 123.318C51.1553 123.318 51.5672 123.062 51.8608 122.551C52.1544 122.04 52.3011 121.311 52.3011 120.364C52.3011 119.734 52.2337 119.198 52.0987 118.755C51.9661 118.312 51.7744 117.975 51.5234 117.743C51.2749 117.511 50.9754 117.395 50.625 117.395C50.0994 117.395 49.6887 117.654 49.3928 118.173C49.0968 118.689 48.9489 119.419 48.9489 120.364C48.9489 120.993 49.0152 121.528 49.1477 121.969C49.2803 122.409 49.4709 122.744 49.7195 122.974C49.9704 123.203 50.2723 123.318 50.625 123.318ZM56.875 124.099C56.34 124.099 55.8842 123.954 55.5078 123.663C55.1314 123.369 54.8438 122.944 54.6449 122.388C54.446 121.829 54.3466 121.154 54.3466 120.364C54.3466 119.578 54.446 118.906 54.6449 118.35C54.8461 117.791 55.1349 117.365 55.5114 117.072C55.8902 116.776 56.3447 116.628 56.875 116.628C57.4053 116.628 57.8587 116.776 58.2351 117.072C58.6139 117.365 58.9027 117.791 59.1016 118.35C59.3028 118.906 59.4034 119.578 59.4034 120.364C59.4034 121.154 59.304 121.829 59.1051 122.388C58.9062 122.944 58.6186 123.369 58.2422 123.663C57.8658 123.954 57.41 124.099 56.875 124.099ZM56.875 123.318C57.4053 123.318 57.8172 123.062 58.1108 122.551C58.4044 122.04 58.5511 121.311 58.5511 120.364C58.5511 119.734 58.4837 119.198 58.3487 118.755C58.2161 118.312 58.0244 117.975 57.7734 117.743C57.5249 117.511 57.2254 117.395 56.875 117.395C56.3494 117.395 55.9387 117.654 55.6428 118.173C55.3468 118.689 55.1989 119.419 55.1989 120.364C55.1989 120.993 55.2652 121.528 55.3977 121.969C55.5303 122.409 55.7209 122.744 55.9695 122.974C56.2204 123.203 56.5223 123.318 56.875 123.318Z" fill="#201E29"/>
<line x1="68" y1="119.5" x2="672" y2="119.5" stroke="#8492A6" stroke-opacity="0.3"/>
<path d="M35.9482 86V85.3608L38.3487 82.733C38.6304 82.4252 38.8625 82.1577 39.0447 81.9304C39.227 81.7008 39.362 81.4853 39.4496 81.2841C39.5395 81.0805 39.5845 80.8674 39.5845 80.6449C39.5845 80.3892 39.523 80.1679 39.3999 79.9808C39.2791 79.7938 39.1134 79.6494 38.9027 79.5476C38.692 79.4458 38.4553 79.3949 38.1925 79.3949C37.9131 79.3949 37.6693 79.4529 37.4609 79.5689C37.255 79.6825 37.0952 79.8423 36.9815 80.0483C36.8703 80.2543 36.8146 80.4957 36.8146 80.7727H35.9766C35.9766 80.3466 36.0748 79.9725 36.2713 79.6506C36.4678 79.3286 36.7353 79.0777 37.0739 78.8977C37.4148 78.7178 37.7971 78.6278 38.2209 78.6278C38.647 78.6278 39.0246 78.7178 39.3537 78.8977C39.6828 79.0777 39.9408 79.3203 40.1278 79.6257C40.3149 79.9311 40.4084 80.2708 40.4084 80.6449C40.4084 80.9124 40.3598 81.174 40.2628 81.4297C40.1681 81.683 40.0024 81.9659 39.7656 82.2784C39.5312 82.5885 39.2057 82.9673 38.7891 83.4148L37.1555 85.1619V85.2188H40.5362V86H35.9482ZM44.375 86.0994C43.84 86.0994 43.3842 85.9538 43.0078 85.6626C42.6314 85.3691 42.3438 84.9441 42.1449 84.3878C41.946 83.8291 41.8466 83.1544 41.8466 82.3636C41.8466 81.5777 41.946 80.9065 42.1449 80.3501C42.3461 79.7914 42.6349 79.3653 43.0114 79.0717C43.3902 78.7758 43.8447 78.6278 44.375 78.6278C44.9053 78.6278 45.3587 78.7758 45.7351 79.0717C46.1139 79.3653 46.4027 79.7914 46.6016 80.3501C46.8028 80.9065 46.9034 81.5777 46.9034 82.3636C46.9034 83.1544 46.804 83.8291 46.6051 84.3878C46.4062 84.9441 46.1186 85.3691 45.7422 85.6626C45.3658 85.9538 44.91 86.0994 44.375 86.0994ZM44.375 85.3182C44.9053 85.3182 45.3172 85.0625 45.6108 84.5511C45.9044 84.0398 46.0511 83.3106 46.0511 82.3636C46.0511 81.7339 45.9837 81.1977 45.8487 80.755C45.7161 80.3123 45.5244 79.9749 45.2734 79.7429C45.0249 79.5109 44.7254 79.3949 44.375 79.3949C43.8494 79.3949 43.4387 79.6541 43.1428 80.1726C42.8468 80.6887 42.6989 81.419 42.6989 82.3636C42.6989 82.9934 42.7652 83.5284 42.8977 83.9688C43.0303 84.4091 43.2209 84.7441 43.4695 84.9737C43.7204 85.2034 44.0223 85.3182 44.375 85.3182ZM50.625 86.0994C50.09 86.0994 49.6342 85.9538 49.2578 85.6626C48.8814 85.3691 48.5938 84.9441 48.3949 84.3878C48.196 83.8291 48.0966 83.1544 48.0966 82.3636C48.0966 81.5777 48.196 80.9065 48.3949 80.3501C48.5961 79.7914 48.8849 79.3653 49.2614 79.0717C49.6402 78.7758 50.0947 78.6278 50.625 78.6278C51.1553 78.6278 51.6087 78.7758 51.9851 79.0717C52.3639 79.3653 52.6527 79.7914 52.8516 80.3501C53.0528 80.9065 53.1534 81.5777 53.1534 82.3636C53.1534 83.1544 53.054 83.8291 52.8551 84.3878C52.6562 84.9441 52.3686 85.3691 51.9922 85.6626C51.6158 85.9538 51.16 86.0994 50.625 86.0994ZM50.625 85.3182C51.1553 85.3182 51.5672 85.0625 51.8608 84.5511C52.1544 84.0398 52.3011 83.3106 52.3011 82.3636C52.3011 81.7339 52.2337 81.1977 52.0987 80.755C51.9661 80.3123 51.7744 79.9749 51.5234 79.7429C51.2749 79.5109 50.9754 79.3949 50.625 79.3949C50.0994 79.3949 49.6887 79.6541 49.3928 80.1726C49.0968 80.6887 48.9489 81.419 48.9489 82.3636C48.9489 82.9934 49.0152 83.5284 49.1477 83.9688C49.2803 84.4091 49.4709 84.7441 49.7195 84.9737C49.9704 85.2034 50.2723 85.3182 50.625 85.3182ZM56.875 86.0994C56.34 86.0994 55.8842 85.9538 55.5078 85.6626C55.1314 85.3691 54.8438 84.9441 54.6449 84.3878C54.446 83.8291 54.3466 83.1544 54.3466 82.3636C54.3466 81.5777 54.446 80.9065 54.6449 80.3501C54.8461 79.7914 55.1349 79.3653 55.5114 79.0717C55.8902 78.7758 56.3447 78.6278 56.875 78.6278C57.4053 78.6278 57.8587 78.7758 58.2351 79.0717C58.6139 79.3653 58.9027 79.7914 59.1016 80.3501C59.3028 80.9065 59.4034 81.5777 59.4034 82.3636C59.4034 83.1544 59.304 83.8291 59.1051 84.3878C58.9062 84.9441 58.6186 85.3691 58.2422 85.6626C57.8658 85.9538 57.41 86.0994 56.875 86.0994ZM56.875 85.3182C57.4053 85.3182 57.8172 85.0625 58.1108 84.5511C58.4044 84.0398 58.5511 83.3106 58.5511 82.3636C58.5511 81.7339 58.4837 81.1977 58.3487 80.755C58.2161 80.3123 58.0244 79.9749 57.7734 79.7429C57.5249 79.5109 57.2254 79.3949 56.875 79.3949C56.3494 79.3949 55.9387 79.6541 55.6428 80.1726C55.3468 80.6887 55.1989 81.419 55.1989 82.3636C55.1989 82.9934 55.2652 83.5284 55.3977 83.9688C55.5303 84.4091 55.7209 84.7441 55.9695 84.9737C56.2204 85.2034 56.5223 85.3182 56.875 85.3182Z" fill="#201E29"/>
<line x1="68" y1="81.5" x2="672" y2="81.5" stroke="#8492A6" stroke-opacity="0.3"/>
<path d="M36.1142 48V47.3608L38.5147 44.733C38.7965 44.4252 39.0285 44.1577 39.2108 43.9304C39.3931 43.7008 39.528 43.4853 39.6156 43.2841C39.7056 43.0805 39.7505 42.8674 39.7505 42.6449C39.7505 42.3892 39.689 42.1679 39.5659 41.9808C39.4451 41.7938 39.2794 41.6494 39.0687 41.5476C38.858 41.4458 38.6213 41.3949 38.3585 41.3949C38.0791 41.3949 37.8353 41.4529 37.627 41.5689C37.421 41.6825 37.2612 41.8423 37.1475 42.0483C37.0363 42.2543 36.9806 42.4957 36.9806 42.7727H36.1426C36.1426 42.3466 36.2408 41.9725 36.4373 41.6506C36.6338 41.3286 36.9013 41.0777 37.2399 40.8977C37.5808 40.7178 37.9631 40.6278 38.3869 40.6278C38.813 40.6278 39.1906 40.7178 39.5197 40.8977C39.8488 41.0777 40.1068 41.3203 40.2939 41.6257C40.4809 41.9311 40.5744 42.2708 40.5744 42.6449C40.5744 42.9124 40.5259 43.174 40.4288 43.4297C40.3341 43.683 40.1684 43.9659 39.9316 44.2784C39.6973 44.5885 39.3717 44.9673 38.9551 45.4148L37.3216 47.1619V47.2188H40.7022V48H36.1142ZM44.4416 48.0994C44.0249 48.0994 43.6497 48.0166 43.3159 47.8509C42.9821 47.6851 42.7145 47.4579 42.5133 47.169C42.3121 46.8802 42.202 46.5511 42.1831 46.1818H43.0353C43.0685 46.5109 43.2176 46.7831 43.4828 46.9986C43.7503 47.2116 44.0699 47.3182 44.4416 47.3182C44.7399 47.3182 45.005 47.2483 45.237 47.1087C45.4714 46.969 45.6549 46.7772 45.7875 46.5334C45.9224 46.2872 45.9899 46.009 45.9899 45.6989C45.9899 45.3816 45.92 45.0987 45.7804 44.8501C45.6431 44.5992 45.4537 44.4015 45.2122 44.2571C44.9707 44.1127 44.6949 44.0393 44.3848 44.0369C44.1622 44.0346 43.9338 44.0689 43.6994 44.1399C43.465 44.2086 43.2721 44.2973 43.1206 44.4062L42.2967 44.3068L42.737 40.7273H46.5154V41.5085H43.4757L43.22 43.6534H43.2626C43.4118 43.535 43.5988 43.4368 43.8237 43.3587C44.0486 43.2805 44.283 43.2415 44.5268 43.2415C44.9719 43.2415 45.3684 43.348 45.7164 43.5611C46.0668 43.7718 46.3414 44.0606 46.5403 44.4276C46.7415 44.7945 46.8422 45.2135 46.8422 45.6847C46.8422 46.1487 46.738 46.563 46.5297 46.9276C46.3237 47.2898 46.0396 47.5762 45.6774 47.7869C45.3152 47.9953 44.9032 48.0994 44.4416 48.0994ZM50.625 48.0994C50.09 48.0994 49.6342 47.9538 49.2578 47.6626C48.8814 47.3691 48.5938 46.9441 48.3949 46.3878C48.196 45.8291 48.0966 45.1544 48.0966 44.3636C48.0966 43.5777 48.196 42.9065 48.3949 42.3501C48.5961 41.7914 48.8849 41.3653 49.2614 41.0717C49.6402 40.7758 50.0947 40.6278 50.625 40.6278C51.1553 40.6278 51.6087 40.7758 51.9851 41.0717C52.3639 41.3653 52.6527 41.7914 52.8516 42.3501C53.0528 42.9065 53.1534 43.5777 53.1534 44.3636C53.1534 45.1544 53.054 45.8291 52.8551 46.3878C52.6562 46.9441 52.3686 47.3691 51.9922 47.6626C51.6158 47.9538 51.16 48.0994 50.625 48.0994ZM50.625 47.3182C51.1553 47.3182 51.5672 47.0625 51.8608 46.5511C52.1544 46.0398 52.3011 45.3106 52.3011 44.3636C52.3011 43.7339 52.2337 43.1977 52.0987 42.755C51.9661 42.3123 51.7744 41.9749 51.5234 41.7429C51.2749 41.5109 50.9754 41.3949 50.625 41.3949C50.0994 41.3949 49.6887 41.6541 49.3928 42.1726C49.0968 42.6887 48.9489 43.419 48.9489 44.3636C48.9489 44.9934 49.0152 45.5284 49.1477 45.9688C49.2803 46.4091 49.4709 46.7441 49.7195 46.9737C49.9704 47.2034 50.2723 47.3182 50.625 47.3182ZM56.875 48.0994C56.34 48.0994 55.8842 47.9538 55.5078 47.6626C55.1314 47.3691 54.8438 46.9441 54.6449 46.3878C54.446 45.8291 54.3466 45.1544 54.3466 44.3636C54.3466 43.5777 54.446 42.9065 54.6449 42.3501C54.8461 41.7914 55.1349 41.3653 55.5114 41.0717C55.8902 40.7758 56.3447 40.6278 56.875 40.6278C57.4053 40.6278 57.8587 40.7758 58.2351 41.0717C58.6139 41.3653 58.9027 41.7914 59.1016 42.3501C59.3028 42.9065 59.4034 43.5777 59.4034 44.3636C59.4034 45.1544 59.304 45.8291 59.1051 46.3878C58.9062 46.9441 58.6186 47.3691 58.2422 47.6626C57.8658 47.9538 57.41 48.0994 56.875 48.0994ZM56.875 47.3182C57.4053 47.3182 57.8172 47.0625 58.1108 46.5511C58.4044 46.0398 58.5511 45.3106 58.5511 44.3636C58.5511 43.7339 58.4837 43.1977 58.3487 42.755C58.2161 42.3123 58.0244 41.9749 57.7734 41.7429C57.5249 41.5109 57.2254 41.3949 56.875 41.3949C56.3494 41.3949 55.9387 41.6541 55.6428 42.1726C55.3468 42.6887 55.1989 43.419 55.1989 44.3636C55.1989 44.9934 55.2652 45.5284 55.3977 45.9688C55.5303 46.4091 55.7209 46.7441 55.9695 46.9737C56.2204 47.2034 56.5223 47.3182 56.875 47.3182Z" fill="#201E29"/>
<line x1="68" y1="43.5" x2="672" y2="43.5" stroke="#8492A6" stroke-opacity="0.3"/>
<path d="M38.093 10.0994C37.6243 10.0994 37.2064 10.0189 36.8395 9.85795C36.4749 9.69697 36.1849 9.47325 35.9695 9.18679C35.7564 8.89796 35.6404 8.56297 35.6214 8.18182H36.5163C36.5353 8.41619 36.6158 8.61861 36.7578 8.78906C36.8999 8.95715 37.0857 9.08736 37.3153 9.17969C37.545 9.27202 37.7995 9.31818 38.0788 9.31818C38.3913 9.31818 38.6683 9.26373 38.9098 9.15483C39.1513 9.04593 39.3407 8.89441 39.478 8.70028C39.6153 8.50616 39.6839 8.28125 39.6839 8.02557C39.6839 7.75805 39.6177 7.52249 39.4851 7.31889C39.3525 7.11293 39.1584 6.95194 38.9027 6.83594C38.647 6.71993 38.3345 6.66193 37.9652 6.66193H37.3828V5.88068H37.9652C38.254 5.88068 38.5073 5.8286 38.7251 5.72443C38.9453 5.62026 39.117 5.47348 39.2401 5.28409C39.3655 5.0947 39.4283 4.87216 39.4283 4.61648C39.4283 4.37026 39.3738 4.15601 39.2649 3.97372C39.156 3.79143 39.0021 3.64938 38.8033 3.54759C38.6068 3.44579 38.3748 3.39489 38.1072 3.39489C37.8563 3.39489 37.6196 3.44105 37.397 3.53338C37.1768 3.62334 36.9969 3.75473 36.8572 3.92756C36.7176 4.09801 36.6418 4.30398 36.63 4.54545H35.7777C35.7919 4.1643 35.9067 3.83049 36.1222 3.54403C36.3376 3.25521 36.6193 3.0303 36.9673 2.86932C37.3177 2.70833 37.7024 2.62784 38.1214 2.62784C38.5713 2.62784 38.9571 2.71899 39.2791 2.90128C39.6011 3.0812 39.8485 3.31913 40.0213 3.61506C40.1941 3.91098 40.2805 4.23059 40.2805 4.57386C40.2805 4.98343 40.1728 5.33262 39.9574 5.62145C39.7443 5.91027 39.4543 6.11032 39.0874 6.22159V6.27841C39.5466 6.35417 39.9053 6.54948 40.1634 6.86435C40.4214 7.17685 40.5504 7.56392 40.5504 8.02557C40.5504 8.42093 40.4427 8.77604 40.2273 9.09091C40.0142 9.40341 39.723 9.64962 39.3537 9.82955C38.9844 10.0095 38.5642 10.0994 38.093 10.0994ZM44.375 10.0994C43.84 10.0994 43.3842 9.95384 43.0078 9.66264C42.6314 9.36908 42.3438 8.94413 42.1449 8.38778C41.946 7.82907 41.8466 7.15436 41.8466 6.36364C41.8466 5.57765 41.946 4.90649 42.1449 4.35014C42.3461 3.79143 42.6349 3.36529 43.0114 3.07173C43.3902 2.7758 43.8447 2.62784 44.375 2.62784C44.9053 2.62784 45.3587 2.7758 45.7351 3.07173C46.1139 3.36529 46.4027 3.79143 46.6016 4.35014C46.8028 4.90649 46.9034 5.57765 46.9034 6.36364C46.9034 7.15436 46.804 7.82907 46.6051 8.38778C46.4062 8.94413 46.1186 9.36908 45.7422 9.66264C45.3658 9.95384 44.91 10.0994 44.375 10.0994ZM44.375 9.31818C44.9053 9.31818 45.3172 9.0625 45.6108 8.55114C45.9044 8.03977 46.0511 7.31061 46.0511 6.36364C46.0511 5.7339 45.9837 5.19768 45.8487 4.75497C45.7161 4.31226 45.5244 3.97491 45.2734 3.7429C45.0249 3.51089 44.7254 3.39489 44.375 3.39489C43.8494 3.39489 43.4387 3.65412 43.1428 4.17259C42.8468 4.68868 42.6989 5.41903 42.6989 6.36364C42.6989 6.99337 42.7652 7.52841 42.8977 7.96875C43.0303 8.40909 43.2209 8.74408 43.4695 8.97372C43.7204 9.20336 44.0223 9.31818 44.375 9.31818ZM50.625 10.0994C50.09 10.0994 49.6342 9.95384 49.2578 9.66264C48.8814 9.36908 48.5938 8.94413 48.3949 8.38778C48.196 7.82907 48.0966 7.15436 48.0966 6.36364C48.0966 5.57765 48.196 4.90649 48.3949 4.35014C48.5961 3.79143 48.8849 3.36529 49.2614 3.07173C49.6402 2.7758 50.0947 2.62784 50.625 2.62784C51.1553 2.62784 51.6087 2.7758 51.9851 3.07173C52.3639 3.36529 52.6527 3.79143 52.8516 4.35014C53.0528 4.90649 53.1534 5.57765 53.1534 6.36364C53.1534 7.15436 53.054 7.82907 52.8551 8.38778C52.6562 8.94413 52.3686 9.36908 51.9922 9.66264C51.6158 9.95384 51.16 10.0994 50.625 10.0994ZM50.625 9.31818C51.1553 9.31818 51.5672 9.0625 51.8608 8.55114C52.1544 8.03977 52.3011 7.31061 52.3011 6.36364C52.3011 5.7339 52.2337 5.19768 52.0987 4.75497C51.9661 4.31226 51.7744 3.97491 51.5234 3.7429C51.2749 3.51089 50.9754 3.39489 50.625 3.39489C50.0994 3.39489 49.6887 3.65412 49.3928 4.17259C49.0968 4.68868 48.9489 5.41903 48.9489 6.36364C48.9489 6.99337 49.0152 7.52841 49.1477 7.96875C49.2803 8.40909 49.4709 8.74408 49.7195 8.97372C49.9704 9.20336 50.2723 9.31818 50.625 9.31818ZM56.875 10.0994C56.34 10.0994 55.8842 9.95384 55.5078 9.66264C55.1314 9.36908 54.8438 8.94413 54.6449 8.38778C54.446 7.82907 54.3466 7.15436 54.3466 6.36364C54.3466 5.57765 54.446 4.90649 54.6449 4.35014C54.8461 3.79143 55.1349 3.36529 55.5114 3.07173C55.8902 2.7758 56.3447 2.62784 56.875 2.62784C57.4053 2.62784 57.8587 2.7758 58.2351 3.07173C58.6139 3.36529 58.9027 3.79143 59.1016 4.35014C59.3028 4.90649 59.4034 5.57765 59.4034 6.36364C59.4034 7.15436 59.304 7.82907 59.1051 8.38778C58.9062 8.94413 58.6186 9.36908 58.2422 9.66264C57.8658 9.95384 57.41 10.0994 56.875 10.0994ZM56.875 9.31818C57.4053 9.31818 57.8172 9.0625 58.1108 8.55114C58.4044 8.03977 58.5511 7.31061 58.5511 6.36364C58.5511 5.7339 58.4837 5.19768 58.3487 4.75497C58.2161 4.31226 58.0244 3.97491 57.7734 3.7429C57.5249 3.51089 57.2254 3.39489 56.875 3.39489C56.3494 3.39489 55.9387 3.65412 55.6428 4.17259C55.3468 4.68868 55.1989 5.41903 55.1989 6.36364C55.1989 6.99337 55.2652 7.52841 55.3977 7.96875C55.5303 8.40909 55.7209 8.74408 55.9695 8.97372C56.2204 9.20336 56.5223 9.31818 56.875 9.31818Z" fill="#201E29"/>
<line x1="68" y1="5.5" x2="672" y2="5.5" stroke="#8492A6" stroke-opacity="0.3"/>
<rect x="133" y="85.2222" width="8" height="147.778" fill="#517DEE"/>
<rect x="145" y="58" width="8" height="175" fill="#EDBB75"/>
<rect x="183" y="119" width="8" height="114" fill="#517DEE"/>
<rect x="195" y="98" width="8" height="135" fill="#EDBB75"/>
<rect x="233" y="61.5776" width="8" height="171.422" fill="#517DEE"/>
<rect x="245" y="30" width="8" height="203" fill="#EDBB75"/>
<rect x="283" y="78.4668" width="8" height="154.533" fill="#A2BAF6"/>
<rect x="295" y="50" width="8" height="183" fill="#EDBB75"/>
<rect x="333" y="100.422" width="8" height="132.578" fill="#517DEE"/>
<rect x="345" y="76" width="8" height="157" fill="#EDBB75"/>
<rect x="383" y="151.089" width="8" height="81.9111" fill="#517DEE"/>
<rect x="395" y="136" width="8" height="97" fill="#EDBB75"/>
<rect x="433" y="119" width="8" height="114" fill="#517DEE"/>
<rect x="445" y="98" width="8" height="135" fill="#EDBB75"/>
<rect x="483" y="164.6" width="8" height="68.4" fill="#517DEE"/>
<rect x="495" y="152" width="8" height="81" fill="#EDBB75"/>
<rect x="83" y="151.089" width="8" height="81.9111" fill="#517DEE"/>
<rect x="95" y="136" width="8" height="97" fill="#EDBB75"/>
<g filter="url(#filter0_d_3643_14719)">
<rect x="291" y="109" width="169" height="66" fill="white"/>
<rect x="291.5" y="109.5" width="168" height="65" stroke="#8492A6" stroke-opacity="0.3"/>
</g>
<path d="M300.415 129H299.307L302.511 120.273H303.602L306.807 129H305.699L303.091 121.653H303.023L300.415 129ZM300.824 125.591H305.29V126.528H300.824V125.591ZM312.155 126.324V122.455H313.161V129H312.155V127.892H312.087C311.933 128.224 311.695 128.507 311.371 128.74C311.047 128.97 310.638 129.085 310.143 129.085C309.734 129.085 309.371 128.996 309.053 128.817C308.734 128.635 308.484 128.362 308.303 127.999C308.121 127.632 308.03 127.17 308.03 126.614V122.455H309.036V126.545C309.036 127.023 309.169 127.403 309.436 127.688C309.706 127.972 310.05 128.114 310.467 128.114C310.717 128.114 310.972 128.05 311.23 127.922C311.491 127.794 311.71 127.598 311.886 127.334C312.065 127.07 312.155 126.733 312.155 126.324ZM317.645 131.591C317.159 131.591 316.741 131.528 316.392 131.403C316.042 131.281 315.751 131.119 315.518 130.918C315.288 130.719 315.105 130.506 314.968 130.278L315.77 129.716C315.86 129.835 315.975 129.972 316.115 130.125C316.254 130.281 316.444 130.416 316.686 130.53C316.93 130.646 317.25 130.705 317.645 130.705C318.173 130.705 318.609 130.577 318.953 130.321C319.297 130.065 319.468 129.665 319.468 129.119V127.79H319.383C319.309 127.909 319.204 128.057 319.068 128.233C318.934 128.406 318.741 128.561 318.488 128.697C318.238 128.831 317.9 128.898 317.474 128.898C316.946 128.898 316.471 128.773 316.051 128.523C315.633 128.273 315.302 127.909 315.058 127.432C314.816 126.955 314.696 126.375 314.696 125.693C314.696 125.023 314.814 124.439 315.049 123.942C315.285 123.442 315.613 123.055 316.034 122.783C316.454 122.507 316.94 122.369 317.491 122.369C317.917 122.369 318.255 122.44 318.505 122.582C318.758 122.722 318.951 122.881 319.085 123.06C319.221 123.236 319.326 123.381 319.4 123.494H319.502V122.455H320.474V129.188C320.474 129.75 320.346 130.207 320.091 130.56C319.838 130.915 319.497 131.175 319.068 131.339C318.642 131.507 318.167 131.591 317.645 131.591ZM317.61 127.994C318.014 127.994 318.355 127.902 318.633 127.717C318.912 127.533 319.123 127.267 319.268 126.92C319.413 126.574 319.485 126.159 319.485 125.676C319.485 125.205 319.414 124.788 319.272 124.428C319.13 124.067 318.92 123.784 318.642 123.58C318.363 123.375 318.02 123.273 317.61 123.273C317.184 123.273 316.829 123.381 316.545 123.597C316.264 123.812 316.052 124.102 315.91 124.466C315.771 124.83 315.701 125.233 315.701 125.676C315.701 126.131 315.772 126.533 315.914 126.882C316.059 127.229 316.272 127.501 316.554 127.7C316.838 127.896 317.19 127.994 317.61 127.994ZM326.44 126.324V122.455H327.446V129H326.44V127.892H326.372C326.218 128.224 325.98 128.507 325.656 128.74C325.332 128.97 324.923 129.085 324.429 129.085C324.02 129.085 323.656 128.996 323.338 128.817C323.02 128.635 322.77 128.362 322.588 127.999C322.406 127.632 322.315 127.17 322.315 126.614V122.455H323.321V126.545C323.321 127.023 323.454 127.403 323.721 127.688C323.991 127.972 324.335 128.114 324.752 128.114C325.002 128.114 325.257 128.05 325.515 127.922C325.777 127.794 325.995 127.598 326.172 127.334C326.35 127.07 326.44 126.733 326.44 126.324ZM333.924 123.92L333.021 124.176C332.964 124.026 332.88 123.879 332.769 123.737C332.661 123.592 332.513 123.473 332.326 123.379C332.138 123.286 331.898 123.239 331.606 123.239C331.205 123.239 330.871 123.331 330.604 123.516C330.34 123.697 330.208 123.929 330.208 124.21C330.208 124.46 330.299 124.658 330.481 124.803C330.663 124.947 330.947 125.068 331.333 125.165L332.305 125.403C332.89 125.545 333.326 125.763 333.613 126.055C333.9 126.345 334.043 126.719 334.043 127.176C334.043 127.551 333.935 127.886 333.719 128.182C333.506 128.477 333.208 128.71 332.825 128.881C332.441 129.051 331.995 129.136 331.487 129.136C330.819 129.136 330.266 128.991 329.829 128.702C329.391 128.412 329.114 127.989 328.998 127.432L329.952 127.193C330.043 127.545 330.215 127.81 330.468 127.986C330.724 128.162 331.058 128.25 331.469 128.25C331.938 128.25 332.31 128.151 332.586 127.952C332.864 127.75 333.004 127.509 333.004 127.227C333.004 127 332.924 126.81 332.765 126.656C332.606 126.5 332.362 126.384 332.032 126.307L330.941 126.051C330.342 125.909 329.901 125.689 329.62 125.391C329.342 125.089 329.202 124.713 329.202 124.261C329.202 123.892 329.306 123.565 329.513 123.281C329.724 122.997 330.009 122.774 330.37 122.612C330.734 122.45 331.146 122.369 331.606 122.369C332.254 122.369 332.762 122.511 333.131 122.795C333.504 123.08 333.768 123.455 333.924 123.92ZM338.404 122.455V123.307H335.012V122.455H338.404ZM336 120.886H337.006V127.125C337.006 127.409 337.047 127.622 337.13 127.764C337.215 127.903 337.323 127.997 337.453 128.045C337.587 128.091 337.728 128.114 337.875 128.114C337.986 128.114 338.077 128.108 338.148 128.097C338.219 128.082 338.276 128.071 338.319 128.062L338.523 128.966C338.455 128.991 338.36 129.017 338.238 129.043C338.115 129.071 337.961 129.085 337.773 129.085C337.489 129.085 337.211 129.024 336.938 128.902C336.668 128.78 336.444 128.594 336.265 128.344C336.088 128.094 336 127.778 336 127.398V120.886Z" fill="#201E29"/>
<line x1="292" y1="139.5" x2="460" y2="139.5" stroke="#8492A6" stroke-opacity="0.3"/>
<path opacity="0.7" d="M319.928 153.711L320.979 153.693L323.556 159.686L323.641 159.685L326.007 153.605L327.058 153.587L327.185 160.859L326.361 160.873L326.264 155.348L326.193 155.35L324.018 160.914L323.222 160.928L320.853 155.443L320.782 155.444L320.879 160.969L320.055 160.983L319.928 153.711ZM330.444 160.93C330.098 160.936 329.783 160.876 329.499 160.751C329.215 160.623 328.988 160.436 328.818 160.191C328.648 159.943 328.56 159.641 328.554 159.286C328.548 158.974 328.606 158.719 328.725 158.523C328.845 158.325 329.007 158.168 329.211 158.053C329.415 157.938 329.641 157.851 329.888 157.793C330.138 157.731 330.389 157.682 330.642 157.644C330.973 157.596 331.241 157.559 331.446 157.534C331.654 157.507 331.805 157.465 331.899 157.409C331.995 157.353 332.042 157.258 332.039 157.123L332.039 157.094C332.033 156.744 331.932 156.474 331.737 156.283C331.544 156.092 331.255 156 330.869 156.007C330.469 156.014 330.157 156.107 329.933 156.286C329.709 156.465 329.552 156.655 329.463 156.855L328.663 156.585C328.799 156.251 328.984 155.99 329.218 155.801C329.453 155.61 329.712 155.475 329.992 155.397C330.275 155.316 330.553 155.273 330.828 155.269C331.003 155.266 331.205 155.283 331.433 155.322C331.663 155.358 331.886 155.438 332.101 155.563C332.319 155.687 332.501 155.876 332.647 156.132C332.794 156.387 332.871 156.732 332.878 157.165L332.941 160.758L332.103 160.773L332.09 160.034L332.048 160.035C331.993 160.154 331.9 160.283 331.77 160.42C331.64 160.557 331.466 160.675 331.247 160.774C331.029 160.872 330.761 160.924 330.444 160.93ZM330.558 160.175C330.89 160.169 331.168 160.099 331.393 159.965C331.62 159.831 331.79 159.659 331.902 159.452C332.017 159.244 332.073 159.026 332.069 158.799L332.055 158.032C332.021 158.075 331.943 158.115 331.823 158.153C331.705 158.188 331.568 158.22 331.413 158.249C331.259 158.275 331.109 158.299 330.963 158.321C330.819 158.34 330.702 158.356 330.612 158.369C330.395 158.402 330.192 158.451 330.004 158.519C329.818 158.583 329.668 158.68 329.554 158.807C329.443 158.932 329.389 159.101 329.393 159.314C329.398 159.605 329.509 159.824 329.727 159.969C329.948 160.112 330.225 160.181 330.558 160.175ZM335.182 153.445L335.308 160.717L334.47 160.731L334.344 153.46L335.182 153.445ZM339.132 160.764C338.606 160.773 338.151 160.665 337.766 160.44C337.383 160.212 337.085 159.89 336.872 159.475C336.661 159.057 336.55 158.569 336.541 158.01C336.531 157.452 336.624 156.958 336.82 156.528C337.019 156.096 337.299 155.757 337.662 155.512C338.027 155.264 338.456 155.136 338.948 155.127C339.232 155.122 339.513 155.164 339.792 155.254C340.071 155.344 340.325 155.494 340.556 155.703C340.787 155.909 340.973 156.185 341.114 156.531C341.255 156.877 341.33 157.304 341.339 157.813L341.345 158.168L337.141 158.241L337.129 157.517L340.481 157.458C340.475 157.151 340.409 156.877 340.282 156.638C340.157 156.399 339.98 156.211 339.753 156.075C339.528 155.94 339.264 155.874 338.961 155.88C338.627 155.885 338.34 155.973 338.099 156.143C337.861 156.311 337.679 156.527 337.553 156.792C337.427 157.057 337.367 157.34 337.372 157.641L337.381 158.123C337.388 158.535 337.465 158.883 337.612 159.167C337.762 159.449 337.965 159.662 338.224 159.806C338.482 159.949 338.78 160.017 339.119 160.011C339.339 160.007 339.537 159.973 339.713 159.908C339.892 159.841 340.046 159.744 340.174 159.616C340.302 159.486 340.399 159.326 340.467 159.135L341.281 159.348C341.2 159.624 341.061 159.868 340.864 160.08C340.666 160.289 340.42 160.455 340.126 160.576C339.833 160.695 339.501 160.757 339.132 160.764Z" fill="#201E29"/>
<rect x="299" y="149" width="16" height="16" fill="#517DEE"/>
<path d="M349.049 161.984L349.032 161.029L351.931 157.918C352.241 157.581 352.496 157.285 352.696 157.031C352.899 156.775 353.049 156.532 353.148 156.303C353.246 156.074 353.293 155.832 353.288 155.576C353.283 155.286 353.211 155.038 353.071 154.83C352.931 154.619 352.742 154.459 352.504 154.35C352.266 154.237 352 154.184 351.704 154.189C351.392 154.194 351.12 154.263 350.89 154.395C350.659 154.527 350.483 154.71 350.362 154.945C350.241 155.18 350.184 155.454 350.189 155.767L348.932 155.789C348.923 155.257 349.037 154.791 349.274 154.389C349.512 153.987 349.841 153.673 350.264 153.447C350.686 153.218 351.168 153.099 351.711 153.089C352.259 153.08 352.744 153.18 353.165 153.392C353.589 153.6 353.922 153.89 354.165 154.261C354.407 154.629 354.532 155.047 354.54 155.516C354.546 155.84 354.491 156.158 354.374 156.469C354.26 156.781 354.057 157.13 353.766 157.516C353.474 157.899 353.067 158.365 352.545 158.914L350.843 160.759L350.844 160.823L354.773 160.754L354.792 161.883L349.049 161.984ZM359.565 153.071L359.718 161.797L358.397 161.82L358.268 154.415L358.216 154.416L356.152 155.816L356.13 154.555L358.283 153.094L359.565 153.071ZM365.118 161.848C364.445 161.857 363.867 161.689 363.384 161.345C362.9 161.002 362.526 160.495 362.262 159.826C361.997 159.158 361.857 158.349 361.84 157.4C361.824 156.454 361.936 155.644 362.177 154.969C362.421 154.294 362.778 153.777 363.249 153.416C363.723 153.056 364.294 152.869 364.962 152.858C365.629 152.846 366.205 153.014 366.688 153.36C367.171 153.704 367.545 154.209 367.81 154.875C368.077 155.538 368.219 156.343 368.235 157.289C368.252 158.24 368.14 159.055 367.899 159.732C367.658 160.407 367.302 160.926 366.831 161.29C366.36 161.65 365.789 161.836 365.118 161.848ZM365.099 160.71C365.689 160.7 366.146 160.404 366.468 159.821C366.793 159.239 366.946 158.402 366.927 157.311C366.915 156.587 366.827 155.976 366.665 155.479C366.506 154.979 366.282 154.602 365.993 154.349C365.708 154.092 365.37 153.967 364.981 153.974C364.393 153.984 363.937 154.282 363.611 154.867C363.286 155.453 363.132 156.289 363.148 157.377C363.161 158.105 363.247 158.718 363.406 159.218C363.568 159.716 363.792 160.091 364.078 160.345C364.364 160.595 364.704 160.717 365.099 160.71ZM372.863 161.713C372.19 161.722 371.612 161.554 371.129 161.21C370.645 160.866 370.271 160.36 370.007 159.691C369.742 159.022 369.602 158.214 369.585 157.265C369.568 156.319 369.681 155.509 369.922 154.834C370.166 154.159 370.523 153.642 370.994 153.281C371.468 152.92 372.039 152.734 372.706 152.723C373.374 152.711 373.949 152.879 374.433 153.225C374.916 153.569 375.29 154.074 375.555 154.74C375.822 155.403 375.964 156.208 375.98 157.153C375.997 158.105 375.885 158.92 375.644 159.597C375.403 160.272 375.046 160.791 374.575 161.154C374.104 161.515 373.534 161.701 372.863 161.713ZM372.844 160.575C373.434 160.565 373.891 160.268 374.213 159.686C374.538 159.104 374.691 158.267 374.672 157.176C374.66 156.452 374.572 155.841 374.41 155.344C374.251 154.844 374.027 154.467 373.738 154.213C373.453 153.957 373.115 153.832 372.726 153.839C372.138 153.849 371.681 154.147 371.356 154.732C371.031 155.318 370.877 156.154 370.893 157.242C370.906 157.969 370.992 158.583 371.151 159.083C371.313 159.58 371.537 159.956 371.823 160.209C372.108 160.46 372.449 160.582 372.844 160.575ZM380.862 161.428L380.71 152.702L383.82 152.648C384.499 152.636 385.064 152.75 385.514 152.989C385.964 153.229 386.304 153.561 386.533 153.986C386.762 154.408 386.881 154.886 386.891 155.42C386.9 155.957 386.796 156.442 386.579 156.875C386.365 157.305 386.036 157.648 385.592 157.906C385.15 158.161 384.591 158.294 383.915 158.306L381.776 158.344L381.757 157.227L383.776 157.192C384.205 157.185 384.552 157.105 384.816 156.952C385.081 156.797 385.273 156.589 385.393 156.328C385.514 156.068 385.571 155.773 385.566 155.443C385.56 155.114 385.492 154.822 385.363 154.569C385.233 154.315 385.032 154.119 384.76 153.978C384.491 153.838 384.137 153.772 383.7 153.78L382.046 153.808L382.179 161.405L380.862 161.428ZM390.283 161.409C389.869 161.416 389.492 161.346 389.154 161.198C388.817 161.048 388.547 160.827 388.346 160.535C388.148 160.243 388.045 159.882 388.037 159.453C388.031 159.084 388.096 158.779 388.234 158.538C388.372 158.297 388.561 158.104 388.8 157.961C389.039 157.818 389.307 157.708 389.604 157.632C389.901 157.555 390.204 157.496 390.513 157.454C390.904 157.402 391.221 157.359 391.465 157.326C391.709 157.291 391.885 157.238 391.995 157.168C392.105 157.098 392.158 156.986 392.155 156.833L392.155 156.803C392.148 156.431 392.038 156.144 391.825 155.943C391.614 155.743 391.302 155.646 390.89 155.653C390.461 155.66 390.125 155.761 389.881 155.956C389.64 156.148 389.475 156.36 389.385 156.591L388.183 156.339C388.318 155.939 388.52 155.615 388.788 155.366C389.06 155.114 389.373 154.929 389.729 154.812C390.085 154.692 390.46 154.629 390.855 154.622C391.117 154.618 391.394 154.644 391.688 154.701C391.984 154.756 392.262 154.862 392.52 155.019C392.781 155.177 392.997 155.404 393.167 155.703C393.337 155.998 393.426 156.384 393.435 156.862L393.51 161.207L392.266 161.229L392.251 160.334L392.2 160.335C392.12 160.501 391.999 160.666 391.837 160.827C391.675 160.989 391.466 161.125 391.209 161.235C390.953 161.344 390.644 161.402 390.283 161.409ZM390.542 160.381C390.895 160.375 391.195 160.3 391.442 160.157C391.692 160.013 391.881 159.828 392.008 159.601C392.137 159.372 392.2 159.128 392.195 158.869L392.181 158.026C392.136 158.072 392.049 158.116 391.919 158.158C391.791 158.197 391.646 158.232 391.481 158.264C391.317 158.292 391.157 158.319 391.001 158.345C390.845 158.367 390.715 158.386 390.61 158.403C390.364 158.438 390.139 158.495 389.935 158.572C389.735 158.649 389.575 158.759 389.455 158.9C389.338 159.038 389.282 159.221 389.286 159.449C389.291 159.764 389.412 160 389.648 160.158C389.883 160.313 390.182 160.388 390.542 160.381ZM398.148 154.58L398.166 155.603L394.591 155.665L394.573 154.642L398.148 154.58ZM395.504 153.058L396.778 153.036L396.887 159.226C396.891 159.473 396.931 159.659 397.007 159.783C397.083 159.903 397.18 159.986 397.297 160.029C397.417 160.069 397.547 160.089 397.686 160.086C397.788 160.084 397.877 160.076 397.954 160.06C398.03 160.045 398.09 160.032 398.132 160.023L398.381 161.071C398.307 161.101 398.203 161.131 398.067 161.162C397.931 161.196 397.761 161.216 397.556 161.222C397.221 161.234 396.908 161.179 396.616 161.059C396.324 160.94 396.086 160.75 395.903 160.492C395.719 160.234 395.624 159.908 395.617 159.513L395.504 153.058ZM399.671 161.1L399.557 154.555L400.831 154.533L400.945 161.078L399.671 161.1ZM400.183 153.534C399.961 153.538 399.77 153.468 399.608 153.323C399.449 153.175 399.368 152.997 399.364 152.79C399.361 152.58 399.436 152.4 399.589 152.249C399.746 152.096 399.935 152.017 400.156 152.013C400.378 152.009 400.568 152.081 400.727 152.229C400.889 152.374 400.971 152.552 400.975 152.762C400.979 152.969 400.902 153.15 400.746 153.303C400.592 153.453 400.404 153.531 400.183 153.534ZM405.482 161.131C404.837 161.142 404.28 161.014 403.809 160.746C403.341 160.476 402.976 160.092 402.715 159.593C402.456 159.092 402.321 158.502 402.309 157.823C402.297 157.153 402.412 156.56 402.653 156.044C402.897 155.529 403.242 155.123 403.689 154.829C404.138 154.534 404.667 154.381 405.275 154.37C405.644 154.364 406.003 154.419 406.352 154.535C406.7 154.651 407.015 154.837 407.295 155.094C407.575 155.35 407.798 155.686 407.964 156.101C408.131 156.513 408.219 157.015 408.229 157.609L408.237 158.061L403.035 158.152L403.018 157.197L406.972 157.128C406.966 156.793 406.893 156.497 406.752 156.241C406.611 155.982 406.416 155.78 406.166 155.633C405.919 155.487 405.631 155.417 405.302 155.423C404.944 155.429 404.633 155.522 404.369 155.703C404.108 155.881 403.907 156.112 403.767 156.396C403.63 156.676 403.564 156.98 403.57 157.307L403.583 158.052C403.591 158.49 403.674 158.861 403.833 159.165C403.994 159.469 404.215 159.699 404.497 159.856C404.778 160.011 405.104 160.084 405.477 160.078C405.718 160.074 405.938 160.036 406.135 159.964C406.333 159.89 406.503 159.782 406.645 159.64C406.788 159.498 406.895 159.324 406.969 159.119L408.178 159.315C408.088 159.672 407.92 159.986 407.675 160.257C407.432 160.525 407.125 160.737 406.752 160.891C406.383 161.042 405.959 161.122 405.482 161.131ZM410.907 157.017L410.975 160.903L409.701 160.925L409.587 154.38L410.81 154.359L410.828 155.424L410.909 155.423C411.054 155.074 411.285 154.791 411.602 154.575C411.922 154.36 412.328 154.247 412.819 154.239C413.265 154.231 413.657 154.318 413.996 154.499C414.334 154.678 414.599 154.949 414.79 155.312C414.981 155.676 415.081 156.127 415.091 156.667L415.163 160.829L413.889 160.852L413.819 156.842C413.811 156.368 413.681 156 413.429 155.737C413.178 155.471 412.836 155.342 412.404 155.35C412.109 155.355 411.847 155.423 411.619 155.555C411.394 155.687 411.217 155.878 411.088 156.127C410.961 156.374 410.901 156.67 410.907 157.017ZM419.813 154.202L419.83 155.224L416.256 155.287L416.238 154.264L419.813 154.202ZM417.169 152.68L418.443 152.657L418.551 158.848C418.555 159.095 418.596 159.281 418.672 159.404C418.748 159.525 418.844 159.607 418.962 159.651C419.082 159.691 419.211 159.71 419.35 159.708C419.453 159.706 419.542 159.697 419.618 159.682C419.695 159.666 419.754 159.654 419.797 159.645L420.045 160.693C419.972 160.723 419.867 160.753 419.731 160.784C419.596 160.817 419.426 160.837 419.221 160.844C418.886 160.855 418.572 160.801 418.281 160.681C417.989 160.561 417.751 160.372 417.567 160.114C417.384 159.856 417.289 159.529 417.282 159.135L417.169 152.68ZM426.048 155.691L424.897 155.916C424.846 155.769 424.767 155.63 424.66 155.498C424.555 155.366 424.414 155.26 424.237 155.177C424.059 155.095 423.838 155.056 423.574 155.061C423.213 155.067 422.913 155.154 422.675 155.32C422.436 155.483 422.319 155.691 422.324 155.944C422.327 156.163 422.411 156.337 422.576 156.468C422.74 156.599 423.003 156.703 423.365 156.782L424.409 157.003C425.014 157.131 425.466 157.338 425.767 157.623C426.067 157.907 426.221 158.281 426.23 158.744C426.236 159.136 426.129 159.487 425.907 159.798C425.688 160.106 425.378 160.35 424.978 160.53C424.58 160.711 424.117 160.805 423.589 160.815C422.856 160.827 422.256 160.682 421.787 160.377C421.319 160.07 421.027 159.628 420.912 159.05L422.14 158.841C422.222 159.161 422.384 159.401 422.625 159.561C422.867 159.719 423.179 159.795 423.563 159.788C423.98 159.781 424.312 159.688 424.559 159.51C424.806 159.33 424.928 159.113 424.923 158.861C424.92 158.656 424.84 158.486 424.684 158.349C424.531 158.212 424.298 158.111 423.984 158.046L422.872 157.822C422.259 157.694 421.803 157.48 421.505 157.181C421.21 156.882 421.059 156.5 421.051 156.034C421.044 155.648 421.146 155.308 421.357 155.015C421.568 154.721 421.862 154.49 422.24 154.321C422.618 154.15 423.052 154.06 423.544 154.052C424.251 154.039 424.81 154.183 425.222 154.483C425.633 154.779 425.909 155.182 426.048 155.691Z" fill="#201E29"/>
<defs>
<filter id="filter0_d_3643_14719" x="280" y="105" width="191" height="88" filterUnits="userSpaceOnUse" color-interpolation-filters="sRGB">
<feFlood flood-opacity="0" result="BackgroundImageFix"/>
<feColorMatrix in="SourceAlpha" type="matrix" values="0 0 0 0 0 0 0 0 0 0 0 0 0 0 0 0 0 0 127 0" result="hardAlpha"/>
<feOffset dy="7"/>
<feGaussianBlur stdDeviation="5.5"/>
<feComposite in2="hardAlpha" operator="out"/>
<feColorMatrix type="matrix" values="0 0 0 0 0 0 0 0 0 0 0 0 0 0 0 0 0 0 0.05 0"/>
<feBlend mode="normal" in2="BackgroundImageFix" result="effect1_dropShadow_3643_14719"/>
<feBlend mode="normal" in="SourceGraphic" in2="effect1_dropShadow_3643_14719" result="shape"/>
</filter>
</defs>
</svg>
